{
.appVersion = "3516";
.formatVersion = 3;
axes = (
{
name = Weight;
tag = wght;
},
{
hidden = 1;
name = Width;
tag = wdth;
}
);
classes = (
{
automatic = 1;
code = "A Aacute Abreve Acaron Acircumflex Adieresis Agrave Amacron Aogonek Aring Atilde AE AEacute B C Cacute Ccaron Ccedilla Ccircumflex Cdotaccent D Dcaron Dcroat Eth E Eacute Ebreve Ecaron Ecircumflex Edieresis Edotaccent Egrave Emacron Eogonek Etilde Schwa F G Gbreve Gcircumflex Gcommaaccent Gdotaccent H Hbar Hcircumflex I Iacute Ibreve Icircumflex Idieresis Idotaccent Igrave Imacron Iogonek Itilde J Jacute Jcircumflex K Kcommaaccent L Lacute Lcaron Lcommaaccent Ldotaccent Lslash M N Nacute Ncaron Ncommaaccent Ntilde Eng O Oacute Obreve Ocaron Ocircumflex Odieresis Ograve Ohungarumlaut Omacron Oslash Oslashacute Otilde OE P Thorn Q R Racute Rcaron Rcommaaccent S Sacute Scaron Scedilla Scircumflex Scommaaccent Germandbls T Tbar Tcaron Tcedilla Tcommaaccent U Uacute Ubreve Ucircumflex Udieresis Ugrave Uhungarumlaut Umacron Uogonek Uring Utilde V W Wacute Wcircumflex Wdieresis Wgrave X Y Yacute Ycircumflex Ydieresis Ygrave Ytilde Z Zacute Zcaron Zdotaccent";
name = Uppercase;
}
);
customParameters = (
{
name = "Instance Preview";
value = (
A,
a,
B,
b,
C,
c,
"0",
"1",
"2",
"3",
$,
"¢"
);
},
{
name = "EditView Line Height";
value = 1500;
},
{
name = fsType;
value = (
);
},
{
name = "Family Alignment Zones";
value = (
{
pos = 700;
size = 10;
},
{
pos = 700;
size = 10;
},
{
pos = 510;
size = 10;
},
{
pos = 0;
size = -10;
},
{
pos = -200;
size = -10;
}
);
},
{
name = "Use Typo Metrics";
value = 1;
},
{
name = "Use Extension Kerning";
value = 1;
},
{
name = "Use Line Breaks";
value = 1;
},
{
name = "Use Extension Kerning";
value = 1;
},
{
name = "meta Table";
value = (
{
data = "latin, latin-ext";
tag = dlng;
},
{
data = "latin, latin-ext";
tag = slng;
}
);
},
{
name = blueScale;
value = 0.04796;
},
{
name = "TrueType Curve Error";
value = 0.3;
},
{
name = TTFMinimumDistance;
value = 0.5;
},
{
name = TTFBlueFuzz;

glyphs = (
{
glyphname = A;
kernLeft = A;
kernRight = A;
lastChange = "2026-01-23 20:50:18 +0000";
layers = (
{
anchors = (
{
name = bottom;
pos = (452,0);
},
{
name = ogonek;
pos = (798,0);
},
{
name = top;
pos = (452,700);
}
);
layerId = "5EDB8360-C867-4183-822A-D387B21AE085";
shapes = (
{
closed = 1;
nodes = (
(235,0,l),
(478,584,l),
(412,584,l),
(669,0,l),
(940,0,l),
(610,700,l),
(310,700,l),
(-6,0,l)
);
},
{
closed = 1;
nodes = (
(753,124,l),
(703,283,l),
(222,283,l),
(152,124,l)
);
}
);
width = 927;
},
{
anchors = (
{
name = bottom;
pos = (429,0);
},
{
name = ogonek;
pos = (808,0);
},
{
name = top;
pos = (429,700);
}
);
layerId = "420CDBF3-1EA9-4A60-A2C9-262C353BE567";
shapes = (
{
closed = 1;
nodes = (
(103,0,l),
(432,632,l),
(425,632,l),
(753,0,l),
(848,0,l),
(483,700,l),
(377,700,l),
(13,0,l)
);
},
{
closed = 1;
nodes = (
(677,221,l),
(658,296,l),
(199,296,l),
(172,221,l)
);
}
);
width = 860;
},
{
anchors = (
{
name = bottom;
pos = (333,0);
},
{
name = ogonek;
pos = (611,0);
},
{
name = top;
pos = (333,700);
}
);
layerId = "49EC3AAF-00BE-4B7E-9333-53C2424A5618";
shapes = (
{
closed = 1;
nodes = (
(98,0,l),
(336,637,l),
(327,637,l),
(565,0,l),
(647,0,l),
(380,700,l),
(285,700,l),
(18,0,l)
);
},
{
closed = 1;
nodes = (
(535,216,l),
(508,287,l),
(163,287,l),
(140,216,l)
);
}
);
width = 665;
},
{
anchors = (
{
name = bottom;
pos = (357,0);
},
{
name = ogonek;
pos = (610,0);
},
{
name = top;
pos = (357,700);
}
);
layerId = "936587BF-088D-4F2D-A787-D302E778354F";
shapes = (
{
closed = 1;
nodes = (
(192,0,l),
(376,590,l),
(338,590,l),
(511,0,l),
(738,0,l),
(503,700,l),
(229,700,l),
(-6,0,l)
);
},
{
closed = 1;
nodes = (
(590,145,l),
(545,295,l),
(185,295,l),
(124,145,l)
);
}
);
width = 732;
}
);
unicode = 65;
},
{
glyphname = AE;
kernLeft = AE;
kernRight = E;
lastChange = "2026-01-23 20:50:18 +0000";
layers = (
{
anchors = (
{
name = top;
pos = (961,700);
}
);
background = {
shapes = (
{
closed = 1;
nodes = (
(1400,518,l),
(1400,700,l),
(636,700,l),
(636,0,l),
(1400,0,l),
(1400,182,l),
(780,182,l),
(893,95,l),
(893,605,l),
(780,518,l)
);
},
{
closed = 1;
nodes = (
(1241,268,l),
(1241,435,l),
(854,435,l),
(854,268,l)
);
}
);
};
layerId = "5EDB8360-C867-4183-822A-D387B21AE085";
shapes = (
{
closed = 1;
nodes = (
(278,0,l),
(744,595,l),
(658,595,l),
(658,0,l),
(1383,0,l),
(1383,182,l),
(800,182,l),
(915,101,l),
(915,599,l),
(800,518,l),
(1383,518,l),
(1383,700,l),
(538,700,l),
(-28,0,l)
);
},
{
closed = 1;
nodes = (
(1224,268,l),
(1224,435,l),
(874,435,l),
(874,268,l)
);
},
{
closed = 1;
nodes = (
(737,104,l),
(737,263,l),
(386,263,l),
(246,104,l)
);
}
);
width = 1405;
},
{
anchors = (
{
name = top;
pos = (929,700);
}
);
layerId = "420CDBF3-1EA9-4A60-A2C9-262C353BE567";
shapes = (
{
closed = 1;
nodes = (
(84,0,l),
(669,652,l),
(644,652,l),
(644,0,l),
(1266,0,l),
(1266,82,l),
(695,82,l),
(734,36,l),
(734,664,l),
(695,618,l),
(1256,618,l),
(1256,700,l),
(602,700,l),
(-22,0,l)
);
},
{
closed = 1;
nodes = (
(1080,324,l),
(1080,405,l),
(701,405,l),
(701,324,l)
);
},
{
closed = 1;
nodes = (
(671,221,l),
(671,296,l),
(304,296,l),
(224,221,l)
);
}
);
width = 1300;
},
{
anchors = (
{
name = top;
pos = (671,700);
}
);
layerId = "49EC3AAF-00BE-4B7E-9333-53C2424A5618";
shapes = (
{
closed = 1;
nodes = (
(74,0,l),
(484,655,l),
(466,655,l),
(466,0,l),
(923,0,l),
(923,75,l),
(513,75,l),
(547,32,l),
(547,668,l),
(513,625,l),
(914,625,l),
(914,700,l),
(427,700,l),
(-13,0,l)
);
},
{
closed = 1;
nodes = (
(788,328,l),
(788,403,l),
(537,403,l),
(537,328,l)
);
},
{
closed = 1;
nodes = (
(506,216,l),
(506,287,l),
(227,287,l),
(184,216,l)
);
}
);
width = 960;
},
{
anchors = (
{
name = top;
pos = (670,700);
}
);
layerId = "936587BF-088D-4F2D-A787-D302E778354F";
shapes = (
{
closed = 1;
nodes = (
(213,0,l),
(506,608,l),
(458,608,l),
(458,0,l),
(996,0,l),
(996,161,l),
(585,161,l),
(678,87,l),
(678,613,l),
(585,539,l),
(996,539,l),
(996,700,l),
(343,700,l),
(-24,0,l)
);
},
{
closed = 1;
nodes = (
(872,274,l),
(872,432,l),
(651,432,l),
(651,274,l)
);
},
{
closed = 1;
nodes = (
(540,145,l),
(540,295,l),
(257,295,l),
(166,145,l)
);
}
);
width = 1017;
}
);
unicode = 198;
},
{
glyphname = B;
kernLeft = H;
lastChange = "2026-01-23 20:50:18 +0000";
layers = (
{
layerId = "5EDB8360-C867-4183-822A-D387B21AE085";
shapes = (
{
closed = 1;
nodes = (
(619,0,ls),
(768,0,o),
(864,91,o),
(864,210,cs),
(864,338,o),
(787,395,o),
(619,408,c),
(619,410,l),
(763,422,o),
(829,467,o),
(829,555,cs),
(829,649,o),
(754,700,o),
(597,700,cs),
(37,700,l),
(37,0,l)
);
},
{
closed = 1;
nodes = (
(294,603,l),
(189,524,l),
(508,524,ls),
(545,524,o),
(568,504,o),
(568,469,cs),
(568,434,o),
(545,414,o),
(508,414,cs),
(190,414,l),
(190,293,l),
(540,293,ls),
(576,293,o),
(598,271,o),
(598,237,cs),
(598,199,o),
(575,175,o),
(540,175,cs),
(189,175,l),
(294,97,l)
);
}
);
width = 863;
},
{
layerId = "420CDBF3-1EA9-4A60-A2C9-262C353BE567";
shapes = (
{
closed = 1;
nodes = (
(535,0,ls),
(703,0,o),
(798,76,o),
(798,194,cs),
(798,299,o),
(727,365,o),
(590,376,c),
(590,378,l),
(695,394,o),
(761,455,o),
(761,540,cs),
(761,640,o),
(671,700,o),
(534,700,cs),
(92,700,l),
(92,0,l)
);
},
{
closed = 1;
nodes = (
(182,664,l),
(145,619,l),
(524,619,ls),
(615,619,o),
(671,578,o),
(671,506,cs),
(671,440,o),
(625,395,o),
(534,395,cs),
(148,395,l),
(148,317,l),
(545,317,ls),
(652,317,o),
(708,274,o),
(708,204,cs),
(708,127,o),
(635,80,o),
(528,80,cs),
(145,80,l),
(182,36,l)
);
}
);
width = 845;
},
{
layerId = "49EC3AAF-00BE-4B7E-9333-53C2424A5618";
shapes = (
{
closed = 1;
nodes = (
(372,0,ls),
(523,0,o),
(603,73,o),
(603,196,cs),
(603,295,o),
(540,356,o),
(427,370,c),
(427,372,l),
(518,389,o),
(568,448,o),
(568,535,cs),
(568,638,o),
(499,700,o),
(363,700,cs),
(94,700,l),
(94,0,l)
);
},
{
closed = 1;
nodes = (
(174,668,l),
(141,625,l),
(352,625,ls),
(440,625,o),
(484,592,o),
(484,513,cs),
(484,436,o),
(444,393,o),
(373,393,cs),
(143,393,l),
(143,319,l),
(383,319,ls),
(472,319,o),
(518,273,o),
(518,200,cs),
(518,122,o),
(470,75,o),
(365,75,cs),
(141,75,l),
(174,32,l)
);
}
);
width = 652;
},
{
layerId = "936587BF-088D-4F2D-A787-D302E778354F";
shapes = (
{
closed = 1;
nodes = (
(429,0,ls),
(581,0,o),
(682,88,o),
(682,221,cs),
(682,318,o),
(632,376,o),
(523,400,c),
(523,404,l),
(615,424,o),
(655,471,o),
(655,550,cs),
(655,652,o),
(589,700,o),
(440,700,cs),
(40,700,l),
(40,0,l)
);
},
{
closed = 1;
nodes = (
(260,616,l),
(170,547,l),
(364,547,ls),
(412,547,o),
(435,525,o),
(435,487,cs),
(435,447,o),
(412,422,o),
(363,422,cs),
(171,422,l),
(171,290,l),
(379,290,ls),
(423,290,o),
(448,265,o),
(448,224,cs),
(448,182,o),
(423,152,o),
(379,152,cs),
(170,152,l),
(260,84,l)
);
}
);
width = 696;
}
);
unicode = 66;
},
{
glyphname = C;
kernLeft = O;
kernRight = C;
lastChange = "2026-01-23 20:50:18 +0000";
layers = (
{
anchors = (
{
name = bottom;
pos = (458,0);
},
{
name = top;
pos = (477,700);
}
);
layerId = "5EDB8360-C867-4183-822A-D387B21AE085";
shapes = (
{
closed = 1;
nodes = (
(689,-10,o),
(847,73,o),
(913,220,c),
(679,305,l),
(650,234,o),
(594,180,o),
(489,180,cs),
(361,180,o),
(286,243,o),
(286,349,cs),
(286,457,o),
(361,520,o),
(489,520,cs),
(592,520,o),
(649,475,o),
(678,406,c),
(908,489,l),
(840,633,o),
(685,710,o),
(485,710,cs),
(205,710,o),
(16,569,o),
(16,349,cs),
(16,132,o),
(205,-10,o),
(485,-10,cs)
);
}
);
width = 908;
},
{
anchors = (
{
name = bottom;
pos = (442,0);
},
{
name = top;
pos = (458,700);
}
);
layerId = "420CDBF3-1EA9-4A60-A2C9-262C353BE567";
shapes = (
{
closed = 1;
nodes = (
(645,-10,o),
(777,74,o),
(820,223,c),
(734,243,l),
(701,130,o),
(597,70,o),
(457,70,cs),
(267,70,o),
(141,183,o),
(141,349,cs),
(141,516,o),
(267,630,o),
(457,630,cs),
(596,630,o),
(698,571,o),
(732,459,c),
(820,479,l),
(774,627,o),
(641,710,o),
(457,710,cs),
(213,710,o),
(51,565,o),
(51,349,cs),
(51,134,o),
(213,-10,o),
(457,-10,cs)
);
}
);
width = 860;
},
{
anchors = (
{
name = bottom;
pos = (372,0);
},
{
name = top;
pos = (370,700);
}
);
layerId = "49EC3AAF-00BE-4B7E-9333-53C2424A5618";
shapes = (
{
closed = 1;
nodes = (
(497,-10,o),
(588,48,o),
(633,142,c),
(562,175,l),
(529,106,o),
(464,65,o),
(373,65,cs),
(222,65,o),
(137,179,o),
(137,349,cs),
(137,520,o),
(222,635,o),
(373,635,cs),
(462,635,o),
(528,595,o),
(561,527,c),
(632,560,l),
(586,653,o),
(495,710,o),
(373,710,cs),
(173,710,o),
(52,561,o),
(52,349,cs),
(52,138,o),
(173,-10,o),
(373,-10,cs)
);
}
);
width = 671;
},
{
anchors = (
{
name = bottom;
pos = (358,0);
},
{
name = top;
pos = (367,700);
}
);
layerId = "936587BF-088D-4F2D-A787-D302E778354F";
shapes = (
{
closed = 1;
nodes = (
(515,-10,o),
(625,64,o),
(673,186,c),
(477,252,l),
(462,187,o),
(427,156,o),
(367,156,cs),
(279,156,o),
(238,214,o),
(238,349,cs),
(238,485,o),
(279,544,o),
(367,544,cs),
(423,544,o),
(457,517,o),
(473,456,c),
(668,522,l),
(618,642,o),
(511,710,o),
(367,710,cs),
(158,710,o),
(18,567,o),
(18,349,cs),
(18,133,o),
(158,-10,o),
(367,-10,cs)
);
}
);
width = 671;
}
);
unicode = 67;
},
{
glyphname = D;
kernLeft = H;
kernRight = D;
lastChange = "2026-01-23 20:50:18 +0000";
layers = (
{
anchors = (
{
name = bottom;
pos = (443,0);
},
{
name = center;
pos = (197,350);
},
{
name = top;
pos = (405,700);
}
);
layerId = "5EDB8360-C867-4183-822A-D387B21AE085";
shapes = (
{
closed = 1;
nodes = (
(457,0,ls),
(749,0,o),
(915,134,o),
(915,355,cs),
(915,571,o),
(749,700,o),
(457,700,cs),
(37,700,l),
(37,0,l)
);
},
{
closed = 1;
nodes = (
(294,595,l),
(182,514,l),
(457,514,ls),
(589,514,o),
(645,450,o),
(645,355,cs),
(645,252,o),
(589,186,o),
(457,186,cs),
(182,186,l),
(294,105,l)
);
}
);
width = 932;
},
{
anchors = (
{
name = bottom;
pos = (480,0);
},
{
name = center;
pos = (231,350);
},
{
name = top;
pos = (428,700);
}
);
layerId = "420CDBF3-1EA9-4A60-A2C9-262C353BE567";
shapes = (
{
closed = 1;
nodes = (
(407,0,ls),
(717,0,o),
(864,131,o),
(864,351,cs),
(864,570,o),
(717,700,o),
(407,700,cs),
(92,700,l),
(92,0,l)
);
},
{
closed = 1;
nodes = (
(182,662,l),
(145,620,l),
(407,620,ls),
(660,620,o),
(774,519,o),
(774,351,cs),
(774,182,o),
(660,80,o),
(407,80,cs),
(145,80,l),
(182,38,l)
);
}
);
width = 916;
},
{
anchors = (
{
name = bottom;
pos = (393,0);
},
{
name = center;
pos = (190,350);
},
{
name = top;
pos = (355,700);
}
);
layerId = "49EC3AAF-00BE-4B7E-9333-53C2424A5618";
shapes = (
{
closed = 1;
nodes = (
(317,0,ls),
(535,0,o),
(674,131,o),
(674,351,cs),
(674,570,o),
(535,700,o),
(317,700,cs),
(94,700,l),
(94,0,l)
);
},
{
closed = 1;
nodes = (
(174,666,l),
(141,625,l),
(327,625,ls),
(484,625,o),
(589,523,o),
(589,351,cs),
(589,178,o),
(484,75,o),
(327,75,cs),
(141,75,l),
(174,34,l)
);
}
);
width = 726;
},
{
anchors = (
{
name = bottom;
pos = (325,0);
},
{
name = center;
pos = (182,350);
},
{
name = top;
pos = (326,700);
}
);
layerId = "936587BF-088D-4F2D-A787-D302E778354F";
shapes = (
{
closed = 1;
nodes = (
(313,0,ls),
(539,0,o),
(690,135,o),
(690,354,cs),
(690,570,o),
(539,700,o),
(313,700,cs),
(40,700,l),
(40,0,l)
);
},
{
closed = 1;
nodes = (
(260,610,l),
(168,535,l),
(313,535,ls),
(412,535,o),
(465,468,o),
(465,354,cs),
(465,235,o),
(412,165,o),
(313,165,cs),
(168,165,l),
(260,90,l)
);
}
);
width = 708;
}
);
unicode = 68;
},
{
glyphname = E;
kernLeft = H;
kernRight = E;
lastChange = "2026-01-23 20:50:18 +0000";
layers = (
{
anchors = (
{
name = bottom;
pos = (429,0);
},
{
name = ogonek;
pos = (801,0);
},
{
name = top;
pos = (414,700);
}
);
layerId = "5EDB8360-C867-4183-822A-D387B21AE085";
shapes = (
{
closed = 1;
nodes = (
(791,518,l),
(791,700,l),
(37,700,l),
(37,0,l),
(801,0,l),
(801,182,l),
(181,182,l),
(294,95,l),
(294,605,l),
(181,518,l)
);
},
{
closed = 1;
nodes = (
(642,268,l),
(642,435,l),
(255,435,l),
(255,268,l)
);
}
);
width = 818;
},
{
anchors = (
{
name = bottom;
pos = (428,0);
},
{
name = ogonek;
pos = (763,0);
},
{
name = top;
pos = (423,700);
}
);
layerId = "420CDBF3-1EA9-4A60-A2C9-262C353BE567";
shapes = (
{
closed = 1;
nodes = (
(753,618,l),
(753,700,l),
(92,700,l),
(92,0,l),
(763,0,l),
(763,82,l),
(144,82,l),
(182,35,l),
(182,665,l),
(144,618,l)
);
},
{
closed = 1;
nodes = (
(557,324,l),
(557,405,l),
(141,405,l),
(141,324,l)
);
}
);
width = 795;
},
{
anchors = (
{
name = bottom;
pos = (358,0);
},
{
name = ogonek;
pos = (589,0);
},
{
name = top;
pos = (337,700);
}
);
layerId = "49EC3AAF-00BE-4B7E-9333-53C2424A5618";
shapes = (
{
closed = 1;
nodes = (
(580,625,l),
(580,700,l),
(94,700,l),
(94,0,l),
(589,0,l),
(589,75,l),
(141,75,l),
(174,31,l),
(174,669,l),
(141,625,l)
);
},
{
closed = 1;
nodes = (
(454,328,l),
(454,403,l),
(134,403,l),
(134,328,l)
);
}
);
width = 626;
},
{
anchors = (
{
name = bottom;
pos = (331,0);
},
{
name = ogonek;
pos = (622,0);
},
{
name = top;
pos = (326,700);
}
);
layerId = "936587BF-088D-4F2D-A787-D302E778354F";
shapes = (
{
closed = 1;
nodes = (
(612,539,l),
(612,700,l),
(40,700,l),
(40,0,l),
(622,0,l),
(622,161,l),
(168,161,l),
(260,81,l),
(260,619,l),
(168,539,l)
);
},
{
closed = 1;
nodes = (
(488,274,l),
(488,432,l),
(234,432,l),
(234,274,l)
);
}
);
width = 638;
}
);
unicode = 69;
},
{
glyphname = Schwa;
kernRight = O;
lastChange = "2026-01-23 20:50:18 +0000";
layers = (
{
layerId = "5EDB8360-C867-4183-822A-D387B21AE085";
shapes = (
{
closed = 1;
nodes = (
(742,-10,o),
(929,134,o),
(929,351,cs),
(929,569,o),
(752,710,o),
(462,710,cs),
(293,710,o),
(149,662,o),
(65,575,c),
(233,444,l),
(285,502,o),
(376,524,o),
(455,524,cs),
(592,524,o),
(659,461,o),
(659,340,cs),
(659,218,o),
(592,164,o),
(454,164,cs),
(335,164,o),
(275,206,o),
(253,301,c),
(174,271,l),
(784,271,l),
(784,390,l),
(7,390,l),
(7,352,ls),
(7,126,o),
(193,-10,o),
(459,-10,cs)
);
}
);
width = 945;
},
{
layerId = "420CDBF3-1EA9-4A60-A2C9-262C353BE567";
shapes = (
{
closed = 1;
nodes = (
(681,-10,o),
(840,136,o),
(840,351,cs),
(840,566,o),
(682,710,o),
(428,710,cs),
(276,710,o),
(156,657,o),
(75,554,c),
(147,503,l),
(213,587,o),
(308,630,o),
(427,630,cs),
(627,630,o),
(750,518,o),
(750,351,cs),
(750,183,o),
(624,70,o),
(439,70,cs),
(267,70,o),
(131,171,o),
(131,333,c),
(113,297,l),
(775,297,l),
(775,372,l),
(44,372,l),
(44,342,ls),
(44,129,o),
(211,-10,o),
(440,-10,cs)
);
}
);
width = 891;
},
{
layerId = "49EC3AAF-00BE-4B7E-9333-53C2424A5618";
shapes = (
{
closed = 1;
nodes = (
(543,-10,o),
(661,130,o),
(661,353,cs),
(661,566,o),
(556,710,o),
(351,710,cs),
(224,710,o),
(118,650,o),
(69,555,c),
(136,514,l),
(176,591,o),
(254,635,o),
(351,635,cs),
(510,635,o),
(576,519,o),
(576,353,cs),
(576,166,o),
(498,65,o),
(351,65,cs),
(219,65,o),
(127,150,o),
(127,294,c),
(109,280,l),
(610,280,l),
(610,352,l),
(45,352,l),
(45,323,ls),
(45,121,o),
(168,-10,o),
(351,-10,cs)
);
}
);
width = 714;
},
{
layerId = "936587BF-088D-4F2D-A787-D302E778354F";
shapes = (
{
closed = 1;
nodes = (
(568,-10,o),
(705,134,o),
(705,350,cs),
(705,577,o),
(574,710,o),
(362,710,cs),
(205,710,o),
(104,646,o),
(52,539,c),
(237,468,l),
(261,525,o),
(305,545,o),
(356,545,cs),
(445,545,o),
(480,490,o),
(480,350,cs),
(480,209,o),
(445,154,o),
(355,154,cs),
(283,154,o),
(233,188,o),
(230,300,c),
(161,261,l),
(569,261,l),
(569,397,l),
(17,397,l),
(17,328,ls),
(17,123,o),
(151,-10,o),
(356,-10,cs)
);
}
);
width = 724;
}
);
unicode = 399;
},
{
glyphname = F;
kernLeft = H;
lastChange = "2026-01-23 20:50:18 +0000";
layers = (
{
layerId = "5EDB8360-C867-4183-822A-D387B21AE085";
shapes = (
{
closed = 1;
nodes = (
(294,0,l),
(294,605,l),
(180,518,l),
(787,518,l),
(787,700,l),
(37,700,l),
(37,0,l)
);
},
{
closed = 1;
nodes = (
(640,223,l),
(640,398,l),
(165,398,l),
(165,223,l)
);
}
);
width = 793;
},
{
layerId = "420CDBF3-1EA9-4A60-A2C9-262C353BE567";
shapes = (
{
closed = 1;
nodes = (
(182,0,l),
(182,665,l),
(144,618,l),
(755,618,l),
(755,700,l),
(92,700,l),
(92,0,l)
);
},
{
closed = 1;
nodes = (
(628,312,l),
(628,393,l),
(141,393,l),
(141,312,l)
);
}
);
width = 772;
},
{
layerId = "49EC3AAF-00BE-4B7E-9333-53C2424A5618";
shapes = (
{
closed = 1;
nodes = (
(174,0,l),
(174,669,l),
(141,625,l),
(570,625,l),
(570,700,l),
(94,700,l),
(94,0,l)
);
},
{
closed = 1;
nodes = (
(467,301,l),
(467,376,l),
(137,376,l),
(137,301,l)
);
}
);
width = 591;
},
{
layerId = "936587BF-088D-4F2D-A787-D302E778354F";
shapes = (
{
closed = 1;
nodes = (
(260,0,l),
(260,619,l),
(168,534,l),
(575,534,l),
(575,700,l),
(40,700,l),
(40,0,l)
);
},
{
closed = 1;
nodes = (
(513,246,l),
(513,401,l),
(154,401,l),
(154,246,l)
);
}
);
width = 583;
}
);
unicode = 70;
},
{
glyphname = G;
kernLeft = G;
kernRight = G;
lastChange = "2026-01-23 20:50:18 +0000";
layers = (
{
anchors = (
{
name = bottom;
pos = (471,0);
},
{
name = top;
pos = (499,700);
}
);
layerId = "5EDB8360-C867-4183-822A-D387B21AE085";
shapes = (
{
closed = 1;
nodes = (
(547,-10,o),
(674,68,o),
(705,209,c),
(707,209,l),
(707,0,l),
(920,0,l),
(920,399,l),
(466,399,l),
(466,258,l),
(816,258,l),
(709,319,l),
(730,225,o),
(620,174,o),
(495,174,cs),
(353,174,o),
(287,245,o),
(287,353,cs),
(287,461,o),
(369,524,o),
(502,524,cs),
(586,524,o),
(670,500,o),
(713,442,c),
(881,575,l),
(797,662,o),
(663,710,o),
(492,710,cs),
(203,710,o),
(17,569,o),
(17,349,cs),
(17,135,o),
(145,-10,o),
(379,-10,cs)
);
}
);
width = 943;
},
{
anchors = (
{
name = bottom;
pos = (458,0);
},
{
name = top;
pos = (478,700);
}
);
layerId = "420CDBF3-1EA9-4A60-A2C9-262C353BE567";
shapes = (
{
closed = 1;
nodes = (
(621,-10,o),
(736,93,o),
(760,223,c),
(762,223,l),
(762,0,l),
(847,0,l),
(847,367,l),
(386,367,l),
(386,290,l),
(793,290,l),
(756,314,l),
(758,177,o),
(640,72,o),
(454,72,cs),
(266,72,o),
(140,174,o),
(140,340,cs),
(140,508,o),
(272,630,o),
(479,630,cs),
(602,630,o),
(701,585,o),
(761,500,c),
(831,554,l),
(762,652,o),
(630,710,o),
(475,710,cs),
(216,710,o),
(50,553,o),
(50,337,cs),
(50,127,o),
(207,-10,o),
(431,-10,cs)
);
}
);
width = 909;
},
{
anchors = (
{
name = bottom;
pos = (358,0);
},
{
name = top;
pos = (376,700);
}
);
layerId = "49EC3AAF-00BE-4B7E-9333-53C2424A5618";
shapes = (
{
closed = 1;
nodes = (
(457,-10,o),
(539,47,o),
(570,139,c),
(575,139,l),
(575,0,l),
(652,0,l),
(652,364,l),
(349,364,l),
(349,292,l),
(605,292,l),
(571,323,l),
(577,145,o),
(486,65,o),
(359,65,cs),
(214,65,o),
(137,172,o),
(137,349,cs),
(137,522,o),
(221,635,o),
(389,635,cs),
(479,635,o),
(542,595,o),
(574,532,c),
(643,574,l),
(597,658,o),
(504,710,o),
(388,710,cs),
(176,710,o),
(52,562,o),
(52,349,cs),
(52,130,o),
(171,-10,o),
(349,-10,cs)
);
}
);
width = 716;
},
{
anchors = (
{
name = bottom;
pos = (357,0);
},
{
name = top;
pos = (378,700);
}
);
layerId = "936587BF-088D-4F2D-A787-D302E778354F";
shapes = (
{
closed = 1;
nodes = (
(392,-10,o),
(471,48,o),
(502,145,c),
(505,145,l),
(505,0,l),
(694,0,l),
(694,396,l),
(341,396,l),
(341,249,l),
(585,249,l),
(501,356,l),
(507,203,o),
(431,163,o),
(370,163,cs),
(289,163,o),
(245,213,o),
(245,349,cs),
(245,477,o),
(286,545,o),
(374,545,cs),
(428,545,o),
(469,523,o),
(493,456,c),
(673,539,l),
(621,646,o),
(520,710,o),
(373,710,cs),
(156,710,o),
(20,564,o),
(20,349,cs),
(20,108,o),
(127,-10,o),
(303,-10,cs)
);
}
);
width = 720;
}
);
unicode = 71;
},
{
glyphname = H;
kernLeft = H;
kernRight = H;
lastChange = "2026-01-23 20:50:18 +0000";
layers = (
{
anchors = (
{
name = bottom;
pos = (457,0);
},
{
name = center;
pos = (457,350);
},
{
name = top;
pos = (457,700);
},
{
name = topleft;
pos = (-6,700);
}
);
layerId = "5EDB8360-C867-4183-822A-D387B21AE085";
shapes = (
{
closed = 1;
nodes = (
(877,0,l),
(877,700,l),
(620,700,l),
(620,0,l)
);
},
{
closed = 1;
nodes = (
(294,0,l),
(294,700,l),
(37,700,l),
(37,0,l)
);
},
{
closed = 1;
nodes = (
(733,259,l),
(733,439,l),
(158,439,l),
(158,259,l)
);
}
);
width = 914;
},
{
anchors = (
{
name = bottom;
pos = (447,0);
},
{
name = center;
pos = (447,350);
},
{
name = top;
pos = (447,700);
},
{
name = topleft;
pos = (-1,700);
}
);
layerId = "420CDBF3-1EA9-4A60-A2C9-262C353BE567";
shapes = (
{
closed = 1;
nodes = (
(800,0,l),
(800,700,l),
(710,700,l),
(710,0,l)
);
},
{
closed = 1;
nodes = (
(182,0,l),
(182,700,l),
(92,700,l),
(92,0,l)
);
},
{
closed = 1;
nodes = (
(750,316,l),
(750,396,l),
(137,396,l),
(137,316,l)
);
}
);
width = 892;
},
{
anchors = (
{
name = bottom;
pos = (364,0);
},
{
name = center;
pos = (364,350);
},
{
name = top;
pos = (364,700);
},
{
name = topleft;
pos = (20,700);
}
);
layerId = "49EC3AAF-00BE-4B7E-9333-53C2424A5618";
shapes = (
{
closed = 1;
nodes = (
(633,0,l),
(633,700,l),
(553,700,l),
(553,0,l)
);
},
{
closed = 1;
nodes = (
(174,0,l),
(174,700,l),
(94,700,l),
(94,0,l)
);
},
{
closed = 1;
nodes = (
(588,319,l),
(588,394,l),
(134,394,l),
(134,319,l)
);
}
);
width = 727;
},
{
anchors = (
{
name = bottom;
pos = (375,0);
},
{
name = center;
pos = (375,350);
},
{
name = top;
pos = (375,700);
},
{
name = topleft;
pos = (22,700);
}
);
layerId = "936587BF-088D-4F2D-A787-D302E778354F";
shapes = (
{
closed = 1;
nodes = (
(709,0,l),
(709,700,l),
(489,700,l),
(489,0,l)
);
},
{
closed = 1;
nodes = (
(260,0,l),
(260,700,l),
(40,700,l),
(40,0,l)
);
},
{
closed = 1;
nodes = (
(582,269,l),
(582,434,l),
(148,434,l),
(148,269,l)
);
}
);
width = 749;
}
);
unicode = 72;
},
{
glyphname = Hbar;
kernLeft = H;
kernRight = H;
lastChange = "2026-01-23 20:50:18 +0000";
layers = (
{
layerId = "5EDB8360-C867-4183-822A-D387B21AE085";
shapes = (
{
closed = 1;
nodes = (
(1071,485,l),
(1071,590,l),
(13,590,l),
(13,485,l)
);
},
{
closed = 1;
nodes = (
(956,0,l),
(956,700,l),
(699,700,l),
(699,0,l)
);
},
{
closed = 1;
nodes = (
(373,0,l),
(373,700,l),
(116,700,l),
(116,0,l)
);
},
{
closed = 1;
nodes = (
(812,206,l),
(812,376,l),
(237,376,l),
(237,206,l)
);
}
);
width = 1084;
},
{
layerId = "420CDBF3-1EA9-4A60-A2C9-262C353BE567";
shapes = (
{
closed = 1;
nodes = (
(941,513,l),
(941,575,l),
(32,575,l),
(32,513,l)
);
},
{
closed = 1;
nodes = (
(840,0,l),
(840,700,l),
(750,700,l),
(750,0,l)
);
},
{
closed = 1;
nodes = (
(222,0,l),
(222,700,l),
(132,700,l),
(132,0,l)
);
},
{
closed = 1;
nodes = (
(790,286,l),
(790,366,l),
(177,366,l),
(177,286,l)
);
}
);
width = 973;
},
{
layerId = "49EC3AAF-00BE-4B7E-9333-53C2424A5618";
shapes = (
{
closed = 1;
nodes = (
(731,514,l),
(731,572,l),
(34,572,l),
(34,514,l)
);
},
{
closed = 1;
nodes = (
(652,0,l),
(652,700,l),
(572,700,l),
(572,0,l)
);
},
{
closed = 1;
nodes = (
(193,0,l),
(193,700,l),
(113,700,l),
(113,0,l)
);
},
{
closed = 1;
nodes = (
(607,299,l),
(607,374,l),
(153,374,l),
(153,299,l)
);
}
);
width = 765;
},
{
layerId = "936587BF-088D-4F2D-A787-D302E778354F";
shapes = (
{
closed = 1;
nodes = (
(801,486,l),
(801,600,l),
(11,600,l),
(11,486,l)
);
},
{
closed = 1;
nodes = (
(741,0,l),
(741,700,l),
(521,700,l),
(521,0,l)
);
},
{
closed = 1;
nodes = (
(292,0,l),
(292,700,l),
(72,700,l),
(72,0,l)
);
},
{
closed = 1;
nodes = (
(614,225,l),
(614,387,l),
(179,387,l),
(179,225,l)
);
}
);
width = 812;
}
);
unicode = 294;
},
{
glyphname = I;
kernLeft = H;
kernRight = H;
lastChange = "2026-01-23 20:50:18 +0000";
layers = (
{
anchors = (
{
name = bottom;
pos = (167,0);
},
{
name = ogonek;
pos = (294,0);
},
{
name = top;
pos = (167,700);
},
{
name = topleft;
pos = (26,700);
}
);
layerId = "5EDB8360-C867-4183-822A-D387B21AE085";
shapes = (
{
closed = 1;
nodes = (
(294,0,l),
(294,700,l),
(37,700,l),
(37,0,l)
);
}
);
width = 331;
},
{
anchors = (
{
name = bottom;
pos = (137,0);
},
{
name = ogonek;
pos = (182,0);
},
{
name = top;
pos = (137,700);
},
{
name = topleft;
pos = (22,700);
}
);
layerId = "420CDBF3-1EA9-4A60-A2C9-262C353BE567";
shapes = (
{
closed = 1;
nodes = (
(182,0,l),
(182,700,l),
(92,700,l),
(92,0,l)
);
}
);
width = 274;
},
{
anchors = (
{
name = bottom;
pos = (134,0);
},
{
name = ogonek;
pos = (174,0);
},
{
name = top;
pos = (134,700);
},
{
name = topleft;
pos = (20,700);
}
);
layerId = "49EC3AAF-00BE-4B7E-9333-53C2424A5618";
shapes = (
{
closed = 1;
nodes = (
(174,0,l),
(174,700,l),
(94,700,l),
(94,0,l)
);
}
);
width = 268;
},
{
anchors = (
{
name = bottom;
pos = (151,0);
},
{
name = ogonek;
pos = (260,0);
},
{
name = top;
pos = (151,700);
},
{
name = topleft;
pos = (18,700);
}
);
layerId = "936587BF-088D-4F2D-A787-D302E778354F";
shapes = (
{
closed = 1;
nodes = (
(260,0,l),
(260,700,l),
(40,700,l),
(40,0,l)
);
}
);
width = 300;
}
);
unicode = 73;
},
{
glyphname = J;
kernLeft = J;
kernRight = J;
lastChange = "2026-01-23 20:50:18 +0000";
layers = (
{
anchors = (
{
name = top;
pos = (641,700);
}
);
layerId = "5EDB8360-C867-4183-822A-D387B21AE085";
shapes = (
{
closed = 1;
nodes = (
(613,-10,o),
(778,92,o),
(778,306,cs),
(778,700,l),
(521,700,l),
(521,303,ls),
(521,219,o),
(481,180,o),
(390,180,cs),
(314,180,o),
(262,223,o),
(262,304,cs),
(262,431,l),
(5,391,l),
(5,304,ls),
(5,117,o),
(135,-10,o),
(389,-10,cs)
);
}
);
width = 808;
},
{
anchors = (
{
name = top;
pos = (613,700);
}
);
layerId = "420CDBF3-1EA9-4A60-A2C9-262C353BE567";
shapes = (
{
closed = 1;
nodes = (
(540,-10,o),
(658,94,o),
(658,259,cs),
(658,700,l),
(568,700,l),
(568,258,ls),
(568,146,o),
(486,70,o),
(348,70,cs),
(213,70,o),
(127,145,o),
(127,258,cs),
(127,386,l),
(37,366,l),
(37,258,ls),
(37,93,o),
(155,-10,o),
(348,-10,cs)
);
}
);
width = 743;
},
{
anchors = (
{
name = top;
pos = (470,700);
}
);
layerId = "49EC3AAF-00BE-4B7E-9333-53C2424A5618";
shapes = (
{
closed = 1;
nodes = (
(423,-10,o),
(510,74,o),
(510,214,cs),
(510,700,l),
(430,700,l),
(430,213,ls),
(430,120,o),
(371,65,o),
(273,65,cs),
(174,65,o),
(115,120,o),
(115,212,cs),
(115,324,l),
(35,304,l),
(35,212,ls),
(35,73,o),
(125,-10,o),
(273,-10,cs)
);
}
);
width = 598;
},
{
anchors = (
{
name = top;
pos = (483,700);
}
);
layerId = "936587BF-088D-4F2D-A787-D302E778354F";
shapes = (
{
closed = 1;
nodes = (
(463,-10,o),
(592,74,o),
(592,246,cs),
(592,700,l),
(372,700,l),
(372,244,ls),
(372,176,o),
(349,156,o),
(298,156,cs),
(247,156,o),
(224,177,o),
(224,246,cs),
(224,348,l),
(4,318,l),
(4,246,ls),
(4,92,o),
(101,-10,o),
(295,-10,cs)
);
}
);
width = 627;
}
);
unicode = 74;
},
{
glyphname = K;
kernLeft = H;
kernRight = K;
lastChange = "2026-01-23 20:50:18 +0000";
layers = (
{
anchors = (
{
name = bottom;
pos = (444,0);
},
{
name = top;
pos = (471,700);
}
);
layerId = "5EDB8360-C867-4183-822A-D387B21AE085";
shapes = (
{
closed = 1;
nodes = (
(903,700,l),
(587,700,l),
(244,415,l),
(244,160,l)
);
},
{
closed = 1;
nodes = (
(294,0,l),
(294,313,l),
(294,316,l),
(294,700,l),
(37,700,l),
(37,0,l)
);
},
{
closed = 1;
nodes = (
(918,0,l),
(532,518,l),
(366,337,l),
(590,0,l)
);
}
);
width = 893;
},
{
anchors = (
{
name = bottom;
pos = (414,0);
},
{
name = top;
pos = (433,700);
}
);
layerId = "420CDBF3-1EA9-4A60-A2C9-262C353BE567";
shapes = (
{
closed = 1;
nodes = (
(787,700,l),
(657,700,l),
(152,320,l),
(152,219,l)
);
},
{
closed = 1;
nodes = (
(182,0,l),
(182,287,l),
(182,287,l),
(182,700,l),
(92,700,l),
(92,0,l)
);
},
{
closed = 1;
nodes = (
(813,0,l),
(420,435,l),
(353,372,l),
(689,0,l)
);
}
);
width = 805;
},
{
anchors = (
{
name = bottom;
pos = (333,0);
},
{
name = top;
pos = (355,700);
}
);
layerId = "49EC3AAF-00BE-4B7E-9333-53C2424A5618";
shapes = (
{
closed = 1;
nodes = (
(634,700,l),
(539,700,l),
(156,319,l),
(156,229,l)
);
},
{
closed = 1;
nodes = (
(174,0,l),
(174,309,l),
(174,308,l),
(174,700,l),
(94,700,l),
(94,0,l)
);
},
{
closed = 1;
nodes = (
(665,0,l),
(349,450,l),
(294,394,l),
(563,0,l)
);
}
);
width = 664;
},
{
anchors = (
{
name = bottom;
pos = (360,0);
},
{
name = top;
pos = (383,700);
}
);
layerId = "936587BF-088D-4F2D-A787-D302E778354F";
shapes = (
{
closed = 1;
nodes = (
(721,700,l),
(481,700,l),
(211,414,l),
(211,164,l)
);
},
{
closed = 1;
nodes = (
(260,0,l),
(260,299,l),
(260,302,l),
(260,700,l),
(40,700,l),
(40,0,l)
);
},
{
closed = 1;
nodes = (
(728,0,l),
(444,517,l),
(297,363,l),
(467,0,l)
);
}
);
width = 710;
}
);
unicode = 75;
},
{
glyphname = L;
kernLeft = H;
kernRight = L;
lastChange = "2026-01-23 20:50:18 +0000";
layers = (
{
anchors = (
{
name = bottom;
pos = (394,0);
},
{
name = center;
pos = (236,350);
},
{
name = top;
pos = (166,700);
},
{
name = topright;
pos = (367,700);
}
);
layerId = "5EDB8360-C867-4183-822A-D387B21AE085";
shapes = (
{
closed = 1;
nodes = (
(750,0,l),
(750,180,l),
(182,180,l),
(294,103,l),
(294,700,l),
(37,700,l),
(37,0,l)
);
}
);
width = 755;
},
{
anchors = (
{
name = bottom;
pos = (403,0);
},
{
name = center;
pos = (203,350);
},
{
name = top;
pos = (136,700);
},
{
name = topright;
pos = (383,700);
}
);
layerId = "420CDBF3-1EA9-4A60-A2C9-262C353BE567";
shapes = (
{
closed = 1;
nodes = (
(713,0,l),
(713,80,l),
(145,80,l),
(182,38,l),
(182,700,l),
(92,700,l),
(92,0,l)
);
}
);
width = 728;
},
{
anchors = (
{
name = bottom;
pos = (312,0);
},
{
name = center;
pos = (167,350);
},
{
name = top;
pos = (132,700);
},
{
name = topright;
pos = (307,700);
}
);
layerId = "49EC3AAF-00BE-4B7E-9333-53C2424A5618";
shapes = (
{
closed = 1;
nodes = (
(530,0,l),
(530,75,l),
(141,75,l),
(174,34,l),
(174,700,l),
(94,700,l),
(94,0,l)
);
}
);
width = 547;
},
{
anchors = (
{
name = bottom;
pos = (307,0);
},
{
name = center;
pos = (168,350);
},
{
name = top;
pos = (149,700);
},
{
name = topright;
pos = (306,700);
}
);
layerId = "936587BF-088D-4F2D-A787-D302E778354F";
shapes = (
{
closed = 1;
nodes = (
(571,0,l),
(571,166,l),
(168,166,l),
(258,89,l),
(258,700,l),
(40,700,l),
(40,0,l)
);
}
);
width = 576;
}
);
unicode = 76;
},
{
glyphname = M;
kernLeft = H;
kernRight = H;
lastChange = "2026-01-23 20:50:18 +0000";
layers = (
{
layerId = "5EDB8360-C867-4183-822A-D387B21AE085";
shapes = (
{
closed = 1;
nodes = (
(814,484,l),
(819,484,l),
(819,0,l),
(1076,0,l),
(1076,700,l),
(704,700,l),
(518,348,l),
(609,348,l),
(425,700,l),
(37,700,l),
(37,0,l),
(267,0,l),
(267,484,l),
(271,484,l),
(540,-30,l)
);
}
);
width = 1113;
},
{
layerId = "420CDBF3-1EA9-4A60-A2C9-262C353BE567";
shapes = (
{
closed = 1;
nodes = (
(860,596,l),
(864,596,l),
(864,0,l),
(954,0,l),
(954,700,l),
(830,700,l),
(511,138,l),
(536,138,l),
(218,700,l),
(92,700,l),
(92,0,l),
(178,0,l),
(178,597,l),
(182,597,l),
(520,-10,l)
);
}
);
width = 1046;
},
{
layerId = "49EC3AAF-00BE-4B7E-9333-53C2424A5618";
shapes = (
{
closed = 1;
nodes = (
(687,608,l),
(691,608,l),
(691,0,l),
(771,0,l),
(771,700,l),
(649,700,l),
(417,136,l),
(448,136,l),
(216,700,l),
(94,700,l),
(94,0,l),
(170,0,l),
(170,608,l),
(174,608,l),
(430,-10,l)
);
}
);
width = 865;
},
{
layerId = "936587BF-088D-4F2D-A787-D302E778354F";
shapes = (
{
closed = 1;
nodes = (
(629,488,l),
(633,488,l),
(633,0,l),
(853,0,l),
(853,700,l),
(543,700,l),
(430,426,l),
(467,426,l),
(355,700,l),
(40,700,l),
(40,0,l),
(230,0,l),
(230,487,l),
(234,487,l),
(430,-5,l)
);
}
);
width = 893;
}
);
unicode = 77;
},
{
glyphname = N;
kernLeft = H;
kernRight = H;
lastChange = "2026-01-23 20:50:18 +0000";
layers = (
{
anchors = (
{
name = bottom;
pos = (435,0);
},
{
name = top;
pos = (446,700);
}
);
layerId = "5EDB8360-C867-4183-822A-D387B21AE085";
shapes = (
{
closed = 1;
nodes = (
(267,0,l),
(267,431,l),
(273,431,l),
(666,0,l),
(870,0,l),
(870,700,l),
(640,700,l),
(640,354,l),
(635,354,l),
(338,700,l),
(37,700,l),
(37,0,l)
);
}
);
width = 907;
},
{
anchors = (
{
name = bottom;
pos = (440,0);
},
{
name = top;
pos = (454,700);
}
);
layerId = "420CDBF3-1EA9-4A60-A2C9-262C353BE567";
shapes = (
{
closed = 1;
nodes = (
(178,0,l),
(178,614,l),
(182,614,l),
(734,0,l),
(805,0,l),
(805,700,l),
(719,700,l),
(719,151,l),
(715,151,l),
(220,700,l),
(92,700,l),
(92,0,l)
);
}
);
width = 897;
},
{
anchors = (
{
name = bottom;
pos = (355,0);
},
{
name = top;
pos = (367,700);
}
);
layerId = "49EC3AAF-00BE-4B7E-9333-53C2424A5618";
shapes = (
{
closed = 1;
nodes = (
(170,0,l),
(170,622,l),
(173,622,l),
(586,0,l),
(638,0,l),
(638,700,l),
(562,700,l),
(562,181,l),
(558,181,l),
(214,700,l),
(94,700,l),
(94,0,l)
);
}
);
width = 732;
},
{
anchors = (
{
name = bottom;
pos = (368,0);
},
{
name = top;
pos = (377,700);
}
);
layerId = "936587BF-088D-4F2D-A787-D302E778354F";
shapes = (
{
closed = 1;
nodes = (
(230,0,l),
(230,466,l),
(233,466,l),
(513,0,l),
(704,0,l),
(704,700,l),
(514,700,l),
(514,358,l),
(511,358,l),
(305,700,l),
(40,700,l),
(40,0,l)
);
}
);
width = 744;
}
);
unicode = 78;
},
{
glyphname = Eng;
kernLeft = H;
kernRight = H;
lastChange = "2026-01-23 20:50:18 +0000";
layers = (
{
layerId = "5EDB8360-C867-4183-822A-D387B21AE085";
shapes = (
{
closed = 1;
nodes = (
(270,435,l),
(703,-41,l),
(736,-41,l),
(736,353,l),
(636,353,l),
(338,700,l),
(37,700,l),
(37,0,l),
(267,0,l),
(267,435,l)
);
},
{
closed = 1;
nodes = (
(703,-200,ls),
(814,-200,o),
(870,-140,o),
(870,-22,cs),
(870,700,l),
(640,700,l),
(640,-50,l),
(514,-50,l),
(514,-200,l)
);
}
);
width = 907;
},
{
layerId = "420CDBF3-1EA9-4A60-A2C9-262C353BE567";
shapes = (
{
closed = 1;
nodes = (
(182,614,l),
(772,-42,l),
(789,-42,l),
(789,149,l),
(716,149,l),
(220,700,l),
(92,700,l),
(92,0,l),
(178,0,l),
(178,614,l)
);
},
{
closed = 1;
nodes = (
(683,-200,ls),
(769,-200,o),
(805,-153,o),
(805,-87,cs),
(805,700,l),
(719,700,l),
(719,-130,l),
(535,-130,l),
(535,-200,l)
);
}
);
width = 897;
},
{
background = {
shapes = (
{
closed = 1;
nodes = (
(170,0,l),
(170,657,l),
(150,657,l),
(586,0,l),
(638,0,l),
(638,700,l),
(562,700,l),
(562,87,l),
(621,87,l),
(214,700,l),
(94,700,l),
(94,0,l)
);
}
);
};
layerId = "49EC3AAF-00BE-4B7E-9333-53C2424A5618";
shapes = (
{
closed = 1;
nodes = (
(173,570,l),
(585,-27,l),
(604,-27,l),
(604,153,l),
(559,153,l),
(178,700,l),
(94,700,l),
(94,0,l),
(170,0,l),
(170,570,l)
);
},
{
closed = 1;
nodes = (
(523,-200,ls),
(604,-200,o),
(638,-156,o),
(638,-94,cs),
(638,700,l),
(562,700,l),
(562,-135,l),
(428,-135,l),
(428,-200,l)
);
}
);
width = 732;
},
{
layerId = "936587BF-088D-4F2D-A787-D302E778354F";
shapes = (
{
closed = 1;
nodes = (
(233,465,l),
(553,-68,l),
(603,-68,l),
(603,359,l),
(511,359,l),
(305,700,l),
(40,700,l),
(40,0,l),
(230,0,l),
(230,465,l)
);
},
{
closed = 1;
nodes = (
(556,-200,ls),
(667,-200,o),
(704,-160,o),
(704,-43,cs),
(704,700,l),
(514,700,l),
(514,-65,l),
(396,-65,l),
(396,-200,l)
);
}
);
width = 744;
}
);
unicode = 330;
},
{
glyphname = O;
kernLeft = O;
kernRight = O;
lastChange = "2026-01-23 20:50:18 +0000";
layers = (
{
anchors = (
{
name = bottom;
pos = (483,0);
},
{
name = center;
pos = (485,350);
},
{
name = ogonek;
pos = (886,10);
},
{
name = tail.Q;
pos = (483,1);
},
{
name = top;
pos = (483,700);
},
{
name = topleft;
pos = (5,700);
},
{
name = topright;
pos = (675,653);
}
);
layerId = "5EDB8360-C867-4183-822A-D387B21AE085";
shapes = (
{
closed = 1;
nodes = (
(763,-10,o),
(950,134,o),
(950,349,cs),
(950,566,o),
(763,710,o),
(483,710,cs),
(203,710,o),
(16,566,o),
(16,349,cs),
(16,134,o),
(203,-10,o),
(483,-10,cs)
);
},
{
closed = 1;
nodes = (
(365,176,o),
(286,243,o),
(286,349,cs),
(286,456,o),
(365,524,o),
(483,524,cs),
(601,524,o),
(680,456,o),
(680,349,cs),
(680,243,o),
(601,176,o),
(483,176,cs)
);
}
);
width = 966;
},
{
anchors = (
{
name = bottom;
pos = (485,0);
},
{
name = center;
pos = (485,350);
},
{
name = ogonek;
pos = (882,10);
},
{
name = tail.Q;
pos = (485,1);
},
{
name = top;
pos = (485,700);
},
{
name = topleft;
pos = (13,700);
},
{
name = topright;
pos = (625,679);
}
);
layerId = "420CDBF3-1EA9-4A60-A2C9-262C353BE567";
shapes = (
{
closed = 1;
nodes = (
(745,-10,o),
(919,135,o),
(919,350,cs),
(919,565,o),
(745,710,o),
(485,710,cs),
(225,710,o),
(50,565,o),
(50,350,cs),
(50,135,o),
(225,-10,o),
(485,-10,cs)
);
},
{
closed = 1;
nodes = (
(278,70,o),
(140,183,o),
(140,350,cs),
(140,517,o),
(278,630,o),
(485,630,cs),
(691,630,o),
(829,517,o),
(829,350,cs),
(829,183,o),
(691,70,o),
(485,70,cs)
);
}
);
width = 969;
},
{
anchors = (
{
name = bottom;
pos = (373,0);
},
{
name = center;
pos = (373,350);
},
{
name = ogonek;
pos = (668,10);
},
{
name = tail.Q;
pos = (373,1);
},
{
name = top;
pos = (373,700);
},
{
name = topleft;
pos = (24,700);
},
{
name = topright;
pos = (485,680);
}
);
layerId = "49EC3AAF-00BE-4B7E-9333-53C2424A5618";
shapes = (
{
closed = 1;
nodes = (
(571,-10,o),
(694,138,o),
(694,350,cs),
(694,562,o),
(571,710,o),
(373,710,cs),
(174,710,o),
(52,561,o),
(52,350,cs),
(52,138,o),
(174,-10,o),
(373,-10,cs)
);
},
{
closed = 1;
nodes = (
(223,65,o),
(137,178,o),
(137,350,cs),
(137,521,o),
(223,635,o),
(373,635,cs),
(523,635,o),
(609,521,o),
(609,350,cs),
(609,178,o),
(523,65,o),
(373,65,cs)
);
}
);
width = 746;
},
{
anchors = (
{
name = bottom;
pos = (377,0);
},
{
name = center;
pos = (378,350);
},
{
name = ogonek;
pos = (681,10);
},
{
name = tail.Q;
pos = (377,1);
},
{
name = top;
pos = (377,700);
},
{
name = topleft;
pos = (18,700);
},
{
name = topright;
pos = (472,659);
}
);
layerId = "936587BF-088D-4F2D-A787-D302E778354F";
shapes = (
{
closed = 1;
nodes = (
(590,-10,o),
(734,133,o),
(734,349,cs),
(734,567,o),
(590,710,o),
(377,710,cs),
(162,710,o),
(18,567,o),
(18,349,cs),
(18,133,o),
(162,-10,o),
(377,-10,cs)
);
},
{
closed = 1;
nodes = (
(291,156,o),
(243,221,o),
(243,349,cs),
(243,479,o),
(291,544,o),
(377,544,cs),
(462,544,o),
(509,479,o),
(509,349,cs),
(509,221,o),
(462,156,o),
(377,156,cs)
);
}
);
width = 752;
}
);
unicode = 79;
},
{
glyphname = OE;
kernRight = E;
lastChange = "2026-01-23 20:50:18 +0000";
layers = (
{
background = {
shapes = (
{
closed = 1;
nodes = (
(1339,518,l),
(1339,700,l),
(585,700,l),
(585,0,l),
(1349,0,l),
(1349,182,l),
(729,182,l),
(842,95,l),
(842,605,l),
(729,518,l)
);
},
{
closed = 1;
nodes = (
(1190,268,l),
(1190,435,l),
(803,435,l),
(803,268,l)
);
}
);
};
layerId = "5EDB8360-C867-4183-822A-D387B21AE085";
shapes = (
{
closed = 1;
nodes = (
(1356,0,l),
(1356,182,l),
(455,182,ls),
(337,182,o),
(287,244,o),
(287,355,cs),
(287,460,o),
(337,518,o),
(455,518,cs),
(1346,518,l),
(1346,700,l),
(455,700,ls),
(183,700,o),
(17,573,o),
(17,355,cs),
(17,131,o),
(183,0,o),
(455,0,cs)
);
},
{
closed = 1;
nodes = (
(889,172,l),
(889,528,l),
(632,528,l),
(632,172,l)
);
},
{
closed = 1;
nodes = (
(1197,268,l),
(1197,435,l),
(813,435,l),
(813,268,l)
);
}
);
width = 1373;
},
{
layerId = "420CDBF3-1EA9-4A60-A2C9-262C353BE567";
shapes = (
{
closed = 1;
nodes = (
(1345,0,l),
(1345,82,l),
(477,82,ls),
(258,82,o),
(141,189,o),
(141,351,cs),
(141,512,o),
(258,618,o),
(477,618,cs),
(1335,618,l),
(1335,700,l),
(477,700,ls),
(203,700,o),
(51,561,o),
(51,351,cs),
(51,140,o),
(203,0,o),
(477,0,cs)
);
},
{
closed = 1;
nodes = (
(794,57,l),
(794,643,l),
(704,643,l),
(704,57,l)
);
},
{
closed = 1;
nodes = (
(1139,324,l),
(1139,405,l),
(772,405,l),
(772,324,l)
);
}
);
width = 1377;
},
{
layerId = "49EC3AAF-00BE-4B7E-9333-53C2424A5618";
shapes = (
{
closed = 1;
nodes = (
(950,0,l),
(950,75,l),
(398,75,ls),
(232,75,o),
(137,186,o),
(137,351,cs),
(137,515,o),
(232,625,o),
(398,625,cs),
(941,625,l),
(941,700,l),
(398,700,ls),
(183,700,o),
(52,560,o),
(52,351,cs),
(52,141,o),
(183,0,o),
(398,0,cs)
);
},
{
closed = 1;
nodes = (
(580,50,l),
(580,650,l),
(499,650,l),
(499,50,l)
);
},
{
closed = 1;
nodes = (
(815,328,l),
(815,403,l),
(561,403,l),
(561,328,l)
);
}
);
width = 987;
},
{
background = {
shapes = (
{
closed = 1;
nodes = (
(991,539,l),
(991,700,l),
(419,700,l),
(419,0,l),
(991,0,l),
(991,161,l),
(547,161,l),
(639,81,l),
(639,619,l),
(547,539,l)
);
},
{
closed = 1;
nodes = (
(867,274,l),
(867,432,l),
(613,432,l),
(613,274,l)
);
}
);
};
layerId = "936587BF-088D-4F2D-A787-D302E778354F";
shapes = (
{
closed = 1;
nodes = (
(982,0,l),
(982,161,l),
(388,161,ls),
(310,161,o),
(243,227,o),
(243,354,cs),
(243,476,o),
(310,539,o),
(388,539,cs),
(972,539,l),
(972,700,l),
(388,700,ls),
(173,700,o),
(18,570,o),
(18,354,cs),
(18,133,o),
(173,0,o),
(388,0,cs)
);
},
{
closed = 1;
nodes = (
(669,131,l),
(669,569,l),
(449,569,l),
(449,131,l)
);
},
{
closed = 1;
nodes = (
(848,274,l),
(848,432,l),
(606,432,l),
(606,274,l)
);
}
);
width = 999;
}
);
unicode = 338;
},
{
glyphname = P;
kernLeft = H;
lastChange = "2026-01-23 20:50:18 +0000";
layers = (
{
layerId = "5EDB8360-C867-4183-822A-D387B21AE085";
shapes = (
{
closed = 1;
nodes = (
(540,215,ls),
(720,215,o),
(828,310,o),
(828,461,cs),
(828,609,o),
(720,700,o),
(540,700,cs),
(37,700,l),
(37,0,l),
(294,0,l),
(294,595,l),
(187,525,l),
(483,525,ls),
(540,525,o),
(558,491,o),
(558,455,cs),
(558,414,o),
(540,378,o),
(483,378,cs),
(169,378,l),
(169,215,l)
);
}
);
width = 833;
},
{
layerId = "420CDBF3-1EA9-4A60-A2C9-262C353BE567";
shapes = (
{
closed = 1;
nodes = (
(502,288,ls),
(678,288,o),
(771,354,o),
(771,496,cs),
(771,635,o),
(678,700,o),
(502,700,cs),
(92,700,l),
(92,0,l),
(182,0,l),
(182,662,l),
(145,620,l),
(497,620,ls),
(622,620,o),
(681,583,o),
(681,496,cs),
(681,407,o),
(622,367,o),
(497,367,cs),
(141,367,l),
(141,288,l)
);
}
);
width = 801;
},
{
layerId = "49EC3AAF-00BE-4B7E-9333-53C2424A5618";
shapes = (
{
closed = 1;
nodes = (
(370,305,ls),
(518,305,o),
(607,373,o),
(607,504,cs),
(607,642,o),
(518,700,o),
(370,700,cs),
(94,700,l),
(94,0,l),
(174,0,l),
(174,666,l),
(141,625,l),
(366,625,ls),
(466,625,o),
(522,595,o),
(522,504,cs),
(522,420,o),
(466,380,o),
(366,380,cs),
(137,380,l),
(137,305,l)
);
}
);
width = 638;
},
{
layerId = "936587BF-088D-4F2D-A787-D302E778354F";
shapes = (
{
closed = 1;
nodes = (
(364,221,ls),
(540,221,o),
(648,319,o),
(648,462,cs),
(648,604,o),
(540,700,o),
(364,700,cs),
(40,700,l),
(40,0,l),
(260,0,l),
(260,610,l),
(168,536,l),
(344,536,ls),
(407,536,o),
(423,500,o),
(423,462,cs),
(423,421,o),
(407,385,o),
(344,385,cs),
(154,385,l),
(154,221,l)
);
}
);
width = 654;
}
);
unicode = 80;
},
{
glyphname = Thorn;
kernLeft = H;
lastChange = "2026-01-23 20:50:18 +0000";
layers = (
{
layerId = "5EDB8360-C867-4183-822A-D387B21AE085";
shapes = (
{
closed = 1;
nodes = (
(540,108,ls),
(720,108,o),
(828,203,o),
(828,354,cs),
(828,502,o),
(720,593,o),
(540,593,cs),
(169,593,l),
(169,425,l),
(483,425,ls),
(540,425,o),
(558,391,o),
(558,354,cs),
(558,312,o),
(540,276,o),
(483,276,cs),
(169,276,l),
(169,108,l)
);
},
{
closed = 1;
nodes = (
(294,0,l),
(294,700,l),
(37,700,l),
(37,0,l)
);
}
);
width = 846;
},
{
layerId = "420CDBF3-1EA9-4A60-A2C9-262C353BE567";
shapes = (
{
closed = 1;
nodes = (
(502,144,ls),
(678,144,o),
(771,210,o),
(771,352,cs),
(771,491,o),
(678,556,o),
(502,556,cs),
(141,556,l),
(141,476,l),
(497,476,ls),
(622,476,o),
(681,439,o),
(681,352,cs),
(681,263,o),
(622,223,o),
(497,223,cs),
(141,223,l),
(141,144,l)
);
},
{
closed = 1;
nodes = (
(182,0,l),
(182,700,l),
(92,700,l),
(92,0,l)
);
}
);
width = 811;
},
{
layerId = "49EC3AAF-00BE-4B7E-9333-53C2424A5618";
shapes = (
{
closed = 1;
nodes = (
(370,153,ls),
(518,153,o),
(607,221,o),
(607,352,cs),
(607,490,o),
(518,548,o),
(370,548,cs),
(137,548,l),
(137,473,l),
(366,473,ls),
(466,473,o),
(522,443,o),
(522,352,cs),
(522,268,o),
(466,228,o),
(366,228,cs),
(137,228,l),
(137,153,l)
);
},
{
closed = 1;
nodes = (
(174,0,l),
(174,700,l),
(94,700,l),
(94,0,l)
);
}
);
width = 648;
},
{
layerId = "936587BF-088D-4F2D-A787-D302E778354F";
shapes = (
{
closed = 1;
nodes = (
(364,111,ls),
(540,111,o),
(648,209,o),
(648,352,cs),
(648,494,o),
(540,590,o),
(364,590,cs),
(154,590,l),
(154,426,l),
(344,426,ls),
(407,426,o),
(423,390,o),
(423,352,cs),
(423,311,o),
(407,275,o),
(344,275,cs),
(154,275,l),
(154,111,l)
);
},
{
closed = 1;
nodes = (
(260,0,l),
(260,700,l),
(40,700,l),
(40,0,l)
);
}
);
width = 658;
}
);
unicode = 222;
},
{
glyphname = R;
kernLeft = H;
kernRight = R;
lastChange = "2026-01-23 20:50:18 +0000";
layers = (
{
anchors = (
{
name = bottom;
pos = (454,0);
},
{
name = top;
pos = (451,700);
}
);
layerId = "5EDB8360-C867-4183-822A-D387B21AE085";
shapes = (
{
closed = 1;
nodes = (
(294,0,l),
(294,639,l),
(181,526,l),
(518,526,ls),
(573,526,o),
(607,499,o),
(607,456,cs),
(607,405,o),
(573,374,o),
(518,374,cs),
(248,374,l),
(248,199,l),
(726,199,l),
(613,312,l),
(613,0,l),
(870,0,l),
(870,203,ls),
(870,298,o),
(819,359,o),
(694,359,cs),
(606,359,l),
(606,361,l),
(778,375,o),
(864,429,o),
(864,528,cs),
(864,633,o),
(767,700,o),
(585,700,cs),
(37,700,l),
(37,0,l)
);
}
);
width = 893;
},
{
anchors = (
{
name = bottom;
pos = (449,0);
},
{
name = top;
pos = (437,700);
}
);
layerId = "420CDBF3-1EA9-4A60-A2C9-262C353BE567";
shapes = (
{
closed = 1;
nodes = (
(182,0,l),
(182,658,l),
(144,620,l),
(541,620,ls),
(643,620,o),
(691,582,o),
(691,514,cs),
(691,441,o),
(634,384,o),
(531,384,cs),
(136,384,l),
(136,303,l),
(753,303,l),
(715,341,l),
(715,0,l),
(805,0,l),
(805,238,ls),
(805,323,o),
(759,368,o),
(675,368,cs),
(597,368,l),
(597,370,l),
(715,385,o),
(781,446,o),
(781,534,cs),
(781,635,o),
(692,700,o),
(536,700,cs),
(92,700,l),
(92,0,l)
);
}
);
width = 868;
},
{
anchors = (
{
name = bottom;
pos = (347,0);
},
{
name = top;
pos = (346,700);
}
);
layerId = "49EC3AAF-00BE-4B7E-9333-53C2424A5618";
shapes = (
{
closed = 1;
nodes = (
(174,0,l),
(174,659,l),
(140,625,l),
(368,625,ls),
(466,625,o),
(518,588,o),
(518,507,cs),
(518,424,o),
(466,383,o),
(368,383,cs),
(138,383,l),
(138,308,l),
(553,308,l),
(519,342,l),
(519,0,l),
(599,0,l),
(599,279,ls),
(599,340,o),
(566,372,o),
(506,372,cs),
(498,372,l),
(498,375,l),
(561,407,o),
(598,464,o),
(598,530,cs),
(598,643,o),
(511,700,o),
(373,700,cs),
(94,700,l),
(94,0,l)
);
}
);
width = 675;
},
{
anchors = (
{
name = bottom;
pos = (368,0);
},
{
name = top;
pos = (361,700);
}
);
layerId = "936587BF-088D-4F2D-A787-D302E778354F";
shapes = (
{
closed = 1;
nodes = (
(258,0,l),
(258,638,l),
(161,541,l),
(369,541,ls),
(426,541,o),
(458,526,o),
(458,475,cs),
(458,421,o),
(426,400,o),
(369,400,cs),
(212,400,l),
(212,243,l),
(574,243,l),
(477,340,l),
(477,0,l),
(695,0,l),
(695,232,ls),
(695,321,o),
(647,369,o),
(558,369,cs),
(528,369,l),
(528,373,l),
(623,394,o),
(682,451,o),
(682,535,cs),
(682,630,o),
(604,700,o),
(448,700,cs),
(40,700,l),
(40,0,l)
);
}
);
width = 722;
}
);
unicode = 82;
},
{
glyphname = S;
kernLeft = S;
kernRight = S;
lastChange = "2026-01-23 20:50:18 +0000";
layers = (
{
anchors = (
{
name = bottom;
pos = (439,0);
},
{
name = top;
pos = (436,700);
}
);
layerId = "5EDB8360-C867-4183-822A-D387B21AE085";
shapes = (
{
closed = 1;
nodes = (
(703,-10,o),
(846,76,o),
(846,227,cs),
(846,515,o),
(305,420,o),
(305,505,cs),
(305,527,o),
(338,539,o),
(413,539,cs),
(532,539,o),
(656,509,o),
(749,460,c),
(826,619,l),
(727,675,o),
(574,710,o),
(422,710,cs),
(180,710,o),
(42,626,o),
(42,477,cs),
(42,190,o),
(569,291,o),
(569,198,cs),
(569,173,o),
(532,161,o),
(456,161,cs),
(318,161,o),
(174,198,o),
(73,258,c),
(-3,101,l),
(103,34,o),
(278,-10,o),
(452,-10,cs)
);
}
);
width = 852;
},
{
anchors = (
{
name = bottom;
pos = (400,0);
},
{
name = top;
pos = (408,700);
}
);
layerId = "420CDBF3-1EA9-4A60-A2C9-262C353BE567";
shapes = (
{
closed = 1;
nodes = (
(641,-10,o),
(776,67,o),
(776,199,cs),
(776,498,o),
(151,324,o),
(151,518,cs),
(151,590,o),
(242,631,o),
(394,631,cs),
(532,631,o),
(611,595,o),
(669,516,c),
(746,561,l),
(673,659,o),
(554,710,o),
(391,710,cs),
(191,710,o),
(62,636,o),
(62,510,cs),
(62,234,o),
(687,402,o),
(687,191,cs),
(687,114,o),
(589,69,o),
(429,69,cs),
(268,69,o),
(169,117,o),
(108,208,c),
(30,162,l),
(106,51,o),
(244,-10,o),
(429,-10,cs)
);
}
);
width = 815;
},
{
anchors = (
{
name = bottom;
pos = (305,0);
},
{
name = top;
pos = (315,700);
}
);
layerId = "49EC3AAF-00BE-4B7E-9333-53C2424A5618";
shapes = (
{
closed = 1;
nodes = (
(486,-10,o),
(589,64,o),
(589,197,cs),
(589,475,o),
(141,317,o),
(141,518,cs),
(141,596,o),
(217,635,o),
(319,635,cs),
(406,635,o),
(466,604,o),
(489,540,c),
(564,565,l),
(531,660,o),
(445,710,o),
(319,710,cs),
(167,710,o),
(62,633,o),
(62,511,cs),
(62,235,o),
(509,392,o),
(509,187,cs),
(509,107,o),
(436,65,o),
(326,65,cs),
(212,65,o),
(140,109,o),
(116,191,c),
(39,165,l),
(72,55,o),
(176,-10,o),
(319,-10,cs)
);
}
);
width = 633;
},
{
anchors = (
{
name = bottom;
pos = (338,0);
},
{
name = top;
pos = (336,700);
}
);
layerId = "936587BF-088D-4F2D-A787-D302E778354F";
shapes = (
{
closed = 1;
nodes = (
(540,-10,o),
(659,74,o),
(659,226,cs),
(659,510,o),
(231,408,o),
(231,504,cs),
(231,540,o),
(261,560,o),
(326,560,cs),
(387,560,o),
(426,527,o),
(438,482,c),
(637,531,l),
(598,648,o),
(495,710,o),
(329,710,cs),
(133,710,o),
(15,619,o),
(15,467,cs),
(15,188,o),
(439,310,o),
(439,193,cs),
(439,159,o),
(408,139,o),
(341,139,cs),
(274,139,o),
(230,173,o),
(214,220,c),
(11,171,l),
(48,56,o),
(157,-10,o),
(338,-10,cs)
);
}
);
width = 667;
}
);
unicode = 83;
},
{
glyphname = Germandbls;
kernLeft = H;
lastChange = "2026-01-23 20:50:18 +0000";
layers = (
{
layerId = "5EDB8360-C867-4183-822A-D387B21AE085";
shapes = (
{
closed = 1;
nodes = (
(792,-10,o),
(918,64,o),
(918,200,cs),
(918,305,o),
(810,366,o),
(629,365,c),
(686,256,l),
(932,700,l),
(37,700,l),
(37,0,l),
(293,0,l),
(293,638,l),
(180,525,l),
(666,525,l),
(602,627,l),
(446,327,l),
(575,317,o),
(650,296,o),
(650,241,cs),
(650,193,o),
(611,170,o),
(544,170,cs),
(496,170,o),
(453,177,o),
(401,191,c),
(367,20,l),
(420,2,o),
(517,-10,o),
(580,-10,cs)
);
}
);
width = 928;
},
{
layerId = "420CDBF3-1EA9-4A60-A2C9-262C353BE567";
shapes = (
{
closed = 1;
nodes = (
(726,-10,o),
(824,69,o),
(824,201,cs),
(824,304,o),
(758,374,o),
(606,410,c),
(622,369,l),
(825,700,l),
(92,700,l),
(92,0,l),
(182,0,l),
(182,668,l),
(144,630,l),
(717,630,l),
(698,663,l),
(518,352,l),
(666,332,o),
(734,272,o),
(734,197,cs),
(734,119,o),
(664,70,o),
(560,70,cs),
(504,70,o),
(418,85,o),
(365,110,c),
(339,33,l),
(387,5,o),
(491,-10,o),
(561,-10,cs)
);
}
);
width = 878;
},
{
layerId = "49EC3AAF-00BE-4B7E-9333-53C2424A5618";
shapes = (
{
closed = 1;
nodes = (
(592,-10,o),
(674,71,o),
(674,196,cs),
(674,298,o),
(622,364,o),
(497,404,c),
(512,363,l),
(668,700,l),
(94,700,l),
(94,0,l),
(174,0,l),
(174,669,l),
(140,635,l),
(588,635,l),
(566,666,l),
(424,355,l),
(548,318,o),
(594,274,o),
(594,196,cs),
(594,124,o),
(552,65,o),
(459,65,cs),
(412,65,o),
(363,81,o),
(325,97,c),
(298,23,l),
(330,6,o),
(394,-10,o),
(456,-10,cs)
);
}
);
width = 727;
},
{
layerId = "936587BF-088D-4F2D-A787-D302E778354F";
shapes = (
{
closed = 1;
nodes = (
(620,-10,o),
(723,76,o),
(723,213,cs),
(723,324,o),
(654,391,o),
(522,415,c),
(604,308,l),
(733,700,l),
(40,700,l),
(40,0,l),
(260,0,l),
(260,644,l),
(163,547,l),
(549,547,l),
(484,638,l),
(391,323,l),
(462,299,o),
(498,267,o),
(498,220,cs),
(498,179,o),
(471,153,o),
(433,153,cs),
(413,153,o),
(387,160,o),
(362,170,c),
(318,14,l),
(356,-2,o),
(413,-10,o),
(460,-10,cs)
);
}
);
width = 746;
}
);
unicode = 7838;
},
{
glyphname = T;
kernLeft = T;
kernRight = T;
lastChange = "2026-01-23 20:50:18 +0000";
layers = (
{
anchors = (
{
name = bottom;
pos = (419,0);
},
{
name = center;
pos = (416,317);
},
{
name = top;
pos = (417,700);
}
);
layerId = "5EDB8360-C867-4183-822A-D387B21AE085";
shapes = (
{
closed = 1;
nodes = (
(543,0,l),
(543,607,l),
(295,607,l),
(295,0,l)
);
},
{
closed = 1;
nodes = (
(832,520,l),
(832,700,l),
(5,700,l),
(5,520,l)
);
}
);
width = 837;
},
{
anchors = (
{
name = bottom;
pos = (390,0);
},
{
name = center;
pos = (387,352);
},
{
name = top;
pos = (389,700);
}
);
layerId = "420CDBF3-1EA9-4A60-A2C9-262C353BE567";
shapes = (
{
closed = 1;
nodes = (
(434,0,l),
(434,668,l),
(344,668,l),
(344,0,l)
);
},
{
closed = 1;
nodes = (
(761,620,l),
(761,700,l),
(15,700,l),
(15,620,l)
);
}
);
width = 776;
},
{
anchors = (
{
name = bottom;
pos = (288,0);
},
{
name = center;
pos = (286,354);
},
{
name = top;
pos = (288,700);
}
);
layerId = "49EC3AAF-00BE-4B7E-9333-53C2424A5618";
shapes = (
{
closed = 1;
nodes = (
(328,0,l),
(328,672,l),
(248,672,l),
(248,0,l)
);
},
{
closed = 1;
nodes = (
(558,625,l),
(558,700,l),
(17,700,l),
(17,625,l)
);
}
);
width = 575;
},
{
anchors = (
{
name = bottom;
pos = (319,0);
},
{
name = center;
pos = (318,324);
},
{
name = top;
pos = (318,700);
}
);
layerId = "936587BF-088D-4F2D-A787-D302E778354F";
shapes = (
{
closed = 1;
nodes = (
(429,0,l),
(429,621,l),
(209,621,l),
(209,0,l)
);
},
{
closed = 1;
nodes = (
(632,535,l),
(632,700,l),
(5,700,l),
(5,535,l)
);
}
);
width = 637;
}
);
unicode = 84;
},
{
glyphname = U;
kernLeft = U;
kernRight = U;
lastChange = "2026-01-23 20:50:18 +0000";
layers = (
{
anchors = (
{
name = bottom;
pos = (460,0);
},
{
name = ogonek;
pos = (604,10);
},
{
name = top;
pos = (460,700);
},
{
name = topright;
pos = (639,700);
}
);
layerId = "5EDB8360-C867-4183-822A-D387B21AE085";
shapes = (
{
closed = 1;
nodes = (
(706,-9,o),
(876,107,o),
(876,330,cs),
(876,700,l),
(639,700,l),
(639,349,ls),
(639,231,o),
(573,177,o),
(460,177,cs),
(351,177,o),
(286,231,o),
(286,349,cs),
(286,700,l),
(29,700,l),
(29,330,ls),
(29,107,o),
(196,-9,o),
(450,-9,cs)
);
}
);
width = 905;
},
{
anchors = (
{
name = bottom;
pos = (436,0);
},
{
name = ogonek;
pos = (563,10);
},
{
name = top;
pos = (436,700);
},
{
name = topright;
pos = (700,700);
}
);
layerId = "420CDBF3-1EA9-4A60-A2C9-262C353BE567";
shapes = (
{
closed = 1;
nodes = (
(641,-10,o),
(790,107,o),
(790,326,cs),
(790,700,l),
(700,700,l),
(700,329,ls),
(700,158,o),
(588,73,o),
(436,73,cs),
(284,73,o),
(172,158,o),
(172,329,cs),
(172,700,l),
(82,700,l),
(82,326,ls),
(82,107,o),
(231,-10,o),
(436,-10,cs)
);
}
);
width = 872;
},
{
anchors = (
{
name = bottom;
pos = (356,0);
},
{
name = ogonek;
pos = (458,10);
},
{
name = top;
pos = (356,700);
},
{
name = topright;
pos = (545,700);
}
);
layerId = "49EC3AAF-00BE-4B7E-9333-53C2424A5618";
shapes = (
{
closed = 1;
nodes = (
(517,-10,o),
(625,89,o),
(625,257,cs),
(625,700,l),
(545,700,l),
(545,258,ls),
(545,134,o),
(469,65,o),
(356,65,cs),
(243,65,o),
(167,134,o),
(167,258,cs),
(167,700,l),
(87,700,l),
(87,257,ls),
(87,89,o),
(195,-10,o),
(356,-10,cs)
);
}
);
width = 712;
},
{
anchors = (
{
name = bottom;
pos = (351,0);
},
{
name = ogonek;
pos = (467,10);
},
{
name = top;
pos = (351,700);
},
{
name = topright;
pos = (450,700);
}
);
layerId = "936587BF-088D-4F2D-A787-D302E778354F";
shapes = (
{
closed = 1;
nodes = (
(532,-9,o),
(650,83,o),
(650,274,cs),
(650,700,l),
(450,700,l),
(450,277,ls),
(450,210,o),
(414,174,o),
(351,174,cs),
(290,174,o),
(255,210,o),
(255,277,cs),
(255,700,l),
(35,700,l),
(35,274,ls),
(35,83,o),
(151,-9,o),
(341,-9,cs)
);
}
);
width = 685;
}
);
unicode = 85;
},
{
glyphname = V;
lastChange = "2026-01-23 20:44:01 +0000";
layers = (
{
layerId = "5EDB8360-C867-4183-822A-D387B21AE085";
shapes = (
{
closed = 1;
nodes = (
(555,0,l),
(895,700,l),
(629,700,l),
(455,320,l),
(449,320,l),
(275,700,l),
(-10,700,l),
(331,0,l)
);
}
);
width = 885;
},
{
layerId = "420CDBF3-1EA9-4A60-A2C9-262C353BE567";
shapes = (
{
closed = 1;
nodes = (
(456,0,l),
(830,700,l),
(735,700,l),
(430,126,l),
(423,126,l),
(118,700,l),
(13,700,l),
(385,0,l)
);
}
);
width = 842;
},
{
layerId = "49EC3AAF-00BE-4B7E-9333-53C2424A5618";
shapes = (
{
closed = 1;
nodes = (
(353,0,l),
(619,700,l),
(536,700,l),
(321,131,l),
(317,131,l),
(101,700,l),
(18,700,l),
(283,0,l)
);
}
);
width = 637;
},
{
layerId = "936587BF-088D-4F2D-A787-D302E778354F";
shapes = (
{
closed = 1;
nodes = (
(465,0,l),
(733,700,l),
(526,700,l),
(376,273,l),
(371,273,l),
(220,700,l),
(-7,700,l),
(261,0,l)
);
}
);
width = 726;
}
);
unicode = 86;
},
{
glyphname = W;
kernLeft = W;
kernRight = W;
lastChange = "2026-01-23 20:50:18 +0000";
layers = (
{
anchors = (
{
name = bottom;
pos = (724,0);
},
{
name = top;
pos = (727,700);
}
);
layerId = "5EDB8360-C867-4183-822A-D387B21AE085";
shapes = (
{
closed = 1;
nodes = (
(528,0,l),
(706,421,l),
(711,421,l),
(893,0,l),
(1135,0,l),
(1427,700,l),
(1183,700,l),
(1025,323,l),
(1021,323,l),
(871,700,l),
(582,700,l),
(433,326,l),
(427,326,l),
(271,700,l),
(-8,700,l),
(284,0,l)
);
}
);
width = 1419;
},
{
anchors = (
{
name = bottom;
pos = (666,0);
},
{
name = top;
pos = (671,700);
}
);
layerId = "420CDBF3-1EA9-4A60-A2C9-262C353BE567";
shapes = (
{
closed = 1;
nodes = (
(381,0,l),
(667,608,l),
(669,608,l),
(957,0,l),
(1020,0,l),
(1315,700,l),
(1236,700,l),
(991,128,l),
(986,128,l),
(723,700,l),
(619,700,l),
(356,129,l),
(351,129,l),
(106,700,l),
(19,700,l),
(314,0,l)
);
}
);
width = 1334;
},
{
anchors = (
{
name = bottom;
pos = (492,0);
},
{
name = top;
pos = (492,700);
}
);
layerId = "49EC3AAF-00BE-4B7E-9333-53C2424A5618";
shapes = (
{
closed = 1;
nodes = (
(295,0,l),
(487,610,l),
(490,610,l),
(682,0,l),
(755,0,l),
(950,700,l),
(875,700,l),
(720,130,l),
(717,130,l),
(540,700,l),
(443,700,l),
(266,130,l),
(263,130,l),
(108,700,l),
(26,700,l),
(221,0,l)
);
}
);
width = 976;
},
{
anchors = (
{
name = bottom;
pos = (569,0);
},
{
name = top;
pos = (571,700);
}
);
layerId = "936587BF-088D-4F2D-A787-D302E778354F";
shapes = (
{
closed = 1;
nodes = (
(417,0,l),
(551,486,l),
(555,486,l),
(691,0,l),
(898,0,l),
(1120,700,l),
(920,700,l),
(808,336,l),
(804,336,l),
(696,700,l),
(443,700,l),
(335,336,l),
(332,336,l),
(219,700,l),
(-4,700,l),
(218,0,l)
);
}
);
width = 1116;
}
);
unicode = 87;
},
{
glyphname = X;
lastChange = "2026-01-23 20:44:01 +0000";
layers = (
{
layerId = "5EDB8360-C867-4183-822A-D387B21AE085";
shapes = (
{
closed = 1;
nodes = (
(283,0,l),
(504,293,l),
(373,293,l),
(595,0,l),
(907,0,l),
(612,358,l),
(885,700,l),
(578,700,l),
(374,416,l),
(510,416,l),
(307,700,l),
(-5,700,l),
(268,358,l),
(-24,0,l)
);
}
);
width = 883;
},
{
layerId = "420CDBF3-1EA9-4A60-A2C9-262C353BE567";
shapes = (
{
closed = 1;
nodes = (
(118,0,l),
(429,334,l),
(363,334,l),
(674,0,l),
(793,0,l),
(457,358,l),
(774,700,l),
(656,700,l),
(364,380,l),
(431,380,l),
(138,700,l),
(18,700,l),
(336,358,l),
(0,0,l)
);
}
);
width = 793;
},
{
layerId = "49EC3AAF-00BE-4B7E-9333-53C2424A5618";
shapes = (
{
closed = 1;
nodes = (
(109,0,l),
(320,337,l),
(281,337,l),
(493,0,l),
(589,0,l),
(355,358,l),
(575,700,l),
(481,700,l),
(282,378,l),
(322,378,l),
(124,700,l),
(27,700,l),
(248,358,l),
(14,0,l)
);
}
);
width = 603;
},
{
layerId = "936587BF-088D-4F2D-A787-D302E778354F";
shapes = (
{
closed = 1;
nodes = (
(239,0,l),
(392,290,l),
(307,290,l),
(461,0,l),
(722,0,l),
(504,357,l),
(703,700,l),
(449,700,l),
(308,418,l),
(397,418,l),
(259,700,l),
(-2,700,l),
(199,357,l),
(-17,0,l)
);
}
);
width = 703;
}
);
unicode = 88;
},
{
glyphname = Y;
kernLeft = Y;
kernRight = Y;
lastChange = "2026-01-23 20:50:18 +0000";
layers = (
{
anchors = (
{
name = bottom;
pos = (454,0);
},
{
name = top;
pos = (454,700);
},
{
name = topleft;
pos = (-4,700);
}
);
layerId = "5EDB8360-C867-4183-822A-D387B21AE085";
shapes = (
{
closed = 1;
nodes = (
(583,0,l),
(583,256,l),
(922,700,l),
(651,700,l),
(412,386,l),
(516,386,l),
(275,700,l),
(-15,700,l),
(326,252,l),
(326,0,l)
);
}
);
width = 908;
},
{
anchors = (
{
name = bottom;
pos = (418,0);
},
{
name = top;
pos = (418,700);
},
{
name = topleft;
pos = (12,700);
}
);
layerId = "420CDBF3-1EA9-4A60-A2C9-262C353BE567";
shapes = (
{
closed = 1;
nodes = (
(463,0,l),
(463,294,l),
(823,700,l),
(718,700,l),
(399,348,l),
(437,348,l),
(117,700,l),
(13,700,l),
(373,293,l),
(373,0,l)
);
}
);
width = 836;
},
{
anchors = (
{
name = bottom;
pos = (313,0);
},
{
name = top;
pos = (312,700);
},
{
name = topleft;
pos = (15,700);
}
);
layerId = "49EC3AAF-00BE-4B7E-9333-53C2424A5618";
shapes = (
{
closed = 1;
nodes = (
(353,0,l),
(353,296,l),
(610,700,l),
(519,700,l),
(297,347,l),
(329,347,l),
(105,700,l),
(15,700,l),
(273,295,l),
(273,0,l)
);
}
);
width = 626;
},
{
anchors = (
{
name = bottom;
pos = (358,0);
},
{
name = top;
pos = (358,700);
},
{
name = topleft;
pos = (0,700);
}
);
layerId = "936587BF-088D-4F2D-A787-D302E778354F";
shapes = (
{
closed = 1;
nodes = (
(468,0,l),
(468,265,l),
(725,700,l),
(499,700,l),
(334,402,l),
(402,402,l),
(235,700,l),
(-10,700,l),
(248,261,l),
(248,0,l)
);
}
);
width = 715;
}
);
unicode = 89;
},
{
glyphname = Z;
kernLeft = Z;
kernRight = Z;
lastChange = "2026-01-23 20:50:18 +0000";
layers = (
{
anchors = (
{
name = bottom;
pos = (441,0);
},
{
name = top;
pos = (453,700);
}
);
layerId = "5EDB8360-C867-4183-822A-D387B21AE085";
shapes = (
{
closed = 1;
nodes = (
(432,573,l),
(-21,0,l),
(822,0,l),
(822,190,l),
(331,190,l),
(397,118,l),
(864,700,l),
(42,700,l),
(42,510,l),
(473,510,l)
);
}
);
width = 848;
},
{
anchors = (
{
name = bottom;
pos = (402,0);
},
{
name = top;
pos = (415,700);
}
);
layerId = "420CDBF3-1EA9-4A60-A2C9-262C353BE567";
shapes = (
{
closed = 1;
nodes = (
(625,655,l),
(7,0,l),
(749,0,l),
(749,80,l),
(147,80,l),
(167,47,l),
(783,700,l),
(47,700,l),
(47,620,l),
(646,620,l)
);
}
);
width = 793;
},
{
anchors = (
{
name = bottom;
pos = (304,0);
},
{
name = top;
pos = (303,700);
}
);
layerId = "49EC3AAF-00BE-4B7E-9333-53C2424A5618";
shapes = (
{
closed = 1;
nodes = (
(451,658,l),
(27,0,l),
(564,0,l),
(564,71,l),
(120,71,l),
(144,42,l),
(569,700,l),
(37,700,l),
(37,629,l),
(475,629,l)
);
}
);
width = 599;
},
{
anchors = (
{
name = bottom;
pos = (324,0);
},
{
name = top;
pos = (333,700);
}
);
layerId = "936587BF-088D-4F2D-A787-D302E778354F";
shapes = (
{
closed = 1;
nodes = (
(329,584,l),
(-8,0,l),
(607,0,l),
(607,177,l),
(253,177,l),
(310,132,l),
(641,700,l),
(24,700,l),
(24,523,l),
(366,523,l)
);
}
);
width = 632;
}
);
unicode = 90;
},
{
glyphname = a;
kernLeft = a;
kernRight = a;
lastChange = "2026-02-20 20:16:54 +0000";
layers = (
{
anchors = (
{
name = bottom;
pos = (363,0);
},
{
name = ogonek;
pos = (793,0);
},
{
name = top;
pos = (374,525);
}
);
layerId = "5EDB8360-C867-4183-822A-D387B21AE085";
shapes = (
{
closed = 1;
nodes = (
(376,-10,o),
(454,46,o),
(466,166,c),
(482,166,l),
(469,182,l),
(469,169,ls),
(469,57,o),
(520,0,o),
(626,0,cs),
(793,0,l),
(793,150,l),
(604,150,l),
(717,37,l),
(717,291,ls),
(717,458,o),
(584,533,o),
(376,533,cs),
(163,533,o),
(44,450,o),
(31,348,c),
(266,348,l),
(279,371,o),
(298,393,o),
(374,393,cs),
(426,393,o),
(467,381,o),
(467,333,cs),
(467,220,ls),
(467,160,o),
(423,124,o),
(344,124,cs),
(295,124,o),
(270,138,o),
(270,169,cs),
(270,197,o),
(290,213,o),
(343,219,cs),
(482,235,l),
(482,331,l),
(244,310,ls),
(84,296,o),
(10,238,o),
(10,145,cs),
(10,49,o),
(90,-10,o),
(216,-10,cs)
);
}
);
width = 791;
},
{
anchors = (
{
name = bottom;
pos = (326,0);
},
{
name = ogonek;
pos = (706,0);
},
{
name = top;
pos = (336,511);
}
);
layerId = "420CDBF3-1EA9-4A60-A2C9-262C353BE567";
shapes = (
{
closed = 1;
nodes = (
(385,-10,o),
(484,51,o),
(514,164,c),
(537,164,l),
(516,187,l),
(516,113,ls),
(516,35,o),
(554,0,o),
(638,0,cs),
(706,0,l),
(706,70,l),
(563,70,l),
(601,32,l),
(601,318,ls),
(601,448,o),
(497,521,o),
(343,521,cs),
(193,521,o),
(92,456,o),
(70,352,c),
(154,352,l),
(174,415,o),
(238,448,o),
(342,448,cs),
(457,448,o),
(516,405,o),
(516,321,cs),
(516,236,ls),
(516,119,o),
(422,57,o),
(277,57,cs),
(184,57,o),
(136,84,o),
(136,136,cs),
(136,182,o),
(165,220,o),
(281,232,cs),
(532,259,l),
(532,322,l),
(276,297,ls),
(110,281,o),
(50,217,o),
(50,134,cs),
(50,46,o),
(126,-10,o),
(253,-10,cs)
);
}
);
width = 713;
},
{
anchors = (
{
name = bottom;
pos = (265,0);
},
{
name = ogonek;
pos = (546,0);
},
{
name = top;
pos = (264,510);
}
);
layerId = "49EC3AAF-00BE-4B7E-9333-53C2424A5618";
shapes = (
{
closed = 1;
nodes = (
(293,-10,o),
(353,29,o),
(384,95,c),
(422,95,l),
(388,129,l),
(388,91,ls),
(388,29,o),
(434,0,o),
(498,0,cs),
(546,0,l),
(546,65,l),
(427,65,l),
(461,31,l),
(461,347,ls),
(461,463,o),
(391,520,o),
(275,520,cs),
(164,520,o),
(82,463,o),
(67,364,c),
(141,364,l),
(160,428,o),
(196,453,o),
(270,453,cs),
(349,453,o),
(385,421,o),
(385,350,cs),
(385,196,ls),
(385,116,o),
(314,55,o),
(222,55,cs),
(157,55,o),
(129,87,o),
(129,133,cs),
(129,188,o),
(172,227,o),
(249,239,cs),
(399,263,l),
(399,321,l),
(249,299,ls),
(119,280,o),
(49,214,o),
(49,125,cs),
(49,35,o),
(127,-10,o),
(214,-10,cs)
);
}
);
width = 561;
},
{
anchors = (
{
name = bottom;
pos = (304,0);
},
{
name = ogonek;
pos = (621,0);
},
{
name = top;
pos = (291,521);
}
);
layerId = "936587BF-088D-4F2D-A787-D302E778354F";
shapes = (
{
closed = 1;
nodes = (
(266,-10,o),
(324,33,o),
(348,107,c),
(383,107,l),
(353,141,l),
(353,128,ls),
(353,23,o),
(423,0,o),
(489,0,cs),
(621,0,l),
(621,135,l),
(461,135,l),
(558,38,l),
(558,324,ls),
(558,461,o),
(454,530,o),
(294,530,cs),
(138,530,o),
(30,452,o),
(23,336,c),
(231,336,l),
(237,376,o),
(257,393,o),
(294,393,cs),
(327,393,o),
(343,378,o),
(343,343,cs),
(343,193,ls),
(343,156,o),
(311,132,o),
(271,132,cs),
(241,132,o),
(223,144,o),
(223,165,cs),
(223,185,o),
(240,204,o),
(278,208,cs),
(359,217,l),
(359,312,l),
(280,305,ls),
(102,289,o),
(16,233,o),
(16,121,cs),
(16,38,o),
(81,-10,o),
(185,-10,cs)
);
}
);
width = 625;
}
);
unicode = 97;
},
{
glyphname = ae;
kernLeft = a;
kernRight = e;
lastChange = "2026-01-23 20:50:18 +0000";
layers = (
{
anchors = (
{
name = top;
pos = (584,525);
}
);
layerId = "5EDB8360-C867-4183-822A-D387B21AE085";
shapes = (
{
closed = 1;
nodes = (
(468,-10,o),
(575,70,o),
(581,190,c),
(480,190,l),
(495,66,o),
(625,-10,o),
(814,-10,cs),
(975,-10,o),
(1095,43,o),
(1141,164,c),
(903,194,l),
(890,163,o),
(869,144,o),
(814,144,cs),
(743,144,o),
(711,175,o),
(711,263,cs),
(711,352,o),
(741,393,o),
(811,393,cs),
(869,393,o),
(904,361,o),
(894,297,c),
(929,324,l),
(640,324,l),
(640,227,l),
(1156,227,l),
(1175,410,o),
(1052,535,o),
(815,535,cs),
(694,535,o),
(595,500,o),
(533,423,c),
(634,423,l),
(577,507,o),
(493,533,o),
(372,533,cs),
(157,533,o),
(43,452,o),
(30,348,c),
(267,348,l),
(279,371,o),
(295,393,o),
(364,393,cs),
(410,393,o),
(449,381,o),
(449,333,cs),
(449,220,ls),
(449,160,o),
(410,124,o),
(338,124,cs),
(295,124,o),
(272,138,o),
(272,169,cs),
(272,195,o),
(287,212,o),
(355,217,cs),
(463,225,l),
(463,322,l),
(295,311,ls),
(83,297,o),
(10,237,o),
(10,148,cs),
(10,49,o),
(105,-10,o),
(268,-10,cs)
);
}
);
width = 1169;
},
{
anchors = (
{
name = top;
pos = (580,511);
}
);
layerId = "420CDBF3-1EA9-4A60-A2C9-262C353BE567";
shapes = (
{
closed = 1;
nodes = (
(410,-10,o),
(535,59,o),
(553,175,c),
(515,172,l),
(550,58,o),
(663,-10,o),
(824,-10,cs),
(974,-10,o),
(1062,45,o),
(1104,127,c),
(1032,157,l),
(1000,93,o),
(930,64,o),
(825,64,cs),
(674,64,o),
(594,126,o),
(594,255,cs),
(594,385,o),
(679,447,o),
(816,447,cs),
(953,447,o),
(1025,388,o),
(1030,280,c),
(1064,305,l),
(556,305,l),
(556,245,l),
(1117,245,l),
(1117,421,o),
(1011,521,o),
(815,521,cs),
(691,521,o),
(595,473,o),
(545,396,c),
(568,393,l),
(537,478,o),
(453,521,o),
(336,521,cs),
(189,521,o),
(90,456,o),
(69,352,c),
(155,352,l),
(174,415,o),
(235,448,o),
(335,448,cs),
(445,448,o),
(502,405,o),
(502,321,cs),
(502,236,ls),
(502,119,o),
(412,57,o),
(273,57,cs),
(184,57,o),
(138,80,o),
(138,132,cs),
(138,178,o),
(167,217,o),
(322,228,cs),
(518,242,l),
(518,305,l),
(314,292,ls),
(110,279,o),
(50,213,o),
(50,130,cs),
(50,42,o),
(140,-10,o),
(275,-10,cs)
);
}
);
width = 1160;
},
{
anchors = (
{
name = top;
pos = (430,510);
}
);
layerId = "49EC3AAF-00BE-4B7E-9333-53C2424A5618";
shapes = (
{
closed = 1;
nodes = (
(324,-10,o),
(399,48,o),
(426,148,c),
(399,148,l),
(428,51,o),
(498,-10,o),
(611,-10,cs),
(703,-10,o),
(771,35,o),
(803,108,c),
(742,137,l),
(716,83,o),
(669,58,o),
(613,58,cs),
(505,58,o),
(457,122,o),
(457,254,cs),
(457,388,o),
(509,452,o),
(600,452,cs),
(693,452,o),
(738,389,o),
(737,271,c),
(769,305,l),
(427,305,l),
(427,243,l),
(814,243,l),
(814,424,o),
(742,520,o),
(599,520,cs),
(520,520,o),
(453,479,o),
(419,416,c),
(436,416,l),
(414,487,o),
(357,520,o),
(268,520,cs),
(159,520,o),
(81,463,o),
(67,364,c),
(142,364,l),
(160,428,o),
(195,453,o),
(266,453,cs),
(341,453,o),
(376,421,o),
(376,350,cs),
(376,196,ls),
(376,107,o),
(318,55,o),
(220,55,cs),
(158,55,o),
(131,87,o),
(131,133,cs),
(131,188,o),
(174,222,o),
(288,232,cs),
(390,241,l),
(390,302,l),
(282,292,ls),
(120,277,o),
(50,215,o),
(50,125,cs),
(50,35,o),
(120,-10,o),
(223,-10,cs)
);
}
);
width = 859;
},
{
anchors = (
{
name = top;
pos = (450,521);
}
);
layerId = "936587BF-088D-4F2D-A787-D302E778354F";
shapes = (
{
closed = 1;
nodes = (
(348,-10,o),
(430,53,o),
(449,159,c),
(351,159,l),
(389,52,o),
(482,-10,o),
(608,-10,cs),
(743,-10,o),
(839,40,o),
(873,146,c),
(684,183,l),
(673,143,o),
(653,125,o),
(627,125,cs),
(569,125,o),
(550,165,o),
(550,267,cs),
(550,339,o),
(562,399,o),
(619,399,cs),
(666,399,o),
(687,342,o),
(674,286,c),
(713,316,l),
(496,316,l),
(496,208,l),
(882,208,l),
(900,395,o),
(812,531,o),
(624,531,cs),
(531,531,o),
(461,495,o),
(417,435,c),
(495,435,l),
(454,502,o),
(383,530,o),
(290,530,cs),
(136,530,o),
(29,452,o),
(23,336,c),
(232,336,l),
(237,376,o),
(253,393,o),
(287,393,cs),
(316,393,o),
(334,378,o),
(334,343,cs),
(334,193,ls),
(334,156,o),
(305,132,o),
(269,132,cs),
(242,132,o),
(225,144,o),
(225,165,cs),
(225,184,o),
(239,204,o),
(273,208,cs),
(350,217,l),
(350,312,l),
(274,305,ls),
(101,289,o),
(17,233,o),
(17,121,cs),
(17,38,o),
(90,-10,o),
(211,-10,cs)
);
}
);
width = 899;
}
);
unicode = 230;
},
{
glyphname = b;
kernLeft = h;
kernRight = b;
lastChange = "2026-02-20 20:25:16 +0000";
layers = (
{
layerId = "5EDB8360-C867-4183-822A-D387B21AE085";
shapes = (
{
closed = 1;
nodes = (
(279,0,l),
(279,160,l),
(283,160,l),
(322,43,o),
(396,-10,o),
(516,-10,cs),
(656,-10,o),
(762,87,o),
(762,261,cs),
(762,434,o),
(656,535,o),
(516,535,cs),
(398,535,o),
(323,477,o),
(284,359,c),
(280,359,l),
(280,700,l),
(29,700,l),
(29,0,l)
);
},
{
closed = 1;
nodes = (
(319,150,o),
(274,192,o),
(274,261,cs),
(274,332,o),
(319,374,o),
(387,374,cs),
(459,374,o),
(502,329,o),
(502,261,cs),
(502,191,o),
(459,150,o),
(387,150,cs)
);
}
);
width = 775;
},
{
layerId = "420CDBF3-1EA9-4A60-A2C9-262C353BE567";
shapes = (
{
closed = 1;
nodes = (
(166,0,l),
(166,156,l),
(169,156,l),
(203,56,o),
(308,-10,o),
(439,-10,cs),
(606,-10,o),
(723,96,o),
(723,255,cs),
(723,415,o),
(606,521,o),
(439,521,cs),
(308,521,o),
(204,455,o),
(169,355,c),
(166,355,l),
(166,700,l),
(81,700,l),
(81,0,l)
);
},
{
closed = 1;
nodes = (
(251,67,o),
(162,137,o),
(162,255,cs),
(162,374,o),
(251,444,o),
(402,444,cs),
(548,444,o),
(633,374,o),
(633,255,cs),
(633,137,o),
(548,67,o),
(402,67,cs)
);
}
);
width = 770;
},
{
layerId = "49EC3AAF-00BE-4B7E-9333-53C2424A5618";
shapes = (
{
closed = 1;
nodes = (
(160,0,l),
(160,102,l),
(166,102,l),
(197,28,o),
(253,-10,o),
(335,-10,cs),
(459,-10,o),
(544,96,o),
(544,255,cs),
(544,413,o),
(459,520,o),
(335,520,cs),
(253,520,o),
(195,481,o),
(165,404,c),
(160,404,l),
(160,700,l),
(85,700,l),
(85,0,l)
);
},
{
closed = 1;
nodes = (
(215,60,o),
(158,133,o),
(158,255,cs),
(158,377,o),
(215,450,o),
(314,450,cs),
(408,450,o),
(464,377,o),
(464,255,cs),
(464,133,o),
(408,60,o),
(314,60,cs)
);
}
);
width = 593;
},
{
layerId = "936587BF-088D-4F2D-A787-D302E778354F";
shapes = (
{
closed = 1;
nodes = (
(245,0,l),
(245,90,l),
(250,90,l),
(282,19,o),
(334,-9,o),
(399,-9,cs),
(523,-9,o),
(604,89,o),
(604,261,cs),
(604,431,o),
(523,531,o),
(399,531,cs),
(335,531,o),
(283,503,o),
(252,432,c),
(247,432,l),
(247,700,l),
(32,700,l),
(32,0,l)
);
},
{
closed = 1;
nodes = (
(265,132,o),
(242,172,o),
(242,260,cs),
(242,350,o),
(265,391,o),
(316,391,cs),
(366,391,o),
(389,350,o),
(389,260,cs),
(389,172,o),
(366,132,o),
(316,132,cs)
);
}
);
width = 620;
}
);
unicode = 98;
},
{
glyphname = c;
kernLeft = o;
kernRight = c;
lastChange = "2026-01-23 20:50:18 +0000";
layers = (
{
anchors = (
{
name = bottom;
pos = (383,0);
},
{
name = top;
pos = (383,525);
}
);
layerId = "5EDB8360-C867-4183-822A-D387B21AE085";
shapes = (
{
closed = 1;
nodes = (
(554,-10,o),
(681,51,o),
(729,159,c),
(490,209,l),
(474,171,o),
(438,150,o),
(389,150,cs),
(315,150,o),
(272,191,o),
(272,260,cs),
(272,332,o),
(315,374,o),
(389,374,cs),
(439,374,o),
(476,351,o),
(492,310,c),
(730,360,l),
(683,471,o),
(556,534,o),
(385,534,cs),
(170,534,o),
(12,432,o),
(12,260,cs),
(12,90,o),
(170,-10,o),
(385,-10,cs)
);
}
);
width = 727;
},
{
anchors = (
{
name = bottom;
pos = (363,0);
},
{
name = top;
pos = (369,511);
}
);
layerId = "420CDBF3-1EA9-4A60-A2C9-262C353BE567";
shapes = (
{
closed = 1;
nodes = (
(511,-10,o),
(613,45,o),
(657,135,c),
(576,168,l),
(548,104,o),
(478,66,o),
(371,66,cs),
(223,66,o),
(136,139,o),
(136,254,cs),
(136,371,o),
(223,445,o),
(371,445,cs),
(473,445,o),
(541,410,o),
(571,350,c),
(653,384,l),
(607,469,o),
(507,521,o),
(371,521,cs),
(177,521,o),
(46,414,o),
(46,254,cs),
(46,96,o),
(177,-10,o),
(371,-10,cs)
);
}
);
width = 692;
},
{
anchors = (
{
name = bottom;
pos = (270,0);
},
{
name = top;
pos = (277,510);
}
);
layerId = "49EC3AAF-00BE-4B7E-9333-53C2424A5618";
shapes = (
{
closed = 1;
nodes = (
(377,-10,o),
(451,41,o),
(482,125,c),
(411,150,l),
(391,92,o),
(345,60,o),
(281,60,cs),
(185,60,o),
(128,132,o),
(128,254,cs),
(128,377,o),
(185,450,o),
(281,450,cs),
(341,450,o),
(386,421,o),
(407,369,c),
(479,393,l),
(446,472,o),
(373,520,o),
(281,520,cs),
(142,520,o),
(48,413,o),
(48,254,cs),
(48,96,o),
(142,-10,o),
(281,-10,cs)
);
}
);
width = 521;
},
{
anchors = (
{
name = bottom;
pos = (296,0);
},
{
name = top;
pos = (294,521);
}
);
layerId = "936587BF-088D-4F2D-A787-D302E778354F";
shapes = (
{
closed = 1;
nodes = (
(428,-10,o),
(528,50,o),
(566,153,c),
(380,209,l),
(368,155,o),
(347,131,o),
(308,131,cs),
(256,131,o),
(229,171,o),
(229,259,cs),
(229,349,o),
(256,390,o),
(308,390,cs),
(347,390,o),
(368,365,o),
(380,309,c),
(567,365,l),
(529,470,o),
(428,530,o),
(302,530,cs),
(139,530,o),
(14,428,o),
(14,259,cs),
(14,92,o),
(139,-10,o),
(302,-10,cs)
);
}
);
width = 568;
}
);
unicode = 99;
},
{
glyphname = eth;
lastChange = "2026-01-23 20:44:01 +0000";
layers = (
{
background = {
shapes = (
{
closed = 1;
nodes = (
(597,-10,o),
(755,90,o),
(755,260,cs),
(755,432,o),
(597,534,o),
(380,534,cs),
(165,534,o),
(7,432,o),
(7,260,cs),
(7,90,o),
(165,-10,o),
(380,-10,cs)
);
},
{
closed = 1;
nodes = (
(310,150,o),
(267,191,o),
(267,260,cs),
(267,332,o),
(310,374,o),
(382,374,cs),
(453,374,o),
(495,332,o),
(495,260,cs),
(495,191,o),
(453,150,o),
(382,150,cs)
);
}
);
};
layerId = "5EDB8360-C867-4183-822A-D387B21AE085";
shapes = (
{
closed = 1;
nodes = (
(621,-10,o),
(759,108,o),
(759,283,cs),
(759,518,o),
(538,663,o),
(258,710,c),
(33,608,l),
(279,554,o),
(406,522,o),
(501,428,c),
(498,424,l),
(456,447,o),
(390,461,o),
(329,461,cs),
(139,461,o),
(11,380,o),
(11,242,cs),
(11,94,o),
(169,-10,o),
(388,-10,cs)
);
},
{
closed = 1;
nodes = (
(314,150,o),
(271,186,o),
(271,245,cs),
(271,309,o),
(315,345,o),
(383,345,cs),
(454,345,o),
(499,314,o),
(499,249,cs),
(499,187,o),
(454,150,o),
(385,150,cs)
);
},
{
closed = 1;
nodes = (
(645,612,l),
(610,699,l),
(57,537,l),
(92,454,l)
);
}
);
width = 772;
},
{
background = {
shapes = (
{
closed = 1;
nodes = (
(566,-10,o),
(697,96,o),
(697,254,cs),
(697,414,o),
(566,521,o),
(371,521,cs),
(177,521,o),
(46,414,o),
(46,254,cs),
(46,96,o),
(177,-10,o),
(371,-10,cs)
);
},
{
closed = 1;
nodes = (
(223,66,o),
(136,139,o),
(136,254,cs),
(136,371,o),
(223,445,o),
(371,445,cs),
(520,445,o),
(607,371,o),
(607,254,cs),
(607,139,o),
(520,66,o),
(371,66,cs)
);
}
);
};
layerId = "420CDBF3-1EA9-4A60-A2C9-262C353BE567";
shapes = (
{
closed = 1;
nodes = (
(569,-10,o),
(697,91,o),
(697,264,cs),
(697,468,o),
(518,634,o),
(218,710,c),
(120,672,l),
(356,620,o),
(502,535,o),
(582,411,c),
(579,408,l),
(525,453,o),
(441,481,o),
(351,481,cs),
(162,481,o),
(46,387,o),
(46,240,cs),
(46,90,o),
(178,-10,o),
(376,-10,cs)
);
},
{
closed = 1;
nodes = (
(226,66,o),
(136,135,o),
(136,240,cs),
(136,342,o),
(224,410,o),
(370,410,cs),
(518,410,o),
(607,342,o),
(607,240,cs),
(607,135,o),
(521,66,o),
(374,66,cs)
);
},
{
closed = 1;
nodes = (
(610,624,l),
(587,684,l),
(142,556,l),
(166,498,l)
);
}
);
width = 745;
},
{
background = {
shapes = (
{
closed = 1;
nodes = (
(420,-10,o),
(514,96,o),
(514,254,cs),
(514,413,o),
(420,520,o),
(281,520,cs),
(142,520,o),
(48,413,o),
(48,254,cs),
(48,96,o),
(142,-10,o),
(281,-10,cs)
);
},
{
closed = 1;
nodes = (
(185,60,o),
(128,132,o),
(128,254,cs),
(128,377,o),
(185,450,o),
(281,450,cs),
(377,450,o),
(434,377,o),
(434,254,cs),
(434,132,o),
(377,60,o),
(281,60,cs)
);
}
);
};
layerId = "49EC3AAF-00BE-4B7E-9333-53C2424A5618";
shapes = (
{
closed = 1;
nodes = (
(427,-10,o),
(512,90,o),
(512,262,cs),
(512,463,o),
(388,632,o),
(183,710,c),
(99,676,l),
(265,621,o),
(383,529,o),
(432,384,c),
(429,381,l),
(391,433,o),
(333,463,o),
(267,463,cs),
(137,463,o),
(47,361,o),
(47,228,cs),
(47,85,o),
(142,-10,o),
(284,-10,cs)
);
},
{
closed = 1;
nodes = (
(185,60,o),
(124,126,o),
(124,230,cs),
(124,331,o),
(184,395,o),
(279,395,cs),
(376,395,o),
(437,331,o),
(437,230,cs),
(437,126,o),
(377,60,o),
(282,60,cs)
);
},
{
closed = 1;
nodes = (
(452,629,l),
(432,683,l),
(114,557,l),
(135,504,l)
);
}
);
width = 563;
},
{
background = {
shapes = (
{
closed = 1;
nodes = (
(466,-10,o),
(591,92,o),
(591,259,cs),
(591,428,o),
(466,530,o),
(302,530,cs),
(139,530,o),
(14,428,o),
(14,259,cs),
(14,92,o),
(139,-10,o),
(302,-10,cs)
);
},
{
closed = 1;
nodes = (
(252,131,o),
(229,171,o),
(229,259,cs),
(229,349,o),
(252,390,o),
(302,390,cs),
(353,390,o),
(376,349,o),
(376,259,cs),
(376,171,o),
(353,131,o),
(302,131,cs)
);
}
);
};
layerId = "936587BF-088D-4F2D-A787-D302E778354F";
shapes = (
{
closed = 1;
nodes = (
(485,-10,o),
(590,98,o),
(590,270,cs),
(590,502,o),
(414,658,o),
(212,710,c),
(18,622,l),
(206,569,o),
(296,531,o),
(359,450,c),
(353,444,l),
(325,458,o),
(291,465,o),
(250,465,cs),
(109,465,o),
(13,383,o),
(13,242,cs),
(13,95,o),
(137,-10,o),
(303,-10,cs)
);
},
{
closed = 1;
nodes = (
(255,125,o),
(228,168,o),
(228,238,cs),
(228,313,o),
(257,353,o),
(302,353,cs),
(350,353,o),
(378,310,o),
(378,241,cs),
(378,167,o),
(350,125,o),
(303,125,cs)
);
},
{
closed = 1;
nodes = (
(499,611,l),
(471,694,l),
(70,548,l),
(98,468,l)
);
}
);
width = 606;
}
);
unicode = 240;
},
{
glyphname = e;
kernLeft = o;
kernRight = e;
lastChange = "2026-01-23 20:50:18 +0000";
layers = (
{
anchors = (
{
name = bottom;
pos = (390,0);
},
{
name = ogonek;
pos = (668,0);
},
{
name = top;
pos = (377,525);
}
);
layerId = "5EDB8360-C867-4183-822A-D387B21AE085";
shapes = (
{
closed = 1;
nodes = (
(553,-10,o),
(677,42,o),
(725,164,c),
(489,194,l),
(474,163,o),
(448,144,o),
(391,144,cs),
(308,144,o),
(272,174,o),
(272,263,cs),
(272,352,o),
(306,393,o),
(387,393,cs),
(450,393,o),
(488,361,o),
(481,299,c),
(538,324,l),
(200,324,l),
(200,224,l),
(740,224,l),
(758,411,o),
(632,535,o),
(386,535,cs),
(162,535,o),
(12,425,o),
(12,261,cs),
(12,97,o),
(158,-10,o),
(388,-10,cs)
);
}
);
width = 753;
},
{
anchors = (
{
name = bottom;
pos = (372,0);
},
{
name = ogonek;
pos = (568,0);
},
{
name = top;
pos = (367,511);
}
);
layerId = "420CDBF3-1EA9-4A60-A2C9-262C353BE567";
shapes = (
{
closed = 1;
nodes = (
(531,-10,o),
(621,45,o),
(664,127,c),
(594,157,l),
(561,94,o),
(489,64,o),
(377,64,cs),
(220,64,o),
(137,126,o),
(137,255,cs),
(137,385,o),
(225,447,o),
(368,447,cs),
(517,447,o),
(593,383,o),
(592,261,c),
(628,302,l),
(98,302,l),
(98,238,l),
(677,238,l),
(677,421,o),
(567,521,o),
(367,521,cs),
(177,521,o),
(47,414,o),
(47,254,cs),
(47,92,o),
(174,-10,o),
(376,-10,cs)
);
}
);
width = 720;
},
{
anchors = (
{
name = bottom;
pos = (282,0);
},
{
name = ogonek;
pos = (423,0);
},
{
name = top;
pos = (277,510);
}
);
layerId = "49EC3AAF-00BE-4B7E-9333-53C2424A5618";
shapes = (
{
closed = 1;
nodes = (
(384,-10,o),
(453,35,o),
(486,108,c),
(426,137,l),
(399,83,o),
(350,58,o),
(291,58,cs),
(179,58,o),
(129,122,o),
(129,254,cs),
(129,388,o),
(183,452,o),
(278,452,cs),
(378,452,o),
(424,387,o),
(421,259,c),
(454,301,l),
(93,301,l),
(93,237,l),
(497,237,l),
(497,423,o),
(423,520,o),
(277,520,cs),
(141,520,o),
(49,413,o),
(49,254,cs),
(49,92,o),
(137,-10,o),
(290,-10,cs)
);
}
);
width = 542;
},
{
anchors = (
{
name = bottom;
pos = (297,0);
},
{
name = ogonek;
pos = (516,0);
},
{
name = top;
pos = (297,521);
}
);
layerId = "936587BF-088D-4F2D-A787-D302E778354F";
shapes = (
{
closed = 1;
nodes = (
(431,-10,o),
(528,40,o),
(563,146,c),
(375,183,l),
(363,143,o),
(341,125,o),
(312,125,cs),
(250,125,o),
(229,165,o),
(229,267,cs),
(229,338,o),
(243,399,o),
(304,399,cs),
(352,399,o),
(376,348,o),
(367,292,c),
(388,316,l),
(185,316,l),
(185,208,l),
(572,208,l),
(590,396,o),
(499,531,o),
(291,531,cs),
(126,531,o),
(14,422,o),
(14,260,cs),
(14,97,o),
(126,-10,o),
(294,-10,cs)
);
}
);
width = 588;
}
);
unicode = 101;
},
{
glyphname = eogonek;
kernLeft = o;
kernRight = e;
lastChange = "2026-02-20 19:53:18 +0000";
layers = (
{
anchors = (
{
name = top;
pos = (377,525);
}
);
layerId = "5EDB8360-C867-4183-822A-D387B21AE085";
shapes = (
{
closed = 1;
nodes = (
(553,-210,l),
(553,-82,l),
(323,-82,l),
(342,-145,l),
(615,39,ls),
(662,71,o),
(703,108,o),
(725,164,c),
(489,194,l),
(474,163,o),
(448,144,o),
(391,144,cs),
(308,144,o),
(272,174,o),
(272,263,cs),
(272,352,o),
(306,393,o),
(387,393,cs),
(452,393,o),
(489,360,o),
(480,293,c),
(518,324,l),
(211,324,l),
(211,224,l),
(740,224,l),
(758,411,o),
(632,535,o),
(386,535,cs),
(162,535,o),
(12,425,o),
(12,261,cs),
(12,98,o),
(159,-10,o),
(386,-10,cs),
(408,-10,o),
(437,-5,o),
(464,4,c),
(427,58,l),
(317,-21,ls),
(221,-91,o),
(251,-210,o),
(360,-210,cs)
);
}
);
width = 753;
},
{
anchors = (
{
name = top;
pos = (360,511);
}
);
layerId = "420CDBF3-1EA9-4A60-A2C9-262C353BE567";
shapes = (
{
closed = 1;
nodes = (
(575,-210,l),
(575,-140,l),
(434,-140,l),
(449,-171,l),
(623,65,ls),
(656,110,o),
(660,119,o),
(664,127,c),
(594,157,l),
(561,94,o),
(489,64,o),
(377,64,cs),
(220,64,o),
(137,126,o),
(137,255,cs),
(137,385,o),
(225,447,o),
(368,447,cs),
(510,447,o),
(587,388,o),
(592,276,c),
(627,302,l),
(111,302,l),
(111,238,l),
(677,238,l),
(677,421,o),
(567,521,o),
(367,521,cs),
(177,521,o),
(47,414,o),
(47,254,cs),
(47,92,o),
(174,-10,o),
(376,-10,cs),
(431,-10,o),
(478,-3,o),
(514,9,c),
(518,33,l),
(419,-93,ls),
(372,-153,o),
(396,-210,o),
(463,-210,cs)
);
}
);
width = 720;
},
{
anchors = (
{
name = top;
pos = (271,510);
}
);
layerId = "49EC3AAF-00BE-4B7E-9333-53C2424A5618";
shapes = (
{
closed = 1;
nodes = (
(419,-210,l),
(419,-150,l),
(294,-150,l),
(310,-179,l),
(453,49,ls),
(480,92,o),
(482,99,o),
(486,108,c),
(426,137,l),
(399,83,o),
(350,58,o),
(291,58,cs),
(179,58,o),
(129,122,o),
(129,254,cs),
(129,388,o),
(183,452,o),
(278,452,cs),
(374,452,o),
(422,389,o),
(421,271,c),
(454,301,l),
(97,301,l),
(97,237,l),
(497,237,l),
(497,423,o),
(423,520,o),
(277,520,cs),
(141,520,o),
(49,413,o),
(49,254,cs),
(49,92,o),
(137,-10,o),
(290,-10,cs),
(317,-10,o),
(341,-5,o),
(367,7,c),
(363,25,l),
(280,-108,ls),
(244,-166,o),
(271,-210,o),
(331,-210,cs)
);
}
);
width = 542;
},
{
anchors = (
{
name = top;
pos = (294,521);
}
);
layerId = "936587BF-088D-4F2D-A787-D302E778354F";
shapes = (
{
closed = 1;
nodes = (
(457,-210,l),
(457,-100,l),
(274,-100,l),
(307,-173,l),
(512,62,ls),
(532,85,o),
(552,113,o),
(563,146,c),
(375,183,l),
(363,143,o),
(341,125,o),
(312,125,cs),
(250,125,o),
(229,165,o),
(229,267,cs),
(229,338,o),
(243,399,o),
(304,399,cs),
(367,399,o),
(390,308,o),
(346,241,c),
(466,316,l),
(187,316,l),
(187,208,l),
(572,208,l),
(590,396,o),
(499,531,o),
(291,531,cs),
(126,531,o),
(14,422,o),
(14,260,cs),
(14,97,o),
(126,-10,o),
(294,-10,cs),
(328,-10,o),
(375,5,o),
(403,24,c),
(363,60,l),
(262,-47,ls),
(209,-106,o),
(231,-210,o),
(332,-210,cs)
);
}
);
width = 588;
}
);
unicode = 281;
},
{
glyphname = schwa;
kernRight = o;
lastChange = "2026-01-23 20:50:18 +0000";
layers = (
{
layerId = "5EDB8360-C867-4183-822A-D387B21AE085";
shapes = (
{
closed = 1;
nodes = (
(591,-10,o),
(741,100,o),
(741,264,cs),
(741,428,o),
(597,535,o),
(370,535,cs),
(202,535,o),
(76,483,o),
(28,361,c),
(264,331,l),
(279,362,o),
(308,381,o),
(367,381,cs),
(448,381,o),
(481,351,o),
(481,262,cs),
(481,173,o),
(447,132,o),
(366,132,cs),
(303,132,o),
(265,164,o),
(272,226,c),
(215,201,l),
(553,201,l),
(553,301,l),
(13,301,l),
(-5,114,o),
(121,-10,o),
(367,-10,cs)
);
}
);
width = 753;
},
{
layerId = "420CDBF3-1EA9-4A60-A2C9-262C353BE567";
shapes = (
{
closed = 1;
nodes = (
(543,-10,o),
(673,97,o),
(673,257,cs),
(673,419,o),
(550,521,o),
(348,521,cs),
(202,521,o),
(108,466,o),
(58,390,c),
(126,354,l),
(168,417,o),
(244,447,o),
(347,447,cs),
(504,447,o),
(583,385,o),
(583,256,cs),
(583,126,o),
(495,64,o),
(352,64,cs),
(203,64,o),
(127,128,o),
(128,250,c),
(92,209,l),
(622,209,l),
(622,273,l),
(43,273,l),
(43,90,o),
(153,-10,o),
(353,-10,cs)
);
}
);
width = 719;
},
{
layerId = "49EC3AAF-00BE-4B7E-9333-53C2424A5618";
shapes = (
{
closed = 1;
nodes = (
(408,-10,o),
(496,97,o),
(496,256,cs),
(496,418,o),
(418,520,o),
(265,520,cs),
(171,520,o),
(92,475,o),
(59,402,c),
(119,373,l),
(146,427,o),
(205,452,o),
(264,452,cs),
(376,452,o),
(416,388,o),
(416,256,cs),
(416,122,o),
(366,58,o),
(271,58,cs),
(171,58,o),
(111,120,o),
(124,251,c),
(91,209,l),
(452,209,l),
(452,273,l),
(48,273,l),
(38,84,o),
(126,-10,o),
(272,-10,cs)
);
}
);
width = 545;
},
{
layerId = "936587BF-088D-4F2D-A787-D302E778354F";
shapes = (
{
closed = 1;
nodes = (
(462,-10,o),
(574,99,o),
(574,261,cs),
(574,424,o),
(462,531,o),
(294,531,cs),
(157,531,o),
(60,481,o),
(25,375,c),
(213,338,l),
(225,378,o),
(252,396,o),
(287,396,cs),
(339,396,o),
(359,362,o),
(359,274,cs),
(359,163,o),
(345,122,o),
(284,122,cs),
(236,122,o),
(212,155,o),
(221,229,c),
(200,192,l),
(403,192,l),
(403,300,l),
(16,300,l),
(-2,112,o),
(89,-10,o),
(297,-10,cs)
);
}
);
width = 588;
}
);
unicode = 601;
},
{
glyphname = f;
kernLeft = f;
kernRight = f;
lastChange = "2026-01-23 20:50:18 +0000";
layers = (
{
layerId = "5EDB8360-C867-4183-822A-D387B21AE085";
shapes = (
{
closed = 1;
nodes = (
(370,0,l),
(370,588,l),
(544,588,l),
(544,710,l),
(327,710,ls),
(176,710,o),
(120,640,o),
(120,522,cs),
(120,0,l)
);
},
{
closed = 1;
nodes = (
(539,375,l),
(539,525,l),
(6,525,l),
(6,375,l)
);
}
);
width = 544;
},
{
layerId = "420CDBF3-1EA9-4A60-A2C9-262C353BE567";
shapes = (
{
closed = 1;
nodes = (
(227,0,l),
(227,640,l),
(439,640,l),
(439,710,l),
(264,710,ls),
(178,710,o),
(142,663,o),
(142,597,cs),
(142,0,l)
);
},
{
closed = 1;
nodes = (
(418,441,l),
(418,511,l),
(17,511,l),
(17,441,l)
);
}
);
width = 439;
},
{
layerId = "49EC3AAF-00BE-4B7E-9333-53C2424A5618";
shapes = (
{
closed = 1;
nodes = (
(185,0,l),
(185,645,l),
(305,645,l),
(305,710,l),
(238,710,ls),
(148,710,o),
(110,661,o),
(110,592,cs),
(110,0,l)
);
},
{
closed = 1;
nodes = (
(292,443,l),
(292,510,l),
(28,510,l),
(28,443,l)
);
}
);
width = 313;
},
{
layerId = "936587BF-088D-4F2D-A787-D302E778354F";
shapes = (
{
closed = 1;
nodes = (
(297,0,l),
(297,577,l),
(399,577,l),
(399,710,l),
(270,710,ls),
(145,710,o),
(82,647,o),
(82,553,cs),
(82,0,l)
);
},
{
closed = 1;
nodes = (
(402,386,l),
(402,521,l),
(14,521,l),
(14,386,l)
);
}
);
width = 407;
}
);
unicode = 102;
},
{
glyphname = g;
kernLeft = g;
kernRight = u;
lastChange = "2026-01-23 20:50:18 +0000";
layers = (
{
anchors = (
{
name = top;
pos = (419,525);
}
);
layerId = "5EDB8360-C867-4183-822A-D387B21AE085";
shapes = (
{
closed = 1;
nodes = (
(552,-210,o),
(747,-119,o),
(747,55,cs),
(747,525,l),
(497,525,l),
(497,371,l),
(491,371,l),
(452,481,o),
(377,535,o),
(259,535,cs),
(119,535,o),
(13,441,o),
(13,279,cs),
(13,116,o),
(119,26,o),
(259,26,cs),
(379,26,o),
(453,75,o),
(492,185,c),
(497,185,l),
(497,80,ls),
(497,-5,o),
(427,-57,o),
(309,-57,cs),
(240,-57,o),
(163,-38,o),
(78,7,c),
(25,-138,l),
(126,-192,o),
(221,-210,o),
(326,-210,cs)
);
},
{
closed = 1;
nodes = (
(316,175,o),
(273,214,o),
(273,279,cs),
(273,342,o),
(316,385,o),
(388,385,cs),
(456,385,o),
(501,345,o),
(501,279,cs),
(501,214,o),
(456,175,o),
(388,175,cs)
);
}
);
width = 776;
},
{
anchors = (
{
name = top;
pos = (392,511);
}
);
layerId = "420CDBF3-1EA9-4A60-A2C9-262C353BE567";
shapes = (
{
closed = 1;
nodes = (
(542,-210,o),
(686,-127,o),
(686,5,cs),
(686,511,l),
(601,511,l),
(601,359,l),
(598,359,l),
(564,461,o),
(466,520,o),
(340,520,cs),
(164,520,o),
(47,418,o),
(47,263,cs),
(47,109,o),
(164,6,o),
(340,6,cs),
(467,6,o),
(565,67,o),
(598,167,c),
(601,167,l),
(601,5,ls),
(601,-91,o),
(509,-141,o),
(350,-141,cs),
(232,-141,o),
(152,-115,o),
(90,-61,c),
(50,-122,l),
(112,-178,o),
(213,-210,o),
(350,-210,cs)
);
},
{
closed = 1;
nodes = (
(222,81,o),
(137,149,o),
(137,263,cs),
(137,378,o),
(222,446,o),
(368,446,cs),
(519,446,o),
(608,378,o),
(608,263,cs),
(608,149,o),
(519,81,o),
(368,81,cs)
);
}
);
width = 767;
},
{
anchors = (
{
name = top;
pos = (287,510);
}
);
layerId = "49EC3AAF-00BE-4B7E-9333-53C2424A5618";
shapes = (
{
closed = 1;
nodes = (
(422,-210,o),
(508,-137,o),
(508,-22,cs),
(508,510,l),
(433,510,l),
(433,415,l),
(428,415,l),
(398,480,o),
(340,518,o),
(258,518,cs),
(134,518,o),
(49,414,o),
(49,261,cs),
(49,107,o),
(134,4,o),
(258,4,cs),
(340,4,o),
(396,41,o),
(427,103,c),
(433,103,l),
(433,-23,ls),
(433,-95,o),
(376,-144,o),
(283,-144,cs),
(210,-144,o),
(160,-116,o),
(136,-59,c),
(68,-87,l),
(95,-166,o),
(176,-210,o),
(283,-210,cs)
);
},
{
closed = 1;
nodes = (
(185,72,o),
(129,143,o),
(129,261,cs),
(129,380,o),
(185,450,o),
(279,450,cs),
(378,450,o),
(435,380,o),
(435,261,cs),
(435,143,o),
(378,72,o),
(279,72,cs)
);
}
);
width = 593;
},
{
anchors = (
{
name = top;
pos = (324,521);
}
);
layerId = "936587BF-088D-4F2D-A787-D302E778354F";
shapes = (
{
closed = 1;
nodes = (
(455,-210,o),
(590,-128,o),
(590,6,cs),
(590,521,l),
(375,521,l),
(375,443,l),
(370,443,l),
(339,502,o),
(285,529,o),
(221,529,cs),
(97,529,o),
(16,433,o),
(16,269,cs),
(16,104,o),
(97,9,o),
(221,9,cs),
(286,9,o),
(340,36,o),
(372,95,c),
(375,95,l),
(375,-4,ls),
(375,-54,o),
(321,-72,o),
(270,-72,cs),
(204,-72,o),
(165,-57,o),
(113,-5,c),
(9,-117,l),
(67,-176,o),
(150,-210,o),
(284,-210,cs)
);
},
{
closed = 1;
nodes = (
(254,145,o),
(231,184,o),
(231,268,cs),
(231,355,o),
(254,394,o),
(304,394,cs),
(355,394,o),
(378,355,o),
(378,268,cs),
(378,184,o),
(355,145,o),
(304,145,cs)
);
}
);
width = 622;
}
);
unicode = 103;
},
{
glyphname = h;
kernLeft = h;
kernRight = n;
lastChange = "2026-01-23 20:50:18 +0000";
layers = (
{
anchors = (
{
name = center;
pos = (185,610);
},
{
name = top;
pos = (155,700);
}
);
layerId = "5EDB8360-C867-4183-822A-D387B21AE085";
shapes = (
{
closed = 1;
nodes = (
(279,0,l),
(279,251,ls),
(279,314,o),
(317,353,o),
(381,353,cs),
(442,353,o),
(476,317,o),
(476,244,cs),
(476,0,l),
(726,0,l),
(726,301,ls),
(726,447,o),
(644,533,o),
(506,533,cs),
(380,533,o),
(301,459,o),
(283,331,c),
(279,331,l),
(279,700,l),
(29,700,l),
(29,0,l)
);
}
);
width = 750;
},
{
anchors = (
{
name = center;
pos = (164,610);
},
{
name = top;
pos = (127,700);
}
);
layerId = "420CDBF3-1EA9-4A60-A2C9-262C353BE567";
shapes = (
{
closed = 1;
nodes = (
(166,0,l),
(166,248,ls),
(166,374,o),
(261,443,o),
(375,443,cs),
(484,443,o),
(549,384,o),
(549,285,cs),
(549,0,l),
(634,0,l),
(634,303,ls),
(634,438,o),
(546,521,o),
(401,521,cs),
(289,521,o),
(203,469,o),
(169,353,c),
(166,353,l),
(166,700,l),
(81,700,l),
(81,0,l)
);
}
);
width = 709;
},
{
anchors = (
{
name = center;
pos = (161,610);
},
{
name = top;
pos = (126,700);
}
);
layerId = "49EC3AAF-00BE-4B7E-9333-53C2424A5618";
shapes = (
{
closed = 1;
nodes = (
(160,0,l),
(160,280,ls),
(160,403,o),
(223,450,o),
(302,450,cs),
(376,450,o),
(417,409,o),
(417,316,cs),
(417,0,l),
(492,0,l),
(492,332,ls),
(492,455,o),
(431,520,o),
(330,520,cs),
(265,520,o),
(197,492,o),
(165,413,c),
(160,413,l),
(160,700,l),
(85,700,l),
(85,0,l)
);
}
);
width = 570;
},
{
anchors = (
{
name = center;
pos = (162,610);
},
{
name = top;
pos = (140,700);
}
);
layerId = "936587BF-088D-4F2D-A787-D302E778354F";
shapes = (
{
closed = 1;
nodes = (
(247,0,l),
(247,313,ls),
(247,352,o),
(269,371,o),
(303,371,cs),
(335,371,o),
(355,351,o),
(355,313,cs),
(355,0,l),
(569,0,l),
(569,335,ls),
(569,440,o),
(528,531,o),
(407,531,cs),
(335,531,o),
(278,496,o),
(253,435,c),
(247,435,l),
(247,700,l),
(32,700,l),
(32,0,l)
);
}
);
width = 598;
}
);
unicode = 104;
},
{
glyphname = idotless;
kernLeft = i;
kernRight = i;
lastChange = "2026-01-23 20:50:18 +0000";
layers = (
{
anchors = (
{
name = bottom;
pos = (156,0);
},
{
name = ogonek;
pos = (279,0);
},
{
name = top;
pos = (154,525);
}
);
layerId = "5EDB8360-C867-4183-822A-D387B21AE085";
shapes = (
{
closed = 1;
nodes = (
(279,0,l),
(279,525,l),
(29,525,l),
(29,0,l)
);
}
);
width = 308;
},
{
anchors = (
{
name = bottom;
pos = (125,0);
},
{
name = ogonek;
pos = (166,0);
},
{
name = top;
pos = (124,511);
}
);
layerId = "420CDBF3-1EA9-4A60-A2C9-262C353BE567";
shapes = (
{
closed = 1;
nodes = (
(166,0,l),
(166,511,l),
(81,511,l),
(81,0,l)
);
}
);
width = 247;
},
{
anchors = (
{
name = bottom;
pos = (123,0);
},
{
name = ogonek;
pos = (160,0);
},
{
name = top;
pos = (123,510);
}
);
layerId = "49EC3AAF-00BE-4B7E-9333-53C2424A5618";
shapes = (
{
closed = 1;
nodes = (
(160,0,l),
(160,510,l),
(85,510,l),
(85,0,l)
);
}
);
width = 245;
},
{
anchors = (
{
name = bottom;
pos = (141,0);
},
{
name = ogonek;
pos = (247,0);
},
{
name = top;
pos = (139,521);
}
);
layerId = "936587BF-088D-4F2D-A787-D302E778354F";
shapes = (
{
closed = 1;
nodes = (
(247,0,l),
(247,521,l),
(32,521,l),
(32,0,l)
);
}
);
width = 279;
}
);
unicode = 305;
},
{
glyphname = jdotless;
kernLeft = i;
kernRight = i;
lastChange = "2026-01-23 20:50:18 +0000";
layers = (
{
anchors = (
{
name = bottom;
pos = (165,-200);
},
{
name = top;
pos = (155,525);
}
);
layerId = "5EDB8360-C867-4183-822A-D387B21AE085";
shapes = (
{
closed = 1;
nodes = (
(223,-200,o),
(279,-140,o),
(279,-22,cs),
(279,525,l),
(29,525,l),
(29,-163,l),
(142,-50,l),
(-57,-50,l),
(-57,-200,l),
(112,-200,ls)
);
}
);
width = 308;
},
{
anchors = (
{
name = bottom;
pos = (129,-200);
},
{
name = top;
pos = (124,511);
}
);
layerId = "420CDBF3-1EA9-4A60-A2C9-262C353BE567";
shapes = (
{
closed = 1;
nodes = (
(122,-200,o),
(166,-143,o),
(166,-64,cs),
(166,511,l),
(81,511,l),
(81,-168,l),
(119,-130,l),
(-64,-130,l),
(-64,-200,l),
(19,-200,ls)
);
}
);
width = 247;
},
{
anchors = (
{
name = bottom;
pos = (127,-200);
},
{
name = top;
pos = (122,510);
}
);
layerId = "49EC3AAF-00BE-4B7E-9333-53C2424A5618";
shapes = (
{
closed = 1;
nodes = (
(122,-200,o),
(160,-151,o),
(160,-82,cs),
(160,510,l),
(85,510,l),
(85,-169,l),
(119,-135,l),
(-20,-135,l),
(-20,-200,l),
(32,-200,ls)
);
}
);
width = 245;
},
{
anchors = (
{
name = bottom;
pos = (149,-200);
},
{
name = top;
pos = (140,521);
}
);
layerId = "936587BF-088D-4F2D-A787-D302E778354F";
shapes = (
{
closed = 1;
nodes = (
(210,-200,o),
(247,-160,o),
(247,-43,cs),
(247,521,l),
(32,521,l),
(32,-162,l),
(129,-65,l),
(-31,-65,l),
(-31,-200,l),
(99,-200,ls)
);
}
);
width = 279;
}
);
unicode = 567;
},
{
glyphname = k;
kernLeft = h;
kernRight = k;
lastChange = "2026-01-23 20:50:18 +0000";
layers = (
{
anchors = (
{
name = bottom;
pos = (374,0);
},
{
name = top;
pos = (345,525);
}
);
layerId = "5EDB8360-C867-4183-822A-D387B21AE085";
shapes = (
{
closed = 1;
nodes = (
(770,525,l),
(485,525,l),
(241,322,l),
(241,102,l)
);
},
{
closed = 1;
nodes = (
(787,0,l),
(491,403,l),
(309,258,l),
(480,0,l)
);
},
{
closed = 1;
nodes = (
(280,0,l),
(280,322,l),
(280,322,l),
(280,700,l),
(29,700,l),
(29,0,l)
);
}
);
width = 763;
},
{
anchors = (
{
name = bottom;
pos = (354,0);
},
{
name = top;
pos = (347,511);
}
);
layerId = "420CDBF3-1EA9-4A60-A2C9-262C353BE567";
shapes = (
{
closed = 1;
nodes = (
(625,511,l),
(508,511,l),
(139,257,l),
(139,174,l)
);
},
{
closed = 1;
nodes = (
(647,0,l),
(324,351,l),
(259,299,l),
(538,0,l)
);
},
{
closed = 1;
nodes = (
(166,0,l),
(166,247,l),
(166,247,l),
(166,700,l),
(81,700,l),
(81,0,l)
);
}
);
width = 643;
},
{
anchors = (
{
name = bottom;
pos = (273,0);
},
{
name = top;
pos = (281,510);
}
);
layerId = "49EC3AAF-00BE-4B7E-9333-53C2424A5618";
shapes = (
{
closed = 1;
nodes = (
(480,510,l),
(388,510,l),
(133,279,l),
(133,190,l)
);
},
{
closed = 1;
nodes = (
(504,0,l),
(271,348,l),
(215,301,l),
(414,0,l)
);
},
{
closed = 1;
nodes = (
(160,0,l),
(160,271,l),
(160,271,l),
(160,700,l),
(85,700,l),
(85,0,l)
);
}
);
width = 509;
},
{
anchors = (
{
name = bottom;
pos = (308,0);
},
{
name = top;
pos = (284,521);
}
);
layerId = "936587BF-088D-4F2D-A787-D302E778354F";
shapes = (
{
closed = 1;
nodes = (
(612,521,l),
(392,521,l),
(211,331,l),
(211,125,l)
);
},
{
closed = 1;
nodes = (
(621,0,l),
(398,391,l),
(239,267,l),
(374,0,l)
);
},
{
closed = 1;
nodes = (
(247,0,l),
(247,302,l),
(247,304,l),
(247,700,l),
(32,700,l),
(32,0,l)
);
}
);
width = 602;
}
);
unicode = 107;
},
{
glyphname = l;
kernLeft = l;
kernRight = l;
lastChange = "2026-01-23 20:50:18 +0000";
layers = (
{
anchors = (
{
name = bottom;
pos = (205,0);
},
{
name = center;
pos = (154,356);
},
{
name = top;
pos = (146,700);
},
{
name = topright;
pos = (295,700);
}
);
layerId = "5EDB8360-C867-4183-822A-D387B21AE085";
shapes = (
{
closed = 1;
nodes = (
(382,0,l),
(382,150,l),
(163,150,l),
(276,37,l),
(276,700,l),
(26,700,l),
(26,178,ls),
(26,60,o),
(82,0,o),
(193,0,cs)
);
}
);
width = 388;
},
{
anchors = (
{
name = bottom;
pos = (213,0);
},
{
name = center;
pos = (135,352);
},
{
name = top;
pos = (121,700);
},
{
name = topright;
pos = (243,700);
}
);
layerId = "420CDBF3-1EA9-4A60-A2C9-262C353BE567";
shapes = (
{
closed = 1;
nodes = (
(348,0,l),
(348,70,l),
(125,70,l),
(163,32,l),
(163,700,l),
(78,700,l),
(78,113,ls),
(78,47,o),
(114,0,o),
(200,0,cs)
);
}
);
width = 351;
},
{
anchors = (
{
name = bottom;
pos = (169,0);
},
{
name = center;
pos = (128,332);
},
{
name = top;
pos = (118,700);
},
{
name = topright;
pos = (225,700);
}
);
layerId = "49EC3AAF-00BE-4B7E-9333-53C2424A5618";
shapes = (
{
closed = 1;
nodes = (
(290,0,l),
(290,65,l),
(121,65,l),
(155,31,l),
(155,700,l),
(80,700,l),
(80,106,ls),
(80,44,o),
(114,0,o),
(195,0,cs)
);
}
);
width = 301;
},
{
anchors = (
{
name = bottom;
pos = (170,0);
},
{
name = center;
pos = (142,345);
},
{
name = top;
pos = (138,700);
},
{
name = topright;
pos = (295,700);
}
);
layerId = "936587BF-088D-4F2D-A787-D302E778354F";
shapes = (
{
closed = 1;
nodes = (
(338,0,l),
(338,135,l),
(148,135,l),
(245,38,l),
(245,700,l),
(30,700,l),
(30,157,ls),
(30,40,o),
(67,0,o),
(178,0,cs)
);
}
);
width = 340;
}
);
unicode = 108;
},
{
glyphname = m;
kernLeft = n;
kernRight = n;
lastChange = "2026-02-20 19:57:38 +0000";
layers = (
{
anchors = (
{
name = bottom;
pos = (580,0);
},
{
name = top;
pos = (580,525);
}
);
background = {
shapes = (
{
closed = 1;
nodes = (
(276,0,l),
(276,251,ls),
(276,314,o),
(314,353,o),
(378,353,cs),
(439,353,o),
(473,317,o),
(473,244,cs),
(473,0,l),
(723,0,l),
(723,301,ls),
(723,447,o),
(641,533,o),
(503,533,cs),
(377,533,o),
(298,459,o),
(280,331,c),
(276,331,l),
(276,525,l),
(26,525,l),
(26,0,l)
);
}
);
};
layerId = "5EDB8360-C867-4183-822A-D387B21AE085";
shapes = (
{
closed = 1;
nodes = (
(279,0,l),
(279,251,ls),
(279,314,o),
(307,353,o),
(371,353,cs),
(432,353,o),
(456,317,o),
(456,244,cs),
(456,0,l),
(706,0,l),
(706,251,ls),
(706,314,o),
(734,353,o),
(798,353,cs),
(859,353,o),
(883,317,o),
(883,244,cs),
(883,0,l),
(1133,0,l),
(1133,301,ls),
(1133,447,o),
(1061,533,o),
(923,533,cs),
(796,533,o),
(723,458,o),
(707,327,c),
(703,327,l),
(694,458,o),
(625,533,o),
(496,533,cs),
(370,533,o),
(300,460,o),
(284,332,c),
(279,332,l),
(279,525,l),
(29,525,l),
(29,0,l)
);
}
);
width = 1157;
},
{
anchors = (
{
name = bottom;
pos = (572,0);
},
{
name = top;
pos = (572,511);
}
);
background = {
shapes = (
{
closed = 1;
nodes = (
(166,0,l),
(166,248,ls),
(166,374,o),
(261,443,o),
(375,443,cs),
(484,443,o),
(549,384,o),
(549,285,cs),
(549,0,l),
(634,0,l),
(634,303,ls),
(634,438,o),
(546,521,o),
(401,521,cs),
(289,521,o),
(203,469,o),
(169,353,c),
(166,353,l),
(166,511,l),
(81,511,l),
(81,0,l)
);
}
);
};
layerId = "420CDBF3-1EA9-4A60-A2C9-262C353BE567";
shapes = (
{
closed = 1;
nodes = (
(166,0,l),
(166,248,ls),
(166,374,o),
(251,443,o),
(365,443,cs),
(474,443,o),
(529,384,o),
(529,285,cs),
(529,0,l),
(614,0,l),
(614,248,ls),
(614,374,o),
(699,443,o),
(813,443,cs),
(922,443,o),
(977,384,o),
(977,285,cs),
(977,0,l),
(1062,0,l),
(1062,303,ls),
(1062,438,o),
(984,521,o),
(839,521,cs),
(725,521,o),
(647,467,o),
(616,342,c),
(612,342,l),
(598,455,o),
(521,521,o),
(391,521,cs),
(281,521,o),
(204,471,o),
(170,353,c),
(166,353,l),
(166,511,l),
(81,511,l),
(81,0,l)
);
}
);
width = 1137;
},
{
anchors = (
{
name = bottom;
pos = (454,0);
},
{
name = top;
pos = (454,510);
}
);
background = {
shapes = (
{
closed = 1;
nodes = (
(160,0,l),
(160,280,ls),
(160,403,o),
(223,450,o),
(302,450,cs),
(376,450,o),
(417,409,o),
(417,316,cs),
(417,0,l),
(492,0,l),
(492,332,ls),
(492,455,o),
(431,520,o),
(330,520,cs),
(265,520,o),
(197,492,o),
(165,413,c),
(160,413,l),
(160,510,l),
(85,510,l),
(85,0,l)
);
}
);
};
layerId = "49EC3AAF-00BE-4B7E-9333-53C2424A5618";
shapes = (
{
closed = 1;
nodes = (
(160,0,l),
(160,280,ls),
(160,403,o),
(223,450,o),
(302,450,cs),
(376,450,o),
(417,409,o),
(417,316,cs),
(417,0,l),
(492,0,l),
(492,280,ls),
(492,403,o),
(555,450,o),
(634,450,cs),
(708,450,o),
(749,409,o),
(749,316,cs),
(749,0,l),
(824,0,l),
(824,332,ls),
(824,455,o),
(759,520,o),
(658,520,cs),
(591,520,o),
(522,490,o),
(486,406,c),
(481,406,l),
(459,481,o),
(404,520,o),
(326,520,cs),
(261,520,o),
(199,491,o),
(165,413,c),
(160,413,l),
(160,510,l),
(85,510,l),
(85,0,l)
);
}
);
width = 902;
},
{
anchors = (
{
name = bottom;
pos = (461,0);
},
{
name = top;
pos = (461,521);
}
);
layerId = "936587BF-088D-4F2D-A787-D302E778354F";
shapes = (
{
closed = 1;
nodes = (
(247,0,l),
(247,313,ls),
(247,352,o),
(269,371,o),
(303,371,cs),
(335,371,o),
(355,351,o),
(355,313,cs),
(355,0,l),
(570,0,l),
(570,313,ls),
(570,352,o),
(592,371,o),
(626,371,cs),
(658,371,o),
(678,351,o),
(678,313,cs),
(678,0,l),
(892,0,l),
(892,335,ls),
(892,440,o),
(844,531,o),
(723,531,cs),
(647,531,o),
(586,493,o),
(559,427,c),
(556,427,l),
(536,488,o),
(491,531,o),
(407,531,cs),
(335,531,o),
(279,496,o),
(253,435,c),
(247,435,l),
(247,521,l),
(32,521,l),
(32,0,l)
);
}
);
width = 921;
}
);
unicode = 109;
},
{
glyphname = n;
kernLeft = n;
kernRight = n;
lastChange = "2026-01-23 20:50:18 +0000";
layers = (
{
anchors = (
{
name = bottom;
pos = (377,0);
},
{
name = top;
pos = (373,525);
}
);
layerId = "5EDB8360-C867-4183-822A-D387B21AE085";
shapes = (
{
closed = 1;
nodes = (
(279,0,l),
(279,251,ls),
(279,314,o),
(317,353,o),
(381,353,cs),
(442,353,o),
(476,317,o),
(476,244,cs),
(476,0,l),
(726,0,l),
(726,301,ls),
(726,447,o),
(644,533,o),
(506,533,cs),
(380,533,o),
(301,459,o),
(283,331,c),
(279,331,l),
(279,525,l),
(29,525,l),
(29,0,l)
);
}
);
width = 750;
},
{
anchors = (
{
name = bottom;
pos = (360,0);
},
{
name = top;
pos = (365,511);
}
);
layerId = "420CDBF3-1EA9-4A60-A2C9-262C353BE567";
shapes = (
{
closed = 1;
nodes = (
(166,0,l),
(166,248,ls),
(166,374,o),
(261,443,o),
(375,443,cs),
(484,443,o),
(549,384,o),
(549,285,cs),
(549,0,l),
(634,0,l),
(634,303,ls),
(634,438,o),
(546,521,o),
(401,521,cs),
(289,521,o),
(203,469,o),
(169,353,c),
(166,353,l),
(166,511,l),
(81,511,l),
(81,0,l)
);
}
);
width = 709;
},
{
anchors = (
{
name = bottom;
pos = (289,0);
},
{
name = top;
pos = (293,510);
}
);
layerId = "49EC3AAF-00BE-4B7E-9333-53C2424A5618";
shapes = (
{
closed = 1;
nodes = (
(160,0,l),
(160,280,ls),
(160,403,o),
(223,450,o),
(302,450,cs),
(376,450,o),
(417,409,o),
(417,316,cs),
(417,0,l),
(492,0,l),
(492,332,ls),
(492,455,o),
(431,520,o),
(330,520,cs),
(265,520,o),
(197,492,o),
(165,413,c),
(160,413,l),
(160,510,l),
(85,510,l),
(85,0,l)
);
}
);
width = 570;
},
{
anchors = (
{
name = bottom;
pos = (300,0);
},
{
name = top;
pos = (295,521);
}
);
layerId = "936587BF-088D-4F2D-A787-D302E778354F";
shapes = (
{
closed = 1;
nodes = (
(247,0,l),
(247,313,ls),
(247,352,o),
(269,371,o),
(303,371,cs),
(335,371,o),
(355,351,o),
(355,313,cs),
(355,0,l),
(569,0,l),
(569,335,ls),
(569,440,o),
(528,531,o),
(407,531,cs),
(335,531,o),
(278,496,o),
(253,435,c),
(247,435,l),
(247,521,l),
(32,521,l),
(32,0,l)
);
}
);
width = 598;
}
);
unicode = 110;
},
{
glyphname = eng;
kernLeft = n;
kernRight = n;
lastChange = "2026-01-23 20:50:18 +0000";
layers = (
{
layerId = "5EDB8360-C867-4183-822A-D387B21AE085";
shapes = (
{
closed = 1;
nodes = (
(279,0,l),
(279,251,ls),
(279,314,o),
(317,353,o),
(381,353,cs),
(442,353,o),
(476,317,o),
(476,244,cs),
(476,-163,l),
(589,-50,l),
(390,-50,l),
(390,-200,l),
(559,-200,ls),
(670,-200,o),
(726,-140,o),
(726,-22,cs),
(726,301,ls),
(726,447,o),
(644,533,o),
(506,533,cs),
(380,533,o),
(301,459,o),
(283,331,c),
(279,331,l),
(279,525,l),
(29,525,l),
(29,0,l)
);
}
);
width = 750;
},
{
layerId = "420CDBF3-1EA9-4A60-A2C9-262C353BE567";
shapes = (
{
closed = 1;
nodes = (
(166,0,l),
(166,248,ls),
(166,374,o),
(261,443,o),
(375,443,cs),
(484,443,o),
(549,384,o),
(549,285,cs),
(549,-168,l),
(587,-130,l),
(404,-130,l),
(404,-200,l),
(487,-200,ls),
(590,-200,o),
(634,-143,o),
(634,-64,cs),
(634,303,ls),
(634,438,o),
(546,521,o),
(401,521,cs),
(289,521,o),
(203,469,o),
(169,353,c),
(166,353,l),
(166,511,l),
(81,511,l),
(81,0,l)
);
}
);
width = 709;
},
{
layerId = "49EC3AAF-00BE-4B7E-9333-53C2424A5618";
shapes = (
{
closed = 1;
nodes = (
(160,0,l),
(160,280,ls),
(160,403,o),
(223,450,o),
(302,450,cs),
(376,450,o),
(417,409,o),
(417,316,cs),
(417,-169,l),
(451,-135,l),
(312,-135,l),
(312,-200,l),
(364,-200,ls),
(454,-200,o),
(492,-151,o),
(492,-82,cs),
(492,332,ls),
(492,455,o),
(431,520,o),
(330,520,cs),
(265,520,o),
(197,492,o),
(165,413,c),
(160,413,l),
(160,510,l),
(85,510,l),
(85,0,l)
);
}
);
width = 570;
},
{
layerId = "936587BF-088D-4F2D-A787-D302E778354F";
shapes = (
{
closed = 1;
nodes = (
(247,0,l),
(247,313,ls),
(247,352,o),
(269,371,o),
(303,371,cs),
(335,371,o),
(355,351,o),
(355,313,cs),
(355,-162,l),
(452,-65,l),
(291,-65,l),
(291,-200,l),
(421,-200,ls),
(532,-200,o),
(569,-160,o),
(569,-43,cs),
(569,335,ls),
(569,440,o),
(528,531,o),
(407,531,cs),
(335,531,o),
(278,496,o),
(253,435,c),
(247,435,l),
(247,521,l),
(32,521,l),
(32,0,l)
);
}
);
width = 598;
}
);
unicode = 331;
},
{
glyphname = o;
kernLeft = o;
kernRight = o;
lastChange = "2026-01-23 20:50:18 +0000";
layers = (
{
anchors = (
{
name = bottom;
pos = (386,0);
},
{
name = center;
pos = (386,261);
},
{
name = ogonek;
pos = (718,10);
},
{
name = top;
pos = (385,525);
},
{
name = topright;
pos = (454,477);
}
);
layerId = "5EDB8360-C867-4183-822A-D387B21AE085";
shapes = (
{
closed = 1;
nodes = (
(602,-10,o),
(760,90,o),
(760,260,cs),
(760,432,o),
(602,534,o),
(385,534,cs),
(170,534,o),
(12,432,o),
(12,260,cs),
(12,90,o),
(170,-10,o),
(385,-10,cs)
);
},
{
closed = 1;
nodes = (
(315,150,o),
(272,191,o),
(272,260,cs),
(272,332,o),
(315,374,o),
(387,374,cs),
(458,374,o),
(500,332,o),
(500,260,cs),
(500,191,o),
(458,150,o),
(387,150,cs)
);
}
);
width = 772;
},
{
anchors = (
{
name = bottom;
pos = (371,0);
},
{
name = center;
pos = (371,254);
},
{
name = ogonek;
pos = (691,10);
},
{
name = top;
pos = (371,511);
},
{
name = topright;
pos = (474,494);
}
);
layerId = "420CDBF3-1EA9-4A60-A2C9-262C353BE567";
shapes = (
{
closed = 1;
nodes = (
(566,-10,o),
(697,96,o),
(697,254,cs),
(697,414,o),
(566,521,o),
(371,521,cs),
(177,521,o),
(46,414,o),
(46,254,cs),
(46,96,o),
(177,-10,o),
(371,-10,cs)
);
},
{
closed = 1;
nodes = (
(223,66,o),
(136,139,o),
(136,254,cs),
(136,371,o),
(223,445,o),
(371,445,cs),
(520,445,o),
(607,371,o),
(607,254,cs),
(607,139,o),
(520,66,o),
(371,66,cs)
);
}
);
width = 743;
},
{
anchors = (
{
name = bottom;
pos = (281,0);
},
{
name = center;
pos = (281,254);
},
{
name = ogonek;
pos = (507,10);
},
{
name = top;
pos = (281,510);
},
{
name = topright;
pos = (357,495);
}
);
layerId = "49EC3AAF-00BE-4B7E-9333-53C2424A5618";
shapes = (
{
closed = 1;
nodes = (
(420,-10,o),
(514,96,o),
(514,254,cs),
(514,413,o),
(420,520,o),
(281,520,cs),
(142,520,o),
(48,413,o),
(48,254,cs),
(48,96,o),
(142,-10,o),
(281,-10,cs)
);
},
{
closed = 1;
nodes = (
(185,60,o),
(128,132,o),
(128,254,cs),
(128,377,o),
(185,450,o),
(281,450,cs),
(377,450,o),
(434,377,o),
(434,254,cs),
(434,132,o),
(377,60,o),
(281,60,cs)
);
}
);
width = 562;
},
{
anchors = (
{
name = bottom;
pos = (303,0);
},
{
name = center;
pos = (303,260);
},
{
name = ogonek;
pos = (552,10);
},
{
name = top;
pos = (302,521);
},
{
name = topright;
pos = (355,500);
}
);
layerId = "936587BF-088D-4F2D-A787-D302E778354F";
shapes = (
{
closed = 1;
nodes = (
(466,-10,o),
(591,92,o),
(591,259,cs),
(591,428,o),
(466,530,o),
(302,530,cs),
(139,530,o),
(14,428,o),
(14,259,cs),
(14,92,o),
(139,-10,o),
(302,-10,cs)
);
},
{
closed = 1;
nodes = (
(252,131,o),
(229,171,o),
(229,259,cs),
(229,349,o),
(252,390,o),
(302,390,cs),
(353,390,o),
(376,349,o),
(376,259,cs),
(376,171,o),
(353,131,o),
(302,131,cs)
);
}
);
width = 605;
}
);
unicode = 111;
},
{
glyphname = oe;
kernLeft = o;
kernRight = e;
lastChange = "2026-01-23 20:50:18 +0000";
layers = (
{
anchors = (
{
name = top;
pos = (609,525);
}
);
layerId = "5EDB8360-C867-4183-822A-D387B21AE085";
shapes = (
{
closed = 1;
nodes = (
(493,-10,o),
(597,26,o),
(664,97,c),
(564,97,l),
(627,29,o),
(725,-10,o),
(855,-10,cs),
(1020,-10,o),
(1141,43,o),
(1188,164,c),
(951,194,l),
(937,163,o),
(912,144,o),
(858,144,cs),
(779,144,o),
(745,174,o),
(745,263,cs),
(745,352,o),
(777,393,o),
(855,393,cs),
(916,393,o),
(950,360,o),
(942,297,c),
(984,324,l),
(687,324,l),
(687,224,l),
(1203,224,l),
(1221,411,o),
(1097,535,o),
(854,535,cs),
(726,535,o),
(626,495,o),
(564,426,c),
(662,426,l),
(599,496,o),
(493,534,o),
(367,534,cs),
(163,534,o),
(12,432,o),
(12,260,cs),
(12,90,o),
(163,-10,o),
(367,-10,cs)
);
},
{
closed = 1;
nodes = (
(314,150,o),
(273,191,o),
(273,260,cs),
(273,332,o),
(314,374,o),
(382,374,cs),
(449,374,o),
(489,332,o),
(489,260,cs),
(489,191,o),
(449,150,o),
(382,150,cs)
);
}
);
width = 1216;
},
{
anchors = (
{
name = top;
pos = (619,511);
}
);
layerId = "420CDBF3-1EA9-4A60-A2C9-262C353BE567";
shapes = (
{
closed = 1;
nodes = (
(490,-10,o),
(592,47,o),
(638,137,c),
(615,137,l),
(661,44,o),
(761,-10,o),
(899,-10,cs),
(1050,-10,o),
(1137,46,o),
(1178,127,c),
(1106,157,l),
(1075,94,o),
(1006,64,o),
(900,64,cs),
(751,64,o),
(672,126,o),
(672,255,cs),
(672,385,o),
(756,447,o),
(891,447,cs),
(1026,447,o),
(1100,388,o),
(1104,276,c),
(1138,302,l),
(633,302,l),
(633,238,l),
(1191,238,l),
(1191,421,o),
(1086,521,o),
(890,521,cs),
(760,521,o),
(661,465,o),
(616,372,c),
(639,372,l),
(593,465,o),
(490,521,o),
(356,521,cs),
(171,521,o),
(46,414,o),
(46,254,cs),
(46,96,o),
(171,-10,o),
(356,-10,cs)
);
},
{
closed = 1;
nodes = (
(221,66,o),
(138,139,o),
(138,254,cs),
(138,371,o),
(221,445,o),
(361,445,cs),
(503,445,o),
(586,371,o),
(586,254,cs),
(586,139,o),
(503,66,o),
(361,66,cs)
);
}
);
width = 1234;
},
{
anchors = (
{
name = top;
pos = (454,510);
}
);
layerId = "49EC3AAF-00BE-4B7E-9333-53C2424A5618";
shapes = (
{
closed = 1;
nodes = (
(364,-10,o),
(437,38,o),
(473,121,c),
(452,120,l),
(485,40,o),
(556,-10,o),
(656,-10,cs),
(749,-10,o),
(817,35,o),
(849,108,c),
(788,137,l),
(762,83,o),
(715,58,o),
(658,58,cs),
(549,58,o),
(501,123,o),
(501,254,cs),
(501,388,o),
(553,452,o),
(645,452,cs),
(738,452,o),
(785,389,o),
(783,271,c),
(817,301,l),
(474,301,l),
(474,237,l),
(860,237,l),
(860,423,o),
(788,520,o),
(644,520,cs),
(555,520,o),
(486,467,o),
(453,386,c),
(475,386,l),
(437,472,o),
(365,520,o),
(274,520,cs),
(140,520,o),
(48,413,o),
(48,254,cs),
(48,96,o),
(140,-10,o),
(274,-10,cs)
);
},
{
closed = 1;
nodes = (
(184,60,o),
(129,132,o),
(129,254,cs),
(129,377,o),
(184,450,o),
(277,450,cs),
(370,450,o),
(425,377,o),
(425,254,cs),
(425,132,o),
(370,60,o),
(277,60,cs)
);
}
);
width = 906;
},
{
anchors = (
{
name = top;
pos = (462,521);
}
);
layerId = "936587BF-088D-4F2D-A787-D302E778354F";
shapes = (
{
closed = 1;
nodes = (
(381,-10,o),
(459,25,o),
(512,90,c),
(425,90,l),
(469,28,o),
(541,-10,o),
(633,-10,cs),
(770,-10,o),
(865,41,o),
(899,146,c),
(710,183,l),
(699,143,o),
(678,125,o),
(651,125,cs),
(592,125,o),
(572,165,o),
(572,267,cs),
(572,337,o),
(584,399,o),
(643,399,cs),
(704,399,o),
(725,307,o),
(681,241,c),
(802,316,l),
(486,316,l),
(486,208,l),
(908,208,l),
(926,395,o),
(837,531,o),
(630,531,cs),
(540,531,o),
(467,492,o),
(426,431,c),
(512,431,l),
(459,496,o),
(381,530,o),
(289,530,cs),
(134,530,o),
(14,428,o),
(14,259,cs),
(14,92,o),
(134,-10,o),
(289,-10,cs)
);
},
{
closed = 1;
nodes = (
(251,131,o),
(229,171,o),
(229,259,cs),
(229,349,o),
(251,390,o),
(299,390,cs),
(347,390,o),
(369,350,o),
(369,259,cs),
(369,170,o),
(347,131,o),
(299,131,cs)
);
}
);
width = 924;
}
);
unicode = 339;
},
{
glyphname = p;
kernLeft = n;
kernRight = b;
lastChange = "2026-01-23 20:50:18 +0000";
layers = (
{
layerId = "5EDB8360-C867-4183-822A-D387B21AE085";
shapes = (
{
closed = 1;
nodes = (
(279,-200,l),
(279,160,l),
(283,160,l),
(322,43,o),
(396,-10,o),
(516,-10,cs),
(656,-10,o),
(762,87,o),
(762,261,cs),
(762,434,o),
(656,535,o),
(516,535,cs),
(398,535,o),
(323,477,o),
(284,359,c),
(280,359,l),
(280,525,l),
(29,525,l),
(29,-200,l)
);
},
{
closed = 1;
nodes = (
(319,150,o),
(274,192,o),
(274,261,cs),
(274,332,o),
(319,374,o),
(387,374,cs),
(459,374,o),
(502,329,o),
(502,261,cs),
(502,191,o),
(459,150,o),
(387,150,cs)
);
}
);
width = 775;
},
{
layerId = "420CDBF3-1EA9-4A60-A2C9-262C353BE567";
shapes = (
{
closed = 1;
nodes = (
(166,-200,l),
(166,156,l),
(169,156,l),
(203,56,o),
(308,-10,o),
(439,-10,cs),
(606,-10,o),
(723,96,o),
(723,255,cs),
(723,415,o),
(606,521,o),
(439,521,cs),
(308,521,o),
(204,455,o),
(169,355,c),
(166,355,l),
(166,511,l),
(81,511,l),
(81,-200,l)
);
},
{
closed = 1;
nodes = (
(251,67,o),
(162,137,o),
(162,255,cs),
(162,374,o),
(251,444,o),
(402,444,cs),
(548,444,o),
(633,374,o),
(633,255,cs),
(633,137,o),
(548,67,o),
(402,67,cs)
);
}
);
width = 770;
},
{
layerId = "49EC3AAF-00BE-4B7E-9333-53C2424A5618";
shapes = (
{
closed = 1;
nodes = (
(160,-200,l),
(160,102,l),
(166,102,l),
(197,28,o),
(253,-10,o),
(335,-10,cs),
(459,-10,o),
(544,96,o),
(544,255,cs),
(544,413,o),
(459,520,o),
(335,520,cs),
(253,520,o),
(195,481,o),
(165,404,c),
(160,404,l),
(160,510,l),
(85,510,l),
(85,-200,l)
);
},
{
closed = 1;
nodes = (
(215,60,o),
(158,133,o),
(158,255,cs),
(158,377,o),
(215,450,o),
(314,450,cs),
(408,450,o),
(464,377,o),
(464,255,cs),
(464,133,o),
(408,60,o),
(314,60,cs)
);
}
);
width = 593;
},
{
layerId = "936587BF-088D-4F2D-A787-D302E778354F";
shapes = (
{
closed = 1;
nodes = (
(245,-200,l),
(245,90,l),
(250,90,l),
(282,19,o),
(334,-9,o),
(399,-9,cs),
(523,-9,o),
(604,89,o),
(604,261,cs),
(604,431,o),
(523,531,o),
(399,531,cs),
(335,531,o),
(283,503,o),
(252,432,c),
(247,432,l),
(247,521,l),
(32,521,l),
(32,-200,l)
);
},
{
closed = 1;
nodes = (
(265,132,o),
(242,172,o),
(242,260,cs),
(242,350,o),
(265,391,o),
(316,391,cs),
(366,391,o),
(389,350,o),
(389,260,cs),
(389,172,o),
(366,132,o),
(316,132,cs)
);
}
);
width = 620;
}
);
unicode = 112;
},
{
glyphname = thorn;
kernLeft = h;
kernRight = b;
lastChange = "2026-01-23 20:50:18 +0000";
layers = (
{
layerId = "5EDB8360-C867-4183-822A-D387B21AE085";
shapes = (
{
closed = 1;
nodes = (
(279,-200,l),
(279,160,l),
(283,160,l),
(322,43,o),
(396,-10,o),
(516,-10,cs),
(656,-10,o),
(762,87,o),
(762,261,cs),
(762,434,o),
(656,535,o),
(516,535,cs),
(398,535,o),
(323,477,o),
(284,359,c),
(280,359,l),
(280,700,l),
(29,700,l),
(29,-200,l)
);
},
{
closed = 1;
nodes = (
(319,150,o),
(274,192,o),
(274,261,cs),
(274,332,o),
(319,374,o),
(387,374,cs),
(459,374,o),
(502,329,o),
(502,261,cs),
(502,191,o),
(459,150,o),
(387,150,cs)
);
}
);
width = 775;
},
{
layerId = "420CDBF3-1EA9-4A60-A2C9-262C353BE567";
shapes = (
{
closed = 1;
nodes = (
(166,-200,l),
(166,156,l),
(169,156,l),
(203,56,o),
(308,-10,o),
(439,-10,cs),
(606,-10,o),
(723,96,o),
(723,255,cs),
(723,415,o),
(606,521,o),
(439,521,cs),
(308,521,o),
(204,455,o),
(169,355,c),
(166,355,l),
(166,700,l),
(81,700,l),
(81,-200,l)
);
},
{
closed = 1;
nodes = (
(251,67,o),
(162,137,o),
(162,255,cs),
(162,374,o),
(251,444,o),
(402,444,cs),
(548,444,o),
(633,374,o),
(633,255,cs),
(633,137,o),
(548,67,o),
(402,67,cs)
);
}
);
width = 770;
},
{
layerId = "49EC3AAF-00BE-4B7E-9333-53C2424A5618";
shapes = (
{
closed = 1;
nodes = (
(160,-200,l),
(160,102,l),
(166,102,l),
(197,28,o),
(253,-10,o),
(335,-10,cs),
(459,-10,o),
(544,96,o),
(544,255,cs),
(544,413,o),
(459,520,o),
(335,520,cs),
(253,520,o),
(195,481,o),
(165,404,c),
(160,404,l),
(160,700,l),
(85,700,l),
(85,-200,l)
);
},
{
closed = 1;
nodes = (
(215,60,o),
(158,133,o),
(158,255,cs),
(158,377,o),
(215,450,o),
(314,450,cs),
(408,450,o),
(464,377,o),
(464,255,cs),
(464,133,o),
(408,60,o),
(314,60,cs)
);
}
);
width = 593;
},
{
layerId = "936587BF-088D-4F2D-A787-D302E778354F";
shapes = (
{
closed = 1;
nodes = (
(245,-200,l),
(245,90,l),
(250,90,l),
(282,19,o),
(334,-9,o),
(399,-9,cs),
(523,-9,o),
(604,89,o),
(604,261,cs),
(604,431,o),
(523,531,o),
(399,531,cs),
(335,531,o),
(283,503,o),
(252,432,c),
(247,432,l),
(247,700,l),
(32,700,l),
(32,-200,l)
);
},
{
closed = 1;
nodes = (
(265,132,o),
(242,172,o),
(242,260,cs),
(242,350,o),
(265,391,o),
(316,391,cs),
(366,391,o),
(389,350,o),
(389,260,cs),
(389,172,o),
(366,132,o),
(316,132,cs)
);
}
);
width = 620;
}
);
unicode = 254;
},
{
glyphname = r;
kernLeft = n;
kernRight = r;
lastChange = "2026-01-23 20:50:18 +0000";
layers = (
{
anchors = (
{
name = bottom;
pos = (154,0);
},
{
name = top;
pos = (314,525);
}
);
layerId = "5EDB8360-C867-4183-822A-D387B21AE085";
shapes = (
{
closed = 1;
nodes = (
(279,0,l),
(279,172,ls),
(279,261,o),
(300,300,o),
(409,300,cs),
(572,300,l),
(572,525,l),
(473,525,ls),
(343,525,o),
(301,437,o),
(285,330,c),
(279,330,l),
(279,525,l),
(29,525,l),
(29,0,l)
);
}
);
width = 582;
},
{
anchors = (
{
name = bottom;
pos = (124,0);
},
{
name = top;
pos = (262,511);
}
);
layerId = "420CDBF3-1EA9-4A60-A2C9-262C353BE567";
shapes = (
{
closed = 1;
nodes = (
(166,0,l),
(166,242,ls),
(166,326,o),
(185,433,o),
(349,433,cs),
(450,433,l),
(450,511,l),
(349,511,ls),
(241,511,o),
(188,464,o),
(169,350,c),
(166,350,l),
(166,511,l),
(81,511,l),
(81,0,l)
);
}
);
width = 472;
},
{
anchors = (
{
name = bottom;
pos = (123,0);
},
{
name = top;
pos = (225,510);
}
);
layerId = "49EC3AAF-00BE-4B7E-9333-53C2424A5618";
shapes = (
{
closed = 1;
nodes = (
(160,0,l),
(160,291,ls),
(160,375,o),
(176,440,o),
(277,440,cs),
(356,440,l),
(356,510,l),
(284,510,ls),
(230,510,o),
(187,488,o),
(165,432,c),
(160,432,l),
(160,510,l),
(85,510,l),
(85,0,l)
);
}
);
width = 380;
},
{
anchors = (
{
name = bottom;
pos = (139,0);
},
{
name = top;
pos = (227,521);
}
);
layerId = "936587BF-088D-4F2D-A787-D302E778354F";
shapes = (
{
closed = 1;
nodes = (
(246,0,l),
(246,193,ls),
(246,292,o),
(275,328,o),
(357,328,cs),
(445,328,l),
(445,521,l),
(381,521,ls),
(314,521,o),
(274,492,o),
(252,409,c),
(246,409,l),
(246,521,l),
(32,521,l),
(32,0,l)
);
}
);
width = 454;
}
);
unicode = 114;
},
{
glyphname = s;
kernLeft = s;
kernRight = s;
lastChange = "2026-01-23 20:50:18 +0000";
layers = (
{
anchors = (
{
name = bottom;
pos = (365,0);
},
{
name = top;
pos = (365,525);
}
);
layerId = "5EDB8360-C867-4183-822A-D387B21AE085";
shapes = (
{
closed = 1;
nodes = (
(578,-10,o),
(705,59,o),
(705,181,cs),
(705,399,o),
(263,302,o),
(263,370,cs),
(263,394,o),
(289,405,o),
(344,405,cs),
(405,405,o),
(441,386,o),
(458,356,c),
(687,381,l),
(651,482,o),
(533,535,o),
(344,535,cs),
(139,535,o),
(12,464,o),
(12,344,cs),
(12,133,o),
(445,231,o),
(445,157,cs),
(445,139,o),
(422,120,o),
(365,120,cs),
(282,120,o),
(245,138,o),
(223,173,c),
(-2,149,l),
(31,54,o),
(166,-10,o),
(361,-10,cs)
);
}
);
width = 707;
},
{
anchors = (
{
name = bottom;
pos = (328,0);
},
{
name = top;
pos = (322,511);
}
);
layerId = "420CDBF3-1EA9-4A60-A2C9-262C353BE567";
shapes = (
{
closed = 1;
nodes = (
(501,-10,o),
(608,49,o),
(608,148,cs),
(608,364,o),
(142,239,o),
(142,373,cs),
(142,422,o),
(207,451,o),
(314,451,cs),
(410,451,o),
(479,426,o),
(506,364,c),
(587,389,l),
(550,477,o),
(455,521,o),
(317,521,cs),
(155,521,o),
(52,464,o),
(52,368,cs),
(52,152,o),
(519,279,o),
(519,140,cs),
(519,90,o),
(450,60,o),
(339,60,cs),
(229,60,o),
(143,90,o),
(117,161,c),
(36,137,l),
(74,40,o),
(181,-10,o),
(335,-10,cs)
);
}
);
width = 646;
},
{
anchors = (
{
name = bottom;
pos = (243,0);
},
{
name = top;
pos = (251,510);
}
);
layerId = "49EC3AAF-00BE-4B7E-9333-53C2424A5618";
shapes = (
{
closed = 1;
nodes = (
(379,-10,o),
(452,48,o),
(452,146,cs),
(452,352,o),
(137,245,o),
(137,374,cs),
(137,425,o),
(174,455,o),
(243,455,cs),
(305,455,o),
(351,429,o),
(373,385,c),
(439,417,l),
(406,482,o),
(338,520,o),
(245,520,cs),
(128,520,o),
(57,464,o),
(57,370,cs),
(57,164,o),
(372,272,o),
(372,139,cs),
(372,86,o),
(333,55,o),
(260,55,cs),
(175,55,o),
(123,88,o),
(105,144,c),
(38,112,l),
(67,35,o),
(142,-10,o),
(257,-10,cs)
);
}
);
width = 495;
},
{
anchors = (
{
name = bottom;
pos = (289,0);
},
{
name = top;
pos = (284,521);
}
);
layerId = "936587BF-088D-4F2D-A787-D302E778354F";
shapes = (
{
closed = 1;
nodes = (
(444,-10,o),
(554,61,o),
(554,167,cs),
(554,379,o),
(226,306,o),
(226,380,cs),
(226,399,o),
(247,409,o),
(279,409,cs),
(313,409,o),
(335,393,o),
(343,363,c),
(537,393,l),
(505,491,o),
(413,530,o),
(282,530,cs),
(114,530,o),
(13,464,o),
(13,349,cs),
(13,148,o),
(339,223,o),
(339,144,cs),
(339,126,o),
(316,114,o),
(282,114,cs),
(240,114,o),
(213,131,o),
(203,163,c),
(4,133,l),
(33,35,o),
(133,-10,o),
(279,-10,cs)
);
}
);
width = 560;
}
);
unicode = 115;
},
{
glyphname = germandbls;
kernLeft = h;
lastChange = "2026-01-23 20:50:18 +0000";
layers = (
{
layerId = "5EDB8360-C867-4183-822A-D387B21AE085";
shapes = (
{
closed = 1;
nodes = (
(681,-10,o),
(802,67,o),
(802,195,cs),
(802,291,o),
(732,365,o),
(590,386,c),
(590,390,l),
(693,405,o),
(756,452,o),
(756,529,cs),
(756,647,o),
(619,710,o),
(430,710,cs),
(189,710,o),
(29,599,o),
(29,436,cs),
(29,0,l),
(277,0,l),
(277,446,ls),
(277,513,o),
(326,550,o),
(407,550,cs),
(470,550,o),
(504,530,o),
(504,485,cs),
(504,458,o),
(471,429,o),
(383,419,c),
(383,280,l),
(499,278,o),
(553,249,o),
(553,209,cs),
(553,163,o),
(501,149,o),
(447,149,cs),
(418,149,o),
(389,153,o),
(367,158,c),
(344,5,l),
(391,-6,o),
(451,-10,o),
(490,-10,cs)
);
}
);
width = 804;
},
{
layerId = "420CDBF3-1EA9-4A60-A2C9-262C353BE567";
shapes = (
{
closed = 1;
nodes = (
(598,-10,o),
(697,69,o),
(697,191,cs),
(697,289,o),
(630,352,o),
(510,372,c),
(510,375,l),
(592,400,o),
(641,462,o),
(641,535,cs),
(641,644,o),
(539,710,o),
(387,710,cs),
(207,710,o),
(81,608,o),
(81,456,cs),
(81,0,l),
(168,0,l),
(168,456,ls),
(168,564,o),
(260,634,o),
(385,634,cs),
(489,634,o),
(551,589,o),
(551,517,cs),
(551,442,o),
(478,395,o),
(371,384,c),
(371,318,l),
(518,320,o),
(606,271,o),
(606,187,cs),
(606,111,o),
(539,64,o),
(429,64,cs),
(370,64,o),
(317,78,o),
(272,99,c),
(254,26,l),
(302,3,o),
(364,-10,o),
(432,-10,cs)
);
}
);
width = 741;
},
{
layerId = "49EC3AAF-00BE-4B7E-9333-53C2424A5618";
shapes = (
{
closed = 1;
nodes = (
(475,-10,o),
(564,62,o),
(564,182,cs),
(564,277,o),
(508,345,o),
(414,364,c),
(414,369,l),
(480,393,o),
(521,459,o),
(521,537,cs),
(521,644,o),
(440,710,o),
(315,710,cs),
(173,710,o),
(85,620,o),
(85,481,cs),
(85,0,l),
(160,0,l),
(160,481,ls),
(160,581,o),
(216,640,o),
(311,640,cs),
(394,640,o),
(443,595,o),
(443,519,cs),
(443,442,o),
(388,398,o),
(307,391,c),
(307,321,l),
(412,321,o),
(484,275,o),
(484,185,cs),
(484,107,o),
(430,60,o),
(356,60,cs),
(321,60,o),
(286,70,o),
(257,85,c),
(232,20,l),
(266,0,o),
(309,-10,o),
(355,-10,cs)
);
}
);
width = 610;
},
{
layerId = "936587BF-088D-4F2D-A787-D302E778354F";
shapes = (
{
closed = 1;
nodes = (
(535,-10,o),
(635,68,o),
(635,193,cs),
(635,290,o),
(585,360,o),
(491,386,c),
(491,390,l),
(555,416,o),
(594,460,o),
(594,527,cs),
(594,638,o),
(498,710,o),
(334,710,cs),
(159,710,o),
(32,623,o),
(32,460,cs),
(32,0,l),
(247,0,l),
(247,494,ls),
(247,546,o),
(276,570,o),
(318,570,cs),
(360,570,o),
(382,546,o),
(382,506,cs),
(382,453,o),
(349,432,o),
(300,421,c),
(300,282,l),
(375,287,o),
(420,251,o),
(420,199,cs),
(420,142,o),
(391,130,o),
(359,130,cs),
(346,130,o),
(331,134,o),
(315,141,c),
(280,13,l),
(315,-2,o),
(355,-10,o),
(397,-10,cs)
);
}
);
width = 643;
}
);
unicode = 223;
},
{
glyphname = t;
kernLeft = t;
kernRight = t;
lastChange = "2026-01-23 20:50:18 +0000";
layers = (
{
anchors = (
{
name = bottom;
pos = (350,0);
},
{
name = center;
pos = (278,267);
},
{
name = topright;
pos = (424,700);
}
);
layerId = "5EDB8360-C867-4183-822A-D387B21AE085";
shapes = (
{
closed = 1;
nodes = (
(558,0,l),
(558,160,l),
(379,160,l),
(379,435,l),
(129,435,l),
(129,217,ls),
(129,65,o),
(213,0,o),
(366,0,cs)
);
},
{
closed = 1;
nodes = (
(558,375,l),
(558,525,l),
(379,525,l),
(379,705,l),
(129,655,l),
(129,525,l),
(5,525,l),
(5,375,l)
);
}
);
width = 568;
},
{
anchors = (
{
name = bottom;
pos = (291,0);
},
{
name = center;
pos = (228,276);
},
{
name = topright;
pos = (315,700);
}
);
layerId = "420CDBF3-1EA9-4A60-A2C9-262C353BE567";
shapes = (
{
closed = 1;
nodes = (
(439,0,l),
(439,74,l),
(232,74,l),
(232,465,l),
(147,465,l),
(147,116,ls),
(147,40,o),
(200,0,o),
(277,0,cs)
);
},
{
closed = 1;
nodes = (
(439,441,l),
(439,511,l),
(232,511,l),
(232,681,l),
(147,651,l),
(147,511,l),
(19,511,l),
(19,441,l)
);
}
);
width = 466;
},
{
anchors = (
{
name = bottom;
pos = (214,0);
},
{
name = center;
pos = (166,274);
},
{
name = topright;
pos = (270,700);
}
);
layerId = "49EC3AAF-00BE-4B7E-9333-53C2424A5618";
shapes = (
{
closed = 1;
nodes = (
(329,-6,l),
(329,64,l),
(191,64,l),
(191,465,l),
(116,465,l),
(116,110,ls),
(116,34,o),
(160,-6,o),
(230,-6,cs)
);
},
{
closed = 1;
nodes = (
(319,443,l),
(319,510,l),
(191,510,l),
(191,670,l),
(116,640,l),
(116,510,l),
(24,510,l),
(24,443,l)
);
}
);
width = 359;
},
{
anchors = (
{
name = bottom;
pos = (231,0);
},
{
name = center;
pos = (194,260);
},
{
name = topright;
pos = (349,700);
}
);
layerId = "936587BF-088D-4F2D-A787-D302E778354F";
shapes = (
{
closed = 1;
nodes = (
(402,0,l),
(402,140,l),
(297,140,l),
(297,439,l),
(82,439,l),
(82,162,ls),
(82,64,o),
(140,0,o),
(261,0,cs)
);
},
{
closed = 1;
nodes = (
(402,386,l),
(402,521,l),
(297,521,l),
(297,671,l),
(82,631,l),
(82,521,l),
(13,521,l),
(13,386,l)
);
}
);
width = 419;
}
);
unicode = 116;
},
{
glyphname = u;
kernLeft = u;
kernRight = u;
lastChange = "2026-01-23 20:50:18 +0000";
layers = (
{
anchors = (
{
name = bottom;
pos = (349,0);
},
{
name = ogonek;
pos = (715,0);
},
{
name = top;
pos = (372,525);
},
{
name = topright;
pos = (465,525);
}
);
layerId = "5EDB8360-C867-4183-822A-D387B21AE085";
shapes = (
{
closed = 1;
nodes = (
(364,-8,o),
(443,66,o),
(461,194,c),
(465,194,l),
(465,0,l),
(715,0,l),
(715,525,l),
(465,525,l),
(465,274,ls),
(465,211,o),
(430,172,o),
(369,172,cs),
(305,172,o),
(274,208,o),
(274,281,cs),
(274,525,l),
(24,525,l),
(24,224,ls),
(24,78,o),
(100,-8,o),
(238,-8,cs)
);
}
);
width = 744;
},
{
anchors = (
{
name = bottom;
pos = (326,0);
},
{
name = ogonek;
pos = (622,0);
},
{
name = top;
pos = (351,511);
},
{
name = topright;
pos = (537,511);
}
);
layerId = "420CDBF3-1EA9-4A60-A2C9-262C353BE567";
shapes = (
{
closed = 1;
nodes = (
(417,-10,o),
(500,42,o),
(534,158,c),
(537,158,l),
(537,0,l),
(622,0,l),
(622,511,l),
(537,511,l),
(537,263,ls),
(537,137,o),
(445,68,o),
(331,68,cs),
(222,68,o),
(160,127,o),
(160,226,cs),
(160,511,l),
(75,511,l),
(75,208,ls),
(75,73,o),
(160,-10,o),
(305,-10,cs)
);
}
);
width = 703;
},
{
anchors = (
{
name = bottom;
pos = (276,0);
},
{
name = ogonek;
pos = (479,0);
},
{
name = top;
pos = (278,510);
},
{
name = topright;
pos = (404,510);
}
);
layerId = "49EC3AAF-00BE-4B7E-9333-53C2424A5618";
shapes = (
{
closed = 1;
nodes = (
(311,-10,o),
(367,18,o),
(399,97,c),
(404,97,l),
(404,0,l),
(479,0,l),
(479,510,l),
(404,510,l),
(404,230,ls),
(404,107,o),
(353,60,o),
(274,60,cs),
(200,60,o),
(153,101,o),
(153,194,cs),
(153,510,l),
(78,510,l),
(78,178,ls),
(78,55,o),
(145,-10,o),
(246,-10,cs)
);
}
);
width = 564;
},
{
anchors = (
{
name = bottom;
pos = (297,0);
},
{
name = ogonek;
pos = (560,0);
},
{
name = top;
pos = (293,521);
},
{
name = topright;
pos = (345,521);
}
);
layerId = "936587BF-088D-4F2D-A787-D302E778354F";
shapes = (
{
closed = 1;
nodes = (
(268,-10,o),
(314,25,o),
(339,86,c),
(345,86,l),
(345,0,l),
(560,0,l),
(560,521,l),
(345,521,l),
(345,208,ls),
(345,169,o),
(326,150,o),
(292,150,cs),
(260,150,o),
(243,170,o),
(243,208,cs),
(243,521,l),
(29,521,l),
(29,186,ls),
(29,81,o),
(75,-10,o),
(196,-10,cs)
);
}
);
width = 592;
}
);
unicode = 117;
},
{
glyphname = v;
lastChange = "2026-01-23 20:44:01 +0000";
layers = (
{
layerId = "5EDB8360-C867-4183-822A-D387B21AE085";
shapes = (
{
closed = 1;
nodes = (
(519,0,l),
(779,525,l),
(529,525,l),
(395,238,l),
(389,238,l),
(258,525,l),
(-8,525,l),
(252,0,l)
);
}
);
width = 771;
},
{
layerId = "420CDBF3-1EA9-4A60-A2C9-262C353BE567";
shapes = (
{
closed = 1;
nodes = (
(368,0,l),
(619,511,l),
(532,511,l),
(324,80,l),
(319,80,l),
(110,511,l),
(17,511,l),
(268,0,l)
);
}
);
width = 636;
},
{
layerId = "49EC3AAF-00BE-4B7E-9333-53C2424A5618";
shapes = (
{
closed = 1;
nodes = (
(290,0,l),
(467,510,l),
(391,510,l),
(250,76,l),
(245,76,l),
(103,510,l),
(23,510,l),
(200,0,l)
);
}
);
width = 490;
},
{
layerId = "936587BF-088D-4F2D-A787-D302E778354F";
shapes = (
{
closed = 1;
nodes = (
(406,0,l),
(578,521,l),
(377,521,l),
(296,177,l),
(292,177,l),
(212,521,l),
(-6,521,l),
(168,0,l)
);
}
);
width = 573;
}
);
unicode = 118;
},
{
glyphname = w;
kernLeft = w;
kernRight = w;
lastChange = "2026-01-23 20:50:18 +0000";
layers = (
{
anchors = (
{
name = bottom;
pos = (587,0);
},
{
name = top;
pos = (585,525);
}
);
layerId = "5EDB8360-C867-4183-822A-D387B21AE085";
shapes = (
{
closed = 1;
nodes = (
(458,0,l),
(571,276,l),
(574,276,l),
(693,0,l),
(953,0,l),
(1169,525,l),
(922,525,l),
(815,235,l),
(811,235,l),
(694,525,l),
(476,525,l),
(360,234,l),
(356,234,l),
(251,525,l),
(-5,525,l),
(207,0,l)
);
}
);
width = 1162;
},
{
anchors = (
{
name = bottom;
pos = (509,0);
},
{
name = top;
pos = (508,511);
}
);
layerId = "420CDBF3-1EA9-4A60-A2C9-262C353BE567";
shapes = (
{
closed = 1;
nodes = (
(324,0,l),
(501,414,l),
(505,414,l),
(683,0,l),
(770,0,l),
(986,511,l),
(909,511,l),
(731,88,l),
(728,88,l),
(550,511,l),
(464,511,l),
(286,88,l),
(282,88,l),
(106,511,l),
(21,511,l),
(236,0,l)
);
}
);
width = 1006;
},
{
anchors = (
{
name = bottom;
pos = (382,0);
},
{
name = top;
pos = (381,510);
}
);
layerId = "49EC3AAF-00BE-4B7E-9333-53C2424A5618";
shapes = (
{
closed = 1;
nodes = (
(260,0,l),
(375,409,l),
(379,409,l),
(496,0,l),
(584,0,l),
(735,510,l),
(656,510,l),
(541,95,l),
(537,95,l),
(419,510,l),
(342,510,l),
(224,95,l),
(221,95,l),
(107,510,l),
(27,510,l),
(177,0,l)
);
}
);
width = 762;
},
{
anchors = (
{
name = bottom;
pos = (432,0);
},
{
name = top;
pos = (431,521);
}
);
layerId = "936587BF-088D-4F2D-A787-D302E778354F";
shapes = (
{
closed = 1;
nodes = (
(360,0,l),
(420,297,l),
(423,297,l),
(488,0,l),
(736,0,l),
(885,521,l),
(675,521,l),
(607,212,l),
(604,212,l),
(535,521,l),
(335,521,l),
(267,212,l),
(264,212,l),
(197,521,l),
(-3,521,l),
(144,0,l)
);
}
);
width = 881;
}
);
unicode = 119;
},
{
glyphname = x;
lastChange = "2026-01-23 20:44:01 +0000";
layers = (
{
layerId = "5EDB8360-C867-4183-822A-D387B21AE085";
shapes = (
{
closed = 1;
nodes = (
(236,0,l),
(409,219,l),
(301,219,l),
(459,0,l),
(760,0,l),
(490,358,l),
(490,180,l),
(760,525,l),
(486,525,l),
(335,305,l),
(427,305,l),
(285,525,l),
(-8,525,l),
(249,174,l),
(272,352,l),
(-21,0,l)
);
}
);
width = 744;
},
{
layerId = "420CDBF3-1EA9-4A60-A2C9-262C353BE567";
shapes = (
{
closed = 1;
nodes = (
(109,0,l),
(322,236,l),
(267,236,l),
(482,0,l),
(593,0,l),
(330,289,l),
(330,233,l),
(590,511,l),
(486,511,l),
(276,282,l),
(331,282,l),
(120,511,l),
(11,511,l),
(272,233,l),
(272,289,l),
(7,0,l)
);
}
);
width = 601;
},
{
layerId = "49EC3AAF-00BE-4B7E-9333-53C2424A5618";
shapes = (
{
closed = 1;
nodes = (
(103,0,l),
(250,237,l),
(217,237,l),
(366,0,l),
(457,0,l),
(270,289,l),
(269,233,l),
(454,510,l),
(372,510,l),
(228,281,l),
(259,281,l),
(114,510,l),
(25,510,l),
(211,233,l),
(210,289,l),
(21,0,l)
);
}
);
width = 479;
},
{
layerId = "936587BF-088D-4F2D-A787-D302E778354F";
shapes = (
{
closed = 1;
nodes = (
(192,0,l),
(311,223,l),
(242,223,l),
(346,0,l),
(587,0,l),
(391,351,l),
(372,182,l),
(576,521,l),
(362,521,l),
(255,299,l),
(317,299,l),
(228,521,l),
(-4,521,l),
(180,178,l),
(202,347,l),
(-16,0,l)
);
}
);
width = 571;
}
);
unicode = 120;
},
{
glyphname = y;
kernLeft = y;
kernRight = y;
lastChange = "2026-01-23 20:50:18 +0000";
layers = (
{
anchors = (
{
name = bottom;
pos = (640,14);
},
{
name = top;
pos = (372,525);
}
);
layerId = "5EDB8360-C867-4183-822A-D387B21AE085";
shapes = (
{
closed = 1;
nodes = (
(319,-210,o),
(425,-160,o),
(493,-14,cs),
(744,525,l),
(490,525,l),
(315,95,l),
(287,73,l),
(269,-3,ls),
(260,-40,o),
(216,-50,o),
(176,-50,cs),
(124,-50,o),
(90,-44,o),
(40,-14,c),
(-3,-160,l),
(59,-198,o),
(121,-210,o),
(187,-210,cs)
);
},
{
closed = 1;
nodes = (
(417,166,l),
(256,525,l),
(-10,525,l),
(311,-140,l)
);
}
);
width = 738;
},
{
anchors = (
{
name = bottom;
pos = (485,-17);
},
{
name = top;
pos = (326,511);
}
);
layerId = "420CDBF3-1EA9-4A60-A2C9-262C353BE567";
shapes = (
{
closed = 1;
nodes = (
(218,-209,o),
(272,-175,o),
(317,-87,cs),
(621,511,l),
(531,511,l),
(300,38,l),
(293,29,l),
(240,-69,ls),
(214,-117,o),
(181,-138,o),
(125,-138,cs),
(88,-138,o),
(61,-129,o),
(30,-109,c),
(-2,-177,l),
(45,-205,o),
(86,-209,o),
(120,-209,cs)
);
},
{
closed = 1;
nodes = (
(338,83,l),
(103,511,l),
(9,511,l),
(298,-17,l)
);
}
);
width = 640;
},
{
anchors = (
{
name = bottom;
pos = (375,-19);
},
{
name = top;
pos = (251,510);
}
);
layerId = "49EC3AAF-00BE-4B7E-9333-53C2424A5618";
shapes = (
{
closed = 1;
nodes = (
(185,-209,o),
(226,-175,o),
(252,-105,cs),
(480,510,l),
(405,510,l),
(237,35,l),
(230,26,l),
(186,-87,ls),
(172,-123,o),
(147,-142,o),
(104,-142,cs),
(78,-142,o),
(52,-130,o),
(33,-113,c),
(0,-172,l),
(27,-195,o),
(65,-209,o),
(105,-209,cs)
);
},
{
closed = 1;
nodes = (
(273,58,l),
(96,510,l),
(16,510,l),
(233,-39,l)
);
}
);
width = 502;
},
{
anchors = (
{
name = bottom;
pos = (516,5);
},
{
name = top;
pos = (294,521);
}
);
layerId = "936587BF-088D-4F2D-A787-D302E778354F";
shapes = (
{
closed = 1;
nodes = (
(259,-210,o),
(344,-166,o),
(394,-21,cs),
(581,521,l),
(379,521,l),
(270,82,l),
(227,63,l),
(218,26,ls),
(201,-43,o),
(183,-70,o),
(124,-70,cs),
(95,-70,o),
(64,-59,o),
(37,-40,c),
(-15,-163,l),
(39,-200,o),
(94,-210,o),
(152,-210,cs)
);
},
{
closed = 1;
nodes = (
(309,143,l),
(208,521,l),
(-16,521,l),
(239,-118,l)
);
}
);
width = 579;
}
);
unicode = 121;
},
{
glyphname = z;
kernLeft = z;
kernRight = z;
lastChange = "2026-01-23 20:50:18 +0000";
layers = (
{
anchors = (
{
name = bottom;
pos = (329,0);
},
{
name = center;
pos = (329,262);
},
{
name = top;
pos = (332,525);
}
);
layerId = "5EDB8360-C867-4183-822A-D387B21AE085";
shapes = (
{
closed = 1;
nodes = (
(331,89,l),
(670,525,l),
(22,525,l),
(22,375,l),
(233,375,l),
(341,375,l),
(331,443,l),
(-13,0,l),
(649,0,l),
(649,150,l),
(442,150,l),
(285,150,l)
);
}
);
width = 663;
},
{
anchors = (
{
name = bottom;
pos = (300,0);
},
{
name = center;
pos = (300,255);
},
{
name = top;
pos = (298,511);
}
);
layerId = "420CDBF3-1EA9-4A60-A2C9-262C353BE567";
shapes = (
{
closed = 1;
nodes = (
(163,48,l),
(573,511,l),
(41,511,l),
(41,441,l),
(333,441,l),
(452,441,l),
(431,471,l),
(21,0,l),
(566,0,l),
(566,69,l),
(252,69,l),
(142,69,l)
);
}
);
width = 598;
},
{
anchors = (
{
name = bottom;
pos = (243,0);
},
{
name = center;
pos = (243,255);
},
{
name = top;
pos = (241,510);
}
);
layerId = "49EC3AAF-00BE-4B7E-9333-53C2424A5618";
shapes = (
{
closed = 1;
nodes = (
(137,43,l),
(455,510,l),
(46,510,l),
(46,443,l),
(259,443,l),
(352,443,l),
(339,470,l),
(25,0,l),
(445,0,l),
(445,67,l),
(218,67,l),
(121,67,l)
);
}
);
width = 484;
},
{
anchors = (
{
name = bottom;
pos = (262,0);
},
{
name = center;
pos = (262,261);
},
{
name = top;
pos = (266,521);
}
);
layerId = "936587BF-088D-4F2D-A787-D302E778354F";
shapes = (
{
closed = 1;
nodes = (
(278,99,l),
(535,521,l),
(26,521,l),
(26,386,l),
(162,386,l),
(305,386,l),
(231,426,l),
(-9,0,l),
(510,0,l),
(510,135,l),
(383,135,l),
(216,135,l)
);
}
);
width = 528;
}
);
unicode = 122;
},
{
glyphname = f_f;
kernLeft = f;
kernRight = f;
lastChange = "2026-01-23 20:50:18 +0000";
layers = (
{
anchors = (
{
name = caret_1;
pos = (460,0);
}
);
layerId = "5EDB8360-C867-4183-822A-D387B21AE085";
shapes = (
{
closed = 1;
nodes = (
(370,0,l),
(370,588,l),
(514,588,l),
(514,710,l),
(327,710,ls),
(176,710,o),
(120,640,o),
(120,522,cs),
(120,0,l)
);
},
{
closed = 1;
nodes = (
(969,375,l),
(969,525,l),
(6,525,l),
(6,375,l)
);
},
{
closed = 1;
nodes = (
(800,0,l),
(800,588,l),
(974,588,l),
(974,710,l),
(757,710,ls),
(606,710,o),
(550,640,o),
(550,522,cs),
(550,0,l)
);
}
);
width = 974;
},
{
anchors = (
{
name = caret_1;
pos = (378,0);
}
);
layerId = "420CDBF3-1EA9-4A60-A2C9-262C353BE567";
shapes = (
{
closed = 1;
nodes = (
(227,0,l),
(227,640,l),
(439,640,l),
(439,710,l),
(264,710,ls),
(178,710,o),
(142,663,o),
(142,597,cs),
(142,0,l)
);
},
{
closed = 1;
nodes = (
(804,441,l),
(804,511,l),
(17,511,l),
(17,441,l)
);
},
{
closed = 1;
nodes = (
(613,0,l),
(613,640,l),
(825,640,l),
(825,710,l),
(650,710,ls),
(564,710,o),
(528,663,o),
(528,597,cs),
(528,0,l)
);
}
);
width = 825;
},
{
anchors = (
{
name = caret_1;
pos = (281,0);
}
);
layerId = "49EC3AAF-00BE-4B7E-9333-53C2424A5618";
shapes = (
{
closed = 1;
nodes = (
(185,0,l),
(185,645,l),
(305,645,l),
(305,710,l),
(238,710,ls),
(148,710,o),
(110,661,o),
(110,592,cs),
(110,0,l)
);
},
{
closed = 1;
nodes = (
(559,443,l),
(559,510,l),
(28,510,l),
(28,443,l)
);
},
{
closed = 1;
nodes = (
(452,0,l),
(452,645,l),
(572,645,l),
(572,710,l),
(505,710,ls),
(415,710,o),
(377,661,o),
(377,592,cs),
(377,0,l)
);
}
);
width = 580;
},
{
anchors = (
{
name = caret_1;
pos = (364,0);
}
);
layerId = "936587BF-088D-4F2D-A787-D302E778354F";
shapes = (
{
closed = 1;
nodes = (
(297,0,l),
(297,577,l),
(399,577,l),
(399,710,l),
(270,710,ls),
(145,710,o),
(82,647,o),
(82,553,cs),
(82,0,l)
);
},
{
closed = 1;
nodes = (
(750,386,l),
(750,521,l),
(14,521,l),
(14,386,l)
);
},
{
closed = 1;
nodes = (
(645,0,l),
(645,577,l),
(747,577,l),
(747,710,l),
(618,710,ls),
(493,710,o),
(430,647,o),
(430,553,cs),
(430,0,l)
);
}
);
width = 755;
}
);
},
{
glyphname = f_i;
kernLeft = f;
kernRight = i;
lastChange = "2026-01-23 20:50:18 +0000";
layers = (
{
anchors = (
{
name = caret_1;
pos = (437,0);
}
);
layerId = "5EDB8360-C867-4183-822A-D387B21AE085";
shapes = (
{
closed = 1;
nodes = (
(370,0,l),
(370,588,l),
(584,588,l),
(584,710,l),
(327,710,ls),
(176,710,o),
(120,640,o),
(120,522,cs),
(120,0,l)
);
},
{
closed = 1;
nodes = (
(616,375,l),
(503,488,l),
(503,0,l),
(754,0,l),
(754,525,l),
(6,525,l),
(6,375,l)
);
}
);
width = 783;
},
{
anchors = (
{
name = caret_1;
pos = (378,0);
}
);
layerId = "420CDBF3-1EA9-4A60-A2C9-262C353BE567";
shapes = (
{
closed = 1;
nodes = (
(227,0,l),
(227,640,l),
(529,640,l),
(529,710,l),
(264,710,ls),
(178,710,o),
(142,663,o),
(142,597,cs),
(142,0,l)
);
},
{
closed = 1;
nodes = (
(566,441,l),
(528,479,l),
(528,0,l),
(613,0,l),
(613,511,l),
(17,511,l),
(17,441,l)
);
}
);
width = 694;
},
{
anchors = (
{
name = caret_1;
pos = (281,0);
}
);
layerId = "49EC3AAF-00BE-4B7E-9333-53C2424A5618";
shapes = (
{
closed = 1;
nodes = (
(185,0,l),
(185,645,l),
(355,645,l),
(355,710,l),
(238,710,ls),
(148,710,o),
(110,661,o),
(110,592,cs),
(110,0,l)
);
},
{
closed = 1;
nodes = (
(411,443,l),
(377,477,l),
(377,0,l),
(452,0,l),
(452,510,l),
(28,510,l),
(28,443,l)
);
}
);
width = 537;
},
{
anchors = (
{
name = caret_1;
pos = (348,0);
}
);
layerId = "936587BF-088D-4F2D-A787-D302E778354F";
shapes = (
{
closed = 1;
nodes = (
(297,0,l),
(297,577,l),
(459,577,l),
(459,710,l),
(270,710,ls),
(145,710,o),
(82,647,o),
(82,553,cs),
(82,0,l)
);
},
{
closed = 1;
nodes = (
(495,386,l),
(398,483,l),
(398,0,l),
(613,0,l),
(613,521,l),
(14,521,l),
(14,386,l)
);
}
);
width = 645;
}
);
},
{
glyphname = f_j;
kernLeft = f;
kernRight = i;
lastChange = "2026-01-23 20:50:18 +0000";
layers = (
{
anchors = (
{
name = caret_1;
pos = (437,0);
}
);
layerId = "5EDB8360-C867-4183-822A-D387B21AE085";
shapes = (
{
closed = 1;
nodes = (
(370,0,l),
(370,588,l),
(584,588,l),
(584,710,l),
(327,710,ls),
(176,710,o),
(120,640,o),
(120,522,cs),
(120,0,l)
);
},
{
closed = 1;
nodes = (
(617,375,l),
(504,488,l),
(504,-163,l),
(617,-50,l),
(418,-50,l),
(418,-200,l),
(587,-200,ls),
(698,-200,o),
(754,-140,o),
(754,-22,cs),
(754,525,l),
(6,525,l),
(6,375,l)
);
}
);
width = 783;
},
{
anchors = (
{
name = caret_1;
pos = (378,0);
}
);
layerId = "420CDBF3-1EA9-4A60-A2C9-262C353BE567";
shapes = (
{
closed = 1;
nodes = (
(227,0,l),
(227,640,l),
(529,640,l),
(529,710,l),
(264,710,ls),
(178,710,o),
(142,663,o),
(142,597,cs),
(142,0,l)
);
},
{
closed = 1;
nodes = (
(566,441,l),
(528,479,l),
(528,-168,l),
(566,-130,l),
(383,-130,l),
(383,-200,l),
(466,-200,ls),
(569,-200,o),
(613,-143,o),
(613,-64,cs),
(613,511,l),
(17,511,l),
(17,441,l)
);
}
);
width = 694;
},
{
anchors = (
{
name = caret_1;
pos = (281,0);
}
);
layerId = "49EC3AAF-00BE-4B7E-9333-53C2424A5618";
shapes = (
{
closed = 1;
nodes = (
(185,0,l),
(185,645,l),
(355,645,l),
(355,710,l),
(238,710,ls),
(148,710,o),
(110,661,o),
(110,592,cs),
(110,0,l)
);
},
{
closed = 1;
nodes = (
(411,443,l),
(377,477,l),
(377,-169,l),
(411,-135,l),
(272,-135,l),
(272,-200,l),
(324,-200,ls),
(414,-200,o),
(452,-151,o),
(452,-82,cs),
(452,510,l),
(28,510,l),
(28,443,l)
);
}
);
width = 537;
},
{
anchors = (
{
name = caret_1;
pos = (348,0);
}
);
layerId = "936587BF-088D-4F2D-A787-D302E778354F";
shapes = (
{
closed = 1;
nodes = (
(297,0,l),
(297,577,l),
(459,577,l),
(459,710,l),
(270,710,ls),
(145,710,o),
(82,647,o),
(82,553,cs),
(82,0,l)
);
},
{
closed = 1;
nodes = (
(495,386,l),
(398,483,l),
(398,-162,l),
(495,-65,l),
(335,-65,l),
(335,-200,l),
(465,-200,ls),
(576,-200,o),
(613,-160,o),
(613,-43,cs),
(613,521,l),
(14,521,l),
(14,386,l)
);
}
);
width = 645;
}
);
},
{
glyphname = f_l;
kernLeft = f;
kernRight = l;
lastChange = "2026-01-23 20:50:18 +0000";
layers = (
{
anchors = (
{
name = caret_1;
pos = (463,0);
}
);
layerId = "5EDB8360-C867-4183-822A-D387B21AE085";
shapes = (
{
closed = 1;
nodes = (
(370,0,l),
(370,588,l),
(487,588,l),
(487,710,l),
(327,710,ls),
(176,710,o),
(120,640,o),
(120,522,cs),
(120,0,l)
);
},
{
closed = 1;
nodes = (
(599,375,l),
(599,525,l),
(6,525,l),
(6,375,l)
);
},
{
closed = 1;
nodes = (
(912,0,l),
(912,150,l),
(693,150,l),
(806,37,l),
(806,700,l),
(556,700,l),
(556,178,ls),
(556,60,o),
(612,0,o),
(723,0,cs)
);
}
);
width = 918;
},
{
anchors = (
{
name = caret_1;
pos = (362,0);
}
);
layerId = "420CDBF3-1EA9-4A60-A2C9-262C353BE567";
shapes = (
{
closed = 1;
nodes = (
(227,0,l),
(227,640,l),
(419,640,l),
(419,710,l),
(264,710,ls),
(178,710,o),
(142,663,o),
(142,597,cs),
(142,0,l)
);
},
{
closed = 1;
nodes = (
(528,441,l),
(528,511,l),
(17,511,l),
(17,441,l)
);
},
{
closed = 1;
nodes = (
(767,0,l),
(767,70,l),
(544,70,l),
(582,32,l),
(582,700,l),
(497,700,l),
(497,113,ls),
(497,47,o),
(533,0,o),
(619,0,cs)
);
}
);
width = 770;
},
{
anchors = (
{
name = caret_1;
pos = (285,0);
}
);
layerId = "49EC3AAF-00BE-4B7E-9333-53C2424A5618";
shapes = (
{
closed = 1;
nodes = (
(185,0,l),
(185,645,l),
(305,645,l),
(305,710,l),
(238,710,ls),
(148,710,o),
(110,661,o),
(110,592,cs),
(110,0,l)
);
},
{
closed = 1;
nodes = (
(394,443,l),
(394,510,l),
(28,510,l),
(28,443,l)
);
},
{
closed = 1;
nodes = (
(585,0,l),
(585,65,l),
(416,65,l),
(450,31,l),
(450,700,l),
(375,700,l),
(375,106,ls),
(375,44,o),
(409,0,o),
(490,0,cs)
);
}
);
width = 596;
},
{
anchors = (
{
name = caret_1;
pos = (363,0);
}
);
layerId = "936587BF-088D-4F2D-A787-D302E778354F";
shapes = (
{
closed = 1;
nodes = (
(297,0,l),
(297,577,l),
(367,577,l),
(367,710,l),
(270,710,ls),
(145,710,o),
(82,647,o),
(82,553,cs),
(82,0,l)
);
},
{
closed = 1;
nodes = (
(465,386,l),
(465,521,l),
(14,521,l),
(14,386,l)
);
},
{
closed = 1;
nodes = (
(737,0,l),
(737,135,l),
(547,135,l),
(644,38,l),
(644,700,l),
(429,700,l),
(429,157,ls),
(429,40,o),
(466,0,o),
(577,0,cs)
);
}
);
width = 739;
}
);
},
{
glyphname = ordfeminine;
lastChange = "2026-01-23 20:44:01 +0000";
layers = (
{
layerId = "5EDB8360-C867-4183-822A-D387B21AE085";
shapes = (
{
closed = 1;
nodes = (
(299,273,o),
(362,318,o),
(373,414,c),
(387,414,l),
(376,427,l),
(376,413,ls),
(376,325,o),
(416,281,o),
(499,281,cs),
(627,281,l),
(627,396,l),
(478,396,l),
(564,310,l),
(564,515,ls),
(564,647,o),
(459,707,o),
(296,707,cs),
(130,707,o),
(36,642,o),
(25,560,c),
(204,560,l),
(215,581,o),
(233,599,o),
(295,599,cs),
(340,599,o),
(374,587,o),
(374,547,cs),
(374,458,ls),
(374,407,o),
(336,376,o),
(269,376,cs),
(228,376,o),
(206,388,o),
(206,414,cs),
(206,438,o),
(222,452,o),
(268,457,cs),
(386,470,l),
(386,545,l),
(195,528,ls),
(71,517,o),
(8,473,o),
(8,396,cs),
(8,320,o),
(72,273,o),
(173,273,cs)
);
}
);
userData = {
RMXScaler = {
height = 80;
verticalShift = 281;
weight = -210;
width = 80;
};
};
width = 634;
},
{
layerId = "420CDBF3-1EA9-4A60-A2C9-262C353BE567";
shapes = (
{
closed = 1;
nodes = (
(317,283,o),
(395,332,o),
(418,422,c),
(436,422,l),
(420,440,l),
(420,384,ls),
(420,320,o),
(450,291,o),
(519,291,cs),
(577,291,l),
(577,350,l),
(461,350,l),
(494,317,l),
(494,544,ls),
(494,650,o),
(410,708,o),
(284,708,cs),
(160,708,o),
(80,654,o),
(63,572,c),
(136,572,l),
(152,621,o),
(201,647,o),
(283,647,cs),
(372,647,o),
(419,614,o),
(419,548,cs),
(419,479,ls),
(419,388,o),
(346,339,o),
(233,339,cs),
(161,339,o),
(123,360,o),
(123,401,cs),
(123,437,o),
(145,466,o),
(235,476,cs),
(432,497,l),
(432,549,l),
(227,529,ls),
(94,516,o),
(47,464,o),
(47,399,cs),
(47,328,o),
(108,283,o),
(210,283,cs)
);
}
);
userData = {
RMXScaler = {
height = 80;
verticalShift = 291;
weight = -60;
width = 80;
};
};
width = 615;
},
{
layerId = "49EC3AAF-00BE-4B7E-9333-53C2424A5618";
shapes = (
{
closed = 1;
nodes = (
(224,334,o),
(265,362,o),
(286,409,c),
(313,409,l),
(289,433,l),
(289,408,ls),
(289,361,o),
(324,341,o),
(369,341,cs),
(411,341,l),
(411,394,l),
(323,394,l),
(353,363,l),
(353,582,ls),
(353,665,o),
(300,706,o),
(215,706,cs),
(133,706,o),
(74,664,o),
(64,593,c),
(129,593,l),
(141,635,o),
(164,652,o),
(212,652,cs),
(263,652,o),
(286,631,o),
(286,585,cs),
(286,478,ls),
(286,426,o),
(240,387,o),
(181,387,cs),
(140,387,o),
(121,407,o),
(121,437,cs),
(121,472,o),
(148,497,o),
(197,505,cs),
(296,521,l),
(296,565,l),
(198,551,ls),
(100,537,o),
(52,490,o),
(52,428,cs),
(52,366,o),
(105,334,o),
(168,334,cs)
);
}
);
userData = {
RMXScaler = {
height = 70;
verticalShift = 341;
weight = -70;
width = 70;
};
};
width = 458;
},
{
layerId = "936587BF-088D-4F2D-A787-D302E778354F";
shapes = (
{
closed = 1;
nodes = (
(186,328,o),
(227,357,o),
(244,410,c),
(269,410,l),
(248,434,l),
(248,425,ls),
(248,351,o),
(297,335,o),
(344,335,cs),
(438,335,l),
(438,431,l),
(325,431,l),
(394,362,l),
(394,561,ls),
(394,658,o),
(320,706,o),
(208,706,cs),
(98,706,o),
(22,652,o),
(17,570,c),
(165,570,l),
(169,598,o),
(183,609,o),
(208,609,cs),
(230,609,o),
(241,599,o),
(241,575,cs),
(241,470,ls),
(241,445,o),
(219,429,o),
(192,429,cs),
(172,429,o),
(159,437,o),
(159,451,cs),
(159,464,o),
(170,477,o),
(196,480,cs),
(252,486,l),
(252,553,l),
(204,549,ls),
(72,538,o),
(12,499,o),
(12,420,cs),
(12,362,o),
(57,328,o),
(130,328,cs)
);
}
);
userData = {
RMXScaler = {
height = 70;
verticalShift = 335;
weight = -260;
width = 70;
};
};
width = 449;
}
);
unicode = 170;
userData = {
RMXScaler = {
source = a;
};
};
},
{
glyphname = ordmasculine;
lastChange = "2026-01-23 20:44:01 +0000";
layers = (
{
layerId = "5EDB8360-C867-4183-822A-D387B21AE085";
shapes = (
{
closed = 1;
nodes = (
(475,273,o),
(601,353,o),
(601,489,cs),
(601,625,o),
(477,707,o),
(304,707,cs),
(133,707,o),
(8,625,o),
(8,489,cs),
(8,353,o),
(134,273,o),
(304,273,cs)
);
},
{
closed = 1;
nodes = (
(243,396,o),
(206,431,o),
(206,489,cs),
(206,548,o),
(243,584,o),
(305,584,cs),
(366,584,o),
(403,549,o),
(403,489,cs),
(403,431,o),
(367,396,o),
(305,396,cs)
);
}
);
userData = {
RMXScaler = {
height = 80;
verticalShift = 281;
weight = -210;
width = 80;
};
};
width = 609;
},
{
layerId = "420CDBF3-1EA9-4A60-A2C9-262C353BE567";
shapes = (
{
closed = 1;
nodes = (
(460,283,o),
(566,368,o),
(566,494,cs),
(566,623,o),
(459,708,o),
(303,708,cs),
(147,708,o),
(41,623,o),
(41,494,cs),
(41,368,o),
(147,283,o),
(303,283,cs)
);
},
{
closed = 1;
nodes = (
(188,347,o),
(120,404,o),
(120,494,cs),
(120,586,o),
(188,644,o),
(303,644,cs),
(419,644,o),
(487,586,o),
(487,494,cs),
(487,404,o),
(419,347,o),
(303,347,cs)
);
}
);
userData = {
RMXScaler = {
height = 80;
verticalShift = 291;
weight = -60;
width = 80;
};
};
width = 607;
},
{
layerId = "49EC3AAF-00BE-4B7E-9333-53C2424A5618";
shapes = (
{
closed = 1;
nodes = (
(317,334,o),
(385,408,o),
(385,519,cs),
(385,632,o),
(316,706,o),
(217,706,cs),
(117,706,o),
(48,631,o),
(48,519,cs),
(48,408,o),
(117,334,o),
(217,334,cs)
);
},
{
closed = 1;
nodes = (
(154,390,o),
(118,437,o),
(118,519,cs),
(118,601,o),
(154,650,o),
(217,650,cs),
(279,650,o),
(316,602,o),
(316,519,cs),
(316,437,o),
(279,390,o),
(217,390,cs)
);
}
);
userData = {
RMXScaler = {
height = 70;
verticalShift = 341;
weight = -70;
width = 70;
};
};
width = 433;
},
{
layerId = "936587BF-088D-4F2D-A787-D302E778354F";
shapes = (
{
closed = 1;
nodes = (
(326,328,o),
(414,399,o),
(414,516,cs),
(414,635,o),
(326,706,o),
(211,706,cs),
(96,706,o),
(8,634,o),
(8,516,cs),
(8,400,o),
(96,328,o),
(211,328,cs)
);
},
{
closed = 1;
nodes = (
(177,428,o),
(161,455,o),
(161,516,cs),
(161,578,o),
(176,607,o),
(211,607,cs),
(246,607,o),
(261,578,o),
(261,516,cs),
(261,455,o),
(245,428,o),
(211,428,cs)
);
}
);
userData = {
RMXScaler = {
height = 70;
verticalShift = 335;
weight = -260;
width = 70;
};
};
width = 422;
}
);
unicode = 186;
userData = {
RMXScaler = {
source = o;
};
};
},
{
glyphname = pi;
lastChange = "2026-01-24 09:48:06 +0000";
layers = (
{
layerId = "49EC3AAF-00BE-4B7E-9333-53C2424A5618";
shapes = (
{
closed = 1;
nodes = (
(530,443,l),
(530,510,l),
(20,510,l),
(20,443,l)
);
},
{
closed = 1;
nodes = (
(188,0,l),
(188,480,l),
(113,480,l),
(113,0,l)
);
},
{
closed = 1;
nodes = (
(530,0,l),
(530,65,l),
(403,65,l),
(437,31,l),
(437,480,l),
(362,480,l),
(362,106,ls),
(362,44,o),
(396,0,o),
(477,0,cs)
);
}
);
width = 550;
},
{
layerId = "5EDB8360-C867-4183-822A-D387B21AE085";
shapes = (
{
closed = 1;
nodes = (
(767,346,l),
(767,525,l),
(9,525,l),
(9,346,l)
);
},
{
closed = 1;
nodes = (
(337,0,l),
(337,465,l),
(87,465,l),
(87,0,l)
);
},
{
closed = 1;
nodes = (
(793,0,l),
(793,150,l),
(574,150,l),
(687,37,l),
(687,465,l),
(437,465,l),
(437,178,ls),
(437,60,o),
(493,0,o),
(604,0,cs)
);
}
);
width = 802;
},
{
layerId = "936587BF-088D-4F2D-A787-D302E778354F";
shapes = (
{
closed = 1;
nodes = (
(638,366,l),
(638,521,l),
(10,521,l),
(10,366,l)
);
},
{
closed = 1;
nodes = (
(285,0,l),
(285,461,l),
(70,461,l),
(70,0,l)
);
},
{
closed = 1;
nodes = (
(638,0,l),
(638,135,l),
(483,135,l),
(580,38,l),
(580,461,l),
(365,461,l),
(365,157,ls),
(365,40,o),
(402,0,o),
(513,0,cs)
);
}
);
width = 648;
},
{
layerId = "420CDBF3-1EA9-4A60-A2C9-262C353BE567";
shapes = (
{
closed = 1;
nodes = (
(702,438,l),
(702,511,l),
(19,511,l),
(19,438,l)
);
},
{
closed = 1;
nodes = (
(221,0,l),
(221,481,l),
(136,481,l),
(136,0,l)
);
},
{
closed = 1;
nodes = (
(702,0,l),
(702,70,l),
(546,70,l),
(584,32,l),
(584,480,l),
(499,480,l),
(499,113,ls),
(499,47,o),
(535,0,o),
(621,0,cs)
);
}
);
width = 721;
}
);
metricRight = "=|";
unicode = 960;
},
{
color = 2;
glyphname = zero;
layers = (
{
layerId = "49EC3AAF-00BE-4B7E-9333-53C2424A5618";
shapes = (
{
closed = 1;
nodes = (
(461,-10,o),
(561,130,o),
(561,349,cs),
(561,570,o),
(461,710,o),
(299,710,cs),
(139,710,o),
(39,570,o),
(39,349,cs),
(39,130,o),
(139,-10,o),
(299,-10,cs)
);
},
{
closed = 1;
nodes = (
(185,63,o),
(117,163,o),
(117,349,cs),
(117,536,o),
(185,637,o),
(299,637,cs),
(416,637,o),
(484,536,o),
(484,349,cs),
(484,163,o),
(416,63,o),
(299,63,cs)
);
},
{
closed = 1;
nodes = (
(531,426,l),
(511,484,l),
(74,275,l),
(100,221,l)
);
}
);
userData = {
RMXScaler = {
keepStroke = 100;
monoWidth = 600;
useSpacing = 120;
};
};
width = 600;
},
{
layerId = "5EDB8360-C867-4183-822A-D387B21AE085";
shapes = (
{
closed = 1;
nodes = (
(635,-10,o),
(792,134,o),
(792,350,cs),
(792,566,o),
(635,710,o),
(398,710,cs),
(163,710,o),
(7,566,o),
(7,350,cs),
(7,134,o),
(163,-10,o),
(398,-10,cs)
);
},
{
closed = 1;
nodes = (
(320,167,o),
(265,232,o),
(265,350,cs),
(265,468,o),
(320,533,o),
(398,533,cs),
(479,533,o),
(535,468,o),
(535,350,cs),
(535,232,o),
(479,167,o),
(398,167,cs)
);
},
{
closed = 1;
nodes = (
(628,412,l),
(583,506,l),
(171,289,l),
(217,195,l)
);
}
);
userData = {
RMXScaler = {
keepStroke = 100;
monoWidth = 800;
useSpacing = 20;
};
};
width = 800;
},
{
layerId = "936587BF-088D-4F2D-A787-D302E778354F";
shapes = (
{
closed = 1;
nodes = (
(482,-10,o),
(589,123,o),
(589,350,cs),
(589,577,o),
(482,710,o),
(300,710,cs),
(119,710,o),
(12,577,o),
(12,350,cs),
(12,123,o),
(119,-10,o),
(300,-10,cs)
);
},
{
closed = 1;
nodes = (
(241,140,o),
(214,203,o),
(214,350,cs),
(214,497,o),
(241,560,o),
(300,560,cs),
(359,560,o),
(388,499,o),
(388,350,cs),
(388,201,o),
(359,140,o),
(300,140,cs)
);
},
{
closed = 1;
nodes = (
(474,383,l),
(432,477,l),
(101,309,l),
(145,215,l)
);
}
);
userData = {
RMXScaler = {
keepStroke = 30;
monoWidth = 600;
};
};
width = 600;
},
{
layerId = "420CDBF3-1EA9-4A60-A2C9-262C353BE567";
shapes = (
{
closed = 1;
nodes = (
(621,-10,o),
(769,134,o),
(769,349,cs),
(769,565,o),
(621,710,o),
(400,710,cs),
(179,710,o),
(31,565,o),
(31,349,cs),
(31,134,o),
(179,-10,o),
(400,-10,cs)
);
},
{
closed = 1;
nodes = (
(233,66,o),
(122,182,o),
(122,349,cs),
(122,517,o),
(233,634,o),
(400,634,cs),
(567,634,o),
(679,517,o),
(679,349,cs),
(679,182,o),
(567,66,o),
(400,66,cs)
);
},
{
closed = 1;
nodes = (
(692,461,l),
(664,522,l),
(108,238,l),
(137,178,l)
);
}
);
userData = {
RMXScaler = {
monoWidth = 800;
useSpacing = 100;
};
};
width = 800;
}
);
unicode = 48;
userData = {
RMXScaler = {
source = zero;
};
};
},
{
color = 2;
glyphname = one;
layers = (
{
layerId = "49EC3AAF-00BE-4B7E-9333-53C2424A5618";
shapes = (
{
closed = 1;
nodes = (
(343,30,l),
(343,700,l),
(82,580,l),
(82,503,l),
(281,601,l),
(263,624,l),
(263,30,l)
);
},
{
closed = 1;
nodes = (
(534,0,l),
(534,70,l),
(82,70,l),
(82,0,l)
);
}
);
userData = {
RMXScaler = {
keepStroke = 100;
monoWidth = 600;
useSpacing = 120;
};
};
width = 600;
},
{
layerId = "5EDB8360-C867-4183-822A-D387B21AE085";
shapes = (
{
closed = 1;
nodes = (
(541,60,l),
(541,700,l),
(55,583,l),
(55,387,l),
(339,481,l),
(287,555,l),
(287,60,l)
);
},
{
closed = 1;
nodes = (
(795,0,l),
(795,180,l),
(22,180,l),
(22,0,l)
);
}
);
userData = {
RMXScaler = {
keepStroke = 100;
monoWidth = 800;
useSpacing = 120;
};
};
width = 800;
},
{
layerId = "936587BF-088D-4F2D-A787-D302E778354F";
shapes = (
{
closed = 1;
nodes = (
(424,60,l),
(424,700,l),
(63,570,l),
(63,408,l),
(286,508,l),
(209,568,l),
(209,60,l)
);
},
{
closed = 1;
nodes = (
(564,0,l),
(564,155,l),
(59,155,l),
(59,0,l)
);
}
);
userData = {
RMXScaler = {
keepStroke = 100;
monoWidth = 600;
useSpacing = 100;
};
};
width = 600;
},
{
layerId = "420CDBF3-1EA9-4A60-A2C9-262C353BE567";
shapes = (
{
closed = 1;
nodes = (
(451,30,l),
(451,700,l),
(87,540,l),
(87,455,l),
(431,619,l),
(362,637,l),
(362,30,l)
);
},
{
closed = 1;
nodes = (
(728,0,l),
(728,80,l),
(77,80,l),
(77,0,l)
);
}
);
userData = {
RMXScaler = {
monoWidth = 800;
useSpacing = 80;
};
};
width = 800;
}
);
unicode = 49;
userData = {
RMXScaler = {
source = one;
};
};
},
{
color = 2;
glyphname = two;
layers = (
{
layerId = "49EC3AAF-00BE-4B7E-9333-53C2424A5618";
shapes = (
{
closed = 1;
nodes = (
(528,0,l),
(528,70,l),
(196,70,l),
(213,49,l),
(314,163,ls),
(462,330,o),
(511,398,o),
(511,495,cs),
(511,624,o),
(428,710,o),
(286,710,cs),
(177,710,o),
(56,640,o),
(56,489,c),
(136,482,l),
(136,589,o),
(215,639,o),
(286,639,cs),
(379,639,o),
(435,584,o),
(435,492,cs),
(435,422,o),
(402,369,o),
(255,206,cs),
(69,0,l)
);
}
);
userData = {
RMXScaler = {
keepStroke = 100;
monoWidth = 600;
useSpacing = 120;
};
};
width = 600;
},
{
layerId = "5EDB8360-C867-4183-822A-D387B21AE085";
shapes = (
{
closed = 1;
nodes = (
(769,0,l),
(769,180,l),
(309,180,l),
(356,88,l),
(516,182,ls),
(724,304,o),
(743,389,o),
(743,444,cs),
(743,612,o),
(614,710,o),
(396,710,cs),
(176,710,o),
(23,604,o),
(7,448,c),
(232,379,l),
(254,475,o),
(303,534,o),
(384,534,cs),
(455,534,o),
(488,490,o),
(488,447,cs),
(488,412,o),
(465,369,o),
(391,311,cs),
(-6,0,l)
);
}
);
userData = {
RMXScaler = {
keepStroke = 100;
monoWidth = 800;
useSpacing = 100;
};
};
width = 800;
},
{
layerId = "936587BF-088D-4F2D-A787-D302E778354F";
shapes = (
{
closed = 1;
nodes = (
(571,0,l),
(571,160,l),
(226,160,l),
(248,39,l),
(442,268,ls),
(526,367,o),
(559,432,o),
(559,491,cs),
(559,615,o),
(454,710,o),
(285,710,cs),
(119,710,o),
(6,623,o),
(7,474,c),
(205,457,l),
(204,522,o),
(227,558,o),
(278,558,cs),
(321,558,o),
(344,534,o),
(344,488,cs),
(344,462,o),
(331,426,o),
(291,375,cs),
(-3,0,l)
);
}
);
userData = {
RMXScaler = {
keepStroke = 100;
monoWidth = 600;
useSpacing = 60;
};
};
width = 600;
},
{
layerId = "420CDBF3-1EA9-4A60-A2C9-262C353BE567";
shapes = (
{
closed = 1;
nodes = (
(723,0,l),
(723,80,l),
(236,80,l),
(257,55,l),
(446,167,ls),
(655,291,o),
(679,370,o),
(679,466,cs),
(679,612,o),
(553,710,o),
(378,710,cs),
(193,710,o),
(67,617,o),
(33,476,c),
(115,443,l),
(138,558,o),
(232,631,o),
(377,631,cs),
(505,631,o),
(600,565,o),
(600,466,cs),
(600,395,o),
(570,326,o),
(389,217,cs),
(29,0,l)
);
}
);
userData = {
RMXScaler = {
monoWidth = 800;
};
};
width = 800;
}
);
unicode = 50;
userData = {
RMXScaler = {
source = two;
};
};
},
{
color = 2;
glyphname = three;
layers = (
{
layerId = "49EC3AAF-00BE-4B7E-9333-53C2424A5618";
shapes = (
{
closed = 1;
nodes = (
(429,-10,o),
(526,78,o),
(526,193,cs),
(526,316,o),
(440,388,o),
(294,388,cs),
(251,388,l),
(275,346,l),
(520,700,l),
(467,700,l),
(80,700,l),
(80,630,l),
(406,630,l),
(393,646,l),
(181,333,l),
(285,333,ls),
(387,333,o),
(447,282,o),
(447,204,cs),
(447,123,o),
(377,63,o),
(285,63,cs),
(222,63,o),
(145,89,o),
(94,159,c),
(39,103,l),
(103,24,o),
(198,-10,o),
(291,-10,cs)
);
}
);
userData = {
RMXScaler = {
keepStroke = 100;
monoWidth = 600;
useSpacing = 120;
};
};
width = 600;
},
{
layerId = "5EDB8360-C867-4183-822A-D387B21AE085";
shapes = (
{
closed = 1;
nodes = (
(620,-10,o),
(775,63,o),
(775,196,cs),
(775,307,o),
(667,359,o),
(501,359,cs),
(450,359,l),
(471,327,l),
(804,700,l),
(607,700,l),
(40,700,l),
(40,520,l),
(447,520,l),
(385,542,l),
(194,320,l),
(413,320,ls),
(480,320,o),
(528,297,o),
(528,250,cs),
(528,192,o),
(478,165,o),
(388,165,cs),
(302,165,o),
(220,189,o),
(126,257,c),
(15,105,l),
(111,31,o),
(225,-10,o),
(392,-10,cs)
);
}
);
userData = {
RMXScaler = {
keepStroke = 100;
monoWidth = 800;
useSpacing = 100;
};
};
width = 800;
},
{
layerId = "936587BF-088D-4F2D-A787-D302E778354F";
shapes = (
{
closed = 1;
nodes = (
(456,-10,o),
(568,78,o),
(568,209,cs),
(568,324,o),
(482,389,o),
(354,389,cs),
(314,389,l),
(348,319,l),
(585,700,l),
(457,700,l),
(48,700,l),
(48,540,l),
(341,540,l),
(309,605,l),
(135,320,l),
(250,320,ls),
(315,320,o),
(360,282,o),
(360,235,cs),
(360,178,o),
(320,140,o),
(259,140,cs),
(209,140,o),
(161,162,o),
(107,208,c),
(20,79,l),
(84,25,o),
(179,-10,o),
(287,-10,cs)
);
}
);
userData = {
RMXScaler = {
keepStroke = 100;
monoWidth = 600;
useSpacing = 140;
};
};
width = 600;
},
{
layerId = "420CDBF3-1EA9-4A60-A2C9-262C353BE567";
shapes = (
{
closed = 1;
nodes = (
(594,-10,o),
(722,57,o),
(722,192,cs),
(722,299,o),
(624,364,o),
(425,364,cs),
(347,364,l),
(391,340,l),
(723,700,l),
(630,700,l),
(85,700,l),
(85,620,l),
(569,620,l),
(563,645,l),
(278,329,l),
(423,329,ls),
(563,329,o),
(631,290,o),
(631,209,cs),
(631,126,o),
(539,67,o),
(402,67,cs),
(250,67,o),
(165,129,o),
(124,206,c),
(52,157,l),
(105,64,o),
(224,-10,o),
(402,-10,cs)
);
}
);
userData = {
RMXScaler = {
monoWidth = 800;
useSpacing = 80;
};
};
width = 800;
}
);
unicode = 51;
userData = {
RMXScaler = {
source = three;
};
};
},
{
color = 2;
glyphname = four;
layers = (
{
layerId = "49EC3AAF-00BE-4B7E-9333-53C2424A5618";
shapes = (
{
closed = 1;
nodes = (
(566,180,l),
(566,248,l),
(427,248,l),
(110,248,l),
(117,231,l),
(381,700,l),
(298,700,l),
(13,180,l)
);
},
{
closed = 1;
nodes = (
(469,0,l),
(469,513,l),
(392,513,l),
(392,205,l),
(392,0,l)
);
}
);
userData = {
RMXScaler = {
keepStroke = 100;
monoWidth = 600;
useSpacing = 120;
};
};
width = 600;
},
{
layerId = "5EDB8360-C867-4183-822A-D387B21AE085";
shapes = (
{
closed = 1;
nodes = (
(807,122,l),
(807,292,l),
(501,292,l),
(227,292,l),
(256,216,l),
(546,700,l),
(301,700,l),
(-36,122,l)
);
},
{
closed = 1;
nodes = (
(721,0,l),
(721,525,l),
(490,525,l),
(490,231,l),
(490,0,l)
);
}
);
userData = {
RMXScaler = {
keepStroke = 100;
monoWidth = 800;
};
};
width = 800;
},
{
layerId = "936587BF-088D-4F2D-A787-D302E778354F";
shapes = (
{
closed = 1;
nodes = (
(596,154,l),
(596,308,l),
(424,308,l),
(207,308,l),
(232,291,l),
(349,700,l),
(165,700,l),
(-3,154,l)
);
},
{
closed = 1;
nodes = (
(525,0,l),
(525,489,l),
(346,489,l),
(346,248,l),
(346,0,l)
);
}
);
userData = {
RMXScaler = {
keepStroke = 20;
monoWidth = 600;
useSpacing = 20;
};
};
width = 600;
},
{
layerId = "420CDBF3-1EA9-4A60-A2C9-262C353BE567";
shapes = (
{
closed = 1;
nodes = (
(785,177,l),
(785,250,l),
(317,250,l),
(123,250,l),
(142,237,l),
(494,700,l),
(388,700,l),
(-3,177,l)
);
},
{
closed = 1;
nodes = (
(642,0,l),
(642,550,l),
(557,550,l),
(557,220,l),
(557,0,l)
);
}
);
userData = {
RMXScaler = {
monoWidth = 800;
useSpacing = 100;
};
};
width = 800;
}
);
unicode = 52;
userData = {
RMXScaler = {
source = four;
};
};
},
{
color = 2;
glyphname = five;
lastChange = "2026-01-24 08:43:20 +0000";
layers = (
{
layerId = "49EC3AAF-00BE-4B7E-9333-53C2424A5618";
shapes = (
{
closed = 1;
nodes = (
(432,-10,o),
(533,84,o),
(533,231,cs),
(533,361,o),
(448,448,o),
(327,448,cs),
(258,448,o),
(197,420,o),
(162,366,c),
(160,367,l),
(172,663,l),
(158,630,l),
(528,630,l),
(528,700,l),
(98,700,l),
(82,306,l),
(157,296,l),
(184,357,o),
(237,386,o),
(301,386,cs),
(391,386,o),
(455,326,o),
(455,229,cs),
(455,126,o),
(382,63,o),
(284,63,cs),
(224,63,o),
(144,89,o),
(93,159,c),
(37,103,l),
(97,26,o),
(198,-10,o),
(285,-10,cs)
);
}
);
userData = {
RMXScaler = {
keepStroke = 100;
monoWidth = 600;
useSpacing = 120;
};
};
width = 600;
},
{
layerId = "5EDB8360-C867-4183-822A-D387B21AE085";
shapes = (
{
closed = 1;
nodes = (
(624,-10,o),
(785,88,o),
(785,255,cs),
(785,389,o),
(686,472,o),
(531,472,cs),
(403,472,o),
(308,416,o),
(267,319,c),
(264,320,l),
(277,566,l),
(248,520,l),
(752,520,l),
(752,700,l),
(71,700,l),
(48,324,l),
(267,279,l),
(307,309,o),
(371,324,o),
(427,324,cs),
(499,324,o),
(535,299,o),
(535,250,cs),
(535,193,o),
(483,165,o),
(384,165,cs),
(288,165,o),
(204,191,o),
(115,257,c),
(4,105,l),
(96,33,o),
(214,-10,o),
(377,-10,cs)
);
}
);
userData = {
RMXScaler = {
keepStroke = 100;
monoWidth = 800;
useSpacing = 100;
};
};
width = 800;
},
{
layerId = "936587BF-088D-4F2D-A787-D302E778354F";
shapes = (
{
closed = 1;
nodes = (
(442,-10,o),
(574,94,o),
(574,253,cs),
(574,376,o),
(492,454,o),
(389,454,cs),
(326,454,o),
(273,427,o),
(242,371,c),
(239,371,l),
(246,602,l),
(189,540,l),
(548,540,l),
(548,700,l),
(55,700,l),
(43,283,l),
(243,253,l),
(252,292,o),
(273,308,o),
(300,308,cs),
(335,308,o),
(358,280,o),
(358,233,cs),
(358,173,o),
(321,138,o),
(262,138,cs),
(204,138,o),
(148,166,o),
(98,209,c),
(9,79,l),
(69,28,o),
(167,-10,o),
(271,-10,cs)
);
}
);
userData = {
RMXScaler = {
keepStroke = 100;
monoWidth = 600;
useSpacing = -40;
};
};
width = 600;
},
{
layerId = "420CDBF3-1EA9-4A60-A2C9-262C353BE567";
shapes = (
{
closed = 1;
nodes = (
(605,-10,o),
(727,87,o),
(727,232,cs),
(727,371,o),
(609,465,o),
(447,465,cs),
(326,465,o),
(231,412,o),
(184,329,c),
(182,330,l),
(203,659,l),
(168,620,l),
(721,620,l),
(721,700,l),
(121,700,l),
(97,317,l),
(181,303,l),
(233,360,o),
(315,390,o),
(412,390,cs),
(551,390,o),
(638,327,o),
(638,231,cs),
(638,134,o),
(556,67,o),
(392,67,cs),
(255,67,o),
(162,115,o),
(97,192,c),
(38,135,l),
(114,45,o),
(233,-10,o),
(392,-10,cs)
);
}
);
userData = {
RMXScaler = {
monoWidth = 800;
useSpacing = 100;
};
};
width = 800;
}
);
unicode = 53;
userData = {
RMXScaler = {
source = five;
};
};
},
{
color = 2;
glyphname = six;
layers = (
{
layerId = "49EC3AAF-00BE-4B7E-9333-53C2424A5618";
shapes = (
{
closed = 1;
nodes = (
(457,-10,o),
(550,83,o),
(550,224,cs),
(550,360,o),
(460,456,o),
(337,456,cs),
(247,456,o),
(167,406,o),
(138,321,c),
(119,321,l),
(139,238,l),
(136,294,o),
(135,311,o),
(135,336,cs),
(135,526,o),
(216,638,o),
(352,638,cs),
(405,638,o),
(455,622,o),
(493,593,c),
(538,650,l),
(491,688,o),
(424,710,o),
(354,710,cs),
(169,710,o),
(60,573,o),
(60,341,cs),
(60,106,o),
(154,-10,o),
(317,-10,cs)
);
},
{
closed = 1;
nodes = (
(219,61,o),
(158,121,o),
(158,223,cs),
(158,325,o),
(219,386,o),
(317,386,cs),
(415,386,o),
(472,325,o),
(472,223,cs),
(472,121,o),
(416,61,o),
(319,61,cs)
);
}
);
userData = {
RMXScaler = {
keepStroke = 100;
monoWidth = 600;
useSpacing = 120;
};
};
width = 600;
},
{
layerId = "5EDB8360-C867-4183-822A-D387B21AE085";
shapes = (
{
closed = 1;
nodes = (
(644,-10,o),
(797,87,o),
(797,234,cs),
(797,361,o),
(677,445,o),
(508,445,cs),
(376,445,o),
(271,392,o),
(246,307,c),
(227,307,l),
(244,275,l),
(244,306,o),
(244,310,o),
(244,327,cs),
(244,469,o),
(316,533,o),
(475,533,cs),
(541,533,o),
(606,517,o),
(681,474,c),
(799,620,l),
(709,677,o),
(595,710,o),
(462,710,cs),
(190,710,o),
(4,572,o),
(4,342,cs),
(4,121,o),
(159,-10,o),
(420,-10,cs)
);
},
{
closed = 1;
nodes = (
(310,140,o),
(250,174,o),
(250,234,cs),
(250,293,o),
(309,326,o),
(407,326,cs),
(505,326,o),
(564,293,o),
(564,234,cs),
(564,174,o),
(505,140,o),
(408,140,cs)
);
}
);
userData = {
RMXScaler = {
keepStroke = 100;
monoWidth = 800;
useSpacing = 100;
};
};
width = 800;
},
{
layerId = "936587BF-088D-4F2D-A787-D302E778354F";
shapes = (
{
closed = 1;
nodes = (
(474,-10,o),
(583,89,o),
(583,239,cs),
(583,374,o),
(502,453,o),
(383,453,cs),
(313,453,o),
(256,418,o),
(224,360,c),
(199,360,l),
(219,248,l),
(221,331,o),
(221,336,o),
(221,341,cs),
(221,494,o),
(255,561,o),
(334,561,cs),
(368,561,o),
(397,541,o),
(417,500,c),
(576,567,l),
(535,657,o),
(447,710,o),
(328,710,cs),
(112,710,o),
(18,535,o),
(18,349,cs),
(18,123,o),
(125,-10,o),
(313,-10,cs)
);
},
{
closed = 1;
nodes = (
(262,127,o),
(230,167,o),
(230,232,cs),
(230,293,o),
(262,336,o),
(310,336,cs),
(355,336,o),
(387,293,o),
(387,232,cs),
(387,167,o),
(355,127,o),
(310,127,cs)
);
}
);
userData = {
RMXScaler = {
keepStroke = 70;
monoWidth = 600;
useSpacing = 10;
};
};
width = 600;
},
{
layerId = "420CDBF3-1EA9-4A60-A2C9-262C353BE567";
shapes = (
{
closed = 1;
nodes = (
(613,-10,o),
(742,84,o),
(742,225,cs),
(742,363,o),
(618,456,o),
(456,456,cs),
(290,456,o),
(176,372,o),
(157,255,c),
(142,255,l),
(156,207,l),
(153,296,o),
(150,311,o),
(150,341,cs),
(150,523,o),
(251,636,o),
(450,636,cs),
(534,636,o),
(609,614,o),
(660,555,c),
(720,606,l),
(656,679,o),
(560,710,o),
(447,710,cs),
(208,710,o),
(64,565,o),
(64,340,cs),
(64,119,o),
(192,-10,o),
(424,-10,cs)
);
},
{
closed = 1;
nodes = (
(278,64,o),
(183,130,o),
(183,224,cs),
(183,319,o),
(278,381,o),
(422,381,cs),
(562,381,o),
(655,319,o),
(655,224,cs),
(655,130,o),
(563,64,o),
(424,64,cs)
);
}
);
userData = {
RMXScaler = {
monoWidth = 800;
useSpacing = 100;
};
};
width = 800;
}
);
unicode = 54;
userData = {
RMXScaler = {
source = six;
};
};
},
{
color = 2;
glyphname = seven;
layers = (
{
layerId = "49EC3AAF-00BE-4B7E-9333-53C2424A5618";
shapes = (
{
closed = 1;
nodes = (
(246,0,l),
(547,700,l),
(88,700,l),
(88,630,l),
(444,630,l),
(443,650,l),
(155,0,l)
);
}
);
userData = {
RMXScaler = {
keepStroke = 100;
monoWidth = 600;
useSpacing = 120;
};
};
width = 600;
},
{
layerId = "5EDB8360-C867-4183-822A-D387B21AE085";
shapes = (
{
closed = 1;
nodes = (
(345,0,l),
(841,700,l),
(1,700,l),
(1,520,l),
(463,520,l),
(461,532,l),
(50,0,l)
);
}
);
userData = {
RMXScaler = {
keepStroke = 100;
monoWidth = 800;
useSpacing = 100;
};
};
width = 800;
},
{
layerId = "936587BF-088D-4F2D-A787-D302E778354F";
shapes = (
{
closed = 1;
nodes = (
(308,0,l),
(600,700,l),
(24,700,l),
(24,540,l),
(350,540,l),
(342,565,l),
(86,0,l)
);
}
);
userData = {
RMXScaler = {
keepStroke = 100;
monoWidth = 600;
useSpacing = 60;
};
};
width = 600;
},
{
layerId = "420CDBF3-1EA9-4A60-A2C9-262C353BE567";
shapes = (
{
closed = 1;
nodes = (
(289,0,l),
(760,700,l),
(87,700,l),
(87,620,l),
(613,620,l),
(602,624,l),
(170,0,l)
);
}
);
userData = {
RMXScaler = {
monoWidth = 800;
useSpacing = 100;
};
};
width = 800;
}
);
unicode = 55;
userData = {
RMXScaler = {
source = seven;
};
};
},
{
color = 2;
glyphname = eight;
layers = (
{
layerId = "49EC3AAF-00BE-4B7E-9333-53C2424A5618";
shapes = (
{
closed = 1;
nodes = (
(449,-10,o),
(548,70,o),
(548,182,cs),
(548,273,o),
(490,340,o),
(402,363,c),
(402,365,l),
(474,388,o),
(522,450,o),
(522,532,cs),
(522,642,o),
(430,710,o),
(299,710,cs),
(168,710,o),
(77,641,o),
(77,532,cs),
(77,450,o),
(125,389,o),
(197,365,c),
(197,363,l),
(110,340,o),
(52,273,o),
(52,182,cs),
(52,70,o),
(151,-10,o),
(300,-10,cs)
);
},
{
closed = 1;
nodes = (
(196,60,o),
(130,110,o),
(130,193,cs),
(130,276,o),
(196,326,o),
(300,326,cs),
(404,326,o),
(470,276,o),
(470,193,cs),
(470,110,o),
(404,60,o),
(300,60,cs)
);
},
{
closed = 1;
nodes = (
(210,397,o),
(155,443,o),
(155,520,cs),
(155,595,o),
(210,640,o),
(300,640,cs),
(390,640,o),
(444,595,o),
(444,520,cs),
(444,443,o),
(390,397,o),
(300,397,cs)
);
}
);
userData = {
RMXScaler = {
keepStroke = 100;
monoWidth = 600;
useSpacing = 120;
};
};
width = 600;
},
{
layerId = "5EDB8360-C867-4183-822A-D387B21AE085";
shapes = (
{
closed = 1;
nodes = (
(654,-10,o),
(812,60,o),
(812,185,cs),
(812,280,o),
(724,345,o),
(523,357,c),
(523,360,l),
(701,374,o),
(771,439,o),
(771,523,cs),
(771,645,o),
(628,710,o),
(400,710,cs),
(168,710,o),
(30,641,o),
(30,525,cs),
(30,439,o),
(106,374,o),
(280,360,c),
(280,357,l),
(77,346,o),
(-9,280,o),
(-9,185,cs),
(-9,59,o),
(148,-10,o),
(400,-10,cs)
);
},
{
closed = 1;
nodes = (
(309,149,o),
(253,177,o),
(253,226,cs),
(253,274,o),
(309,302,o),
(403,302,cs),
(495,302,o),
(550,274,o),
(550,226,cs),
(550,177,o),
(495,149,o),
(403,149,cs)
);
},
{
closed = 1;
nodes = (
(319,416,o),
(269,442,o),
(269,485,cs),
(269,530,o),
(319,556,o),
(404,556,cs),
(486,556,o),
(535,530,o),
(535,485,cs),
(535,442,o),
(486,416,o),
(404,416,cs)
);
}
);
userData = {
RMXScaler = {
keepStroke = 100;
monoWidth = 800;
useSpacing = 100;
};
};
width = 800;
},
{
layerId = "936587BF-088D-4F2D-A787-D302E778354F";
shapes = (
{
closed = 1;
nodes = (
(482,-10,o),
(592,71,o),
(592,195,cs),
(592,273,o),
(545,338,o),
(451,364,c),
(451,367,l),
(529,393,o),
(563,452,o),
(563,520,cs),
(563,635,o),
(468,710,o),
(299,710,cs),
(133,710,o),
(37,635,o),
(37,520,cs),
(37,452,o),
(72,392,o),
(152,367,c),
(152,364,l),
(57,338,o),
(11,273,o),
(11,195,cs),
(11,71,o),
(119,-10,o),
(299,-10,cs)
);
},
{
closed = 1;
nodes = (
(258,139,o),
(232,172,o),
(232,225,cs),
(232,279,o),
(259,310,o),
(303,310,cs),
(346,310,o),
(371,278,o),
(371,225,cs),
(371,172,o),
(346,139,o),
(303,139,cs)
);
},
{
closed = 1;
nodes = (
(262,410,o),
(238,439,o),
(238,487,cs),
(238,535,o),
(262,564,o),
(303,564,cs),
(342,564,o),
(364,535,o),
(364,487,cs),
(364,439,o),
(342,410,o),
(303,410,cs)
);
}
);
userData = {
RMXScaler = {
keepStroke = 100;
monoWidth = 600;
useSpacing = 60;
};
};
width = 600;
},
{
layerId = "420CDBF3-1EA9-4A60-A2C9-262C353BE567";
shapes = (
{
closed = 1;
nodes = (
(606,-10,o),
(745,63,o),
(745,186,cs),
(745,279,o),
(664,348,o),
(512,361,c),
(512,364,l),
(640,377,o),
(708,438,o),
(708,525,cs),
(708,642,o),
(583,710,o),
(400,710,cs),
(215,710,o),
(92,640,o),
(92,525,cs),
(92,437,o),
(169,377,o),
(292,364,c),
(292,361,l),
(136,349,o),
(55,280,o),
(55,186,cs),
(55,64,o),
(192,-10,o),
(400,-10,cs)
);
},
{
closed = 1;
nodes = (
(243,66,o),
(144,115,o),
(144,195,cs),
(144,274,o),
(242,323,o),
(400,323,cs),
(557,323,o),
(656,275,o),
(656,195,cs),
(656,115,o),
(557,66,o),
(400,66,cs)
);
},
{
closed = 1;
nodes = (
(264,399,o),
(180,444,o),
(180,518,cs),
(180,590,o),
(264,634,o),
(400,634,cs),
(535,634,o),
(619,590,o),
(619,518,cs),
(619,444,o),
(535,399,o),
(400,399,cs)
);
}
);
userData = {
RMXScaler = {
monoWidth = 800;
useSpacing = 100;
};
};
width = 800;
}
);
unicode = 56;
userData = {
RMXScaler = {
source = eight;
};
};
},
{
color = 2;
glyphname = nine;
lastChange = "2026-01-24 08:43:28 +0000";
layers = (
{
layerId = "49EC3AAF-00BE-4B7E-9333-53C2424A5618";
shapes = (
{
closed = 1;
nodes = (
(431,-10,o),
(540,127,o),
(540,359,cs),
(540,594,o),
(446,710,o),
(283,710,cs),
(143,710,o),
(50,617,o),
(50,476,cs),
(50,340,o),
(140,244,o),
(263,244,cs),
(353,244,o),
(433,294,o),
(462,379,c),
(481,379,l),
(461,462,l),
(464,406,o),
(465,389,o),
(465,364,cs),
(465,174,o),
(384,62,o),
(248,62,cs),
(195,62,o),
(145,78,o),
(107,107,c),
(62,50,l),
(109,12,o),
(176,-10,o),
(246,-10,cs)
);
},
{
closed = 1;
nodes = (
(185,314,o),
(128,375,o),
(128,477,cs),
(128,579,o),
(184,639,o),
(281,639,cs),
(381,639,o),
(442,579,o),
(442,477,cs),
(442,375,o),
(381,314,o),
(283,314,cs)
);
}
);
userData = {
RMXScaler = {
keepStroke = 100;
monoWidth = 600;
useSpacing = 120;
};
};
width = 600;
},
{
layerId = "5EDB8360-C867-4183-822A-D387B21AE085";
shapes = (
{
closed = 1;
nodes = (
(610,-10,o),
(796,128,o),
(796,358,cs),
(796,579,o),
(641,710,o),
(380,710,cs),
(156,710,o),
(3,613,o),
(3,466,cs),
(3,339,o),
(123,255,o),
(292,255,cs),
(424,255,o),
(529,308,o),
(554,393,c),
(573,393,l),
(556,425,l),
(556,394,o),
(556,390,o),
(556,373,cs),
(556,231,o),
(484,167,o),
(325,167,cs),
(259,167,o),
(194,183,o),
(119,226,c),
(1,80,l),
(91,23,o),
(205,-10,o),
(338,-10,cs)
);
},
{
closed = 1;
nodes = (
(295,374,o),
(236,407,o),
(236,466,cs),
(236,526,o),
(295,560,o),
(392,560,cs),
(490,560,o),
(550,526,o),
(550,466,cs),
(550,407,o),
(491,374,o),
(393,374,cs)
);
}
);
userData = {
RMXScaler = {
keepStroke = 100;
monoWidth = 800;
useSpacing = 100;
};
};
width = 800;
},
{
layerId = "936587BF-088D-4F2D-A787-D302E778354F";
shapes = (
{
closed = 1;
nodes = (
(489,-10,o),
(583,165,o),
(583,351,cs),
(583,577,o),
(476,710,o),
(288,710,cs),
(127,710,o),
(18,611,o),
(18,461,cs),
(18,326,o),
(99,247,o),
(218,247,cs),
(288,247,o),
(345,282,o),
(377,340,c),
(402,340,l),
(382,452,l),
(380,369,o),
(380,364,o),
(380,359,cs),
(380,206,o),
(346,139,o),
(267,139,cs),
(233,139,o),
(204,159,o),
(184,200,c),
(25,133,l),
(66,43,o),
(154,-10,o),
(273,-10,cs)
);
},
{
closed = 1;
nodes = (
(246,364,o),
(214,407,o),
(214,468,cs),
(214,533,o),
(246,573,o),
(291,573,cs),
(339,573,o),
(371,533,o),
(371,468,cs),
(371,407,o),
(339,364,o),
(291,364,cs)
);
}
);
userData = {
RMXScaler = {
keepStroke = 70;
monoWidth = 600;
useSpacing = 10;
};
};
width = 600;
},
{
layerId = "420CDBF3-1EA9-4A60-A2C9-262C353BE567";
shapes = (
{
closed = 1;
nodes = (
(592,-10,o),
(736,135,o),
(736,360,cs),
(736,581,o),
(608,710,o),
(376,710,cs),
(187,710,o),
(58,616,o),
(58,475,cs),
(58,337,o),
(182,244,o),
(344,244,cs),
(510,244,o),
(624,328,o),
(643,445,c),
(658,445,l),
(644,493,l),
(647,404,o),
(650,389,o),
(650,359,cs),
(650,177,o),
(549,64,o),
(350,64,cs),
(266,64,o),
(191,86,o),
(140,145,c),
(80,94,l),
(144,21,o),
(240,-10,o),
(353,-10,cs)
);
},
{
closed = 1;
nodes = (
(238,319,o),
(145,381,o),
(145,476,cs),
(145,570,o),
(237,636,o),
(376,636,cs),
(522,636,o),
(617,570,o),
(617,476,cs),
(617,381,o),
(522,319,o),
(378,319,cs)
);
}
);
userData = {
RMXScaler = {
monoWidth = 800;
useSpacing = 100;
};
};
width = 800;
}
);
unicode = 57;
userData = {
RMXScaler = {
source = nine;
};
};
},
{
glyphname = zero.dnom;
kernLeft = zero.dnom;
kernRight = zero.dnom;
lastChange = "2026-01-23 20:50:18 +0000";
layers = (
{
layerId = "5EDB8360-C867-4183-822A-D387B21AE085";
shapes = (
{
closed = 1;
nodes = (
(442,-6,o),
(549,80,o),
(549,210,cs),
(549,340,o),
(441,426,o),
(281,426,cs),
(120,426,o),
(14,339,o),
(14,210,cs),
(14,81,o),
(120,-6,o),
(281,-6,cs)
);
},
{
closed = 1;
nodes = (
(214,102,o),
(168,140,o),
(168,210,cs),
(168,280,o),
(213,318,o),
(281,318,cs),
(348,318,o),
(395,280,o),
(395,210,cs),
(395,140,o),
(348,102,o),
(281,102,cs)
);
},
{
closed = 1;
nodes = (
(448,246,l),
(419,303,l),
(115,174,l),
(144,117,l)
);
}
);
userData = {
RMXScaler = {
height = 60;
weight = -350;
width = 60;
};
};
width = 563;
},
{
layerId = "420CDBF3-1EA9-4A60-A2C9-262C353BE567";
shapes = (
{
closed = 1;
nodes = (
(409,-6,o),
(503,80,o),
(503,210,cs),
(503,339,o),
(409,426,o),
(269,426,cs),
(128,426,o),
(34,340,o),
(34,210,cs),
(34,80,o),
(128,-6,o),
(269,-6,cs)
);
},
{
closed = 1;
nodes = (
(178,58,o),
(118,119,o),
(118,210,cs),
(118,301,o),
(178,362,o),
(269,362,cs),
(359,362,o),
(420,301,o),
(420,210,cs),
(420,118,o),
(359,58,o),
(269,58,cs)
);
},
{
closed = 1;
nodes = (
(441,268,l),
(421,310,l),
(96,152,l),
(117,110,l)
);
}
);
userData = {
RMXScaler = {
height = 60;
weight = -70;
width = 60;
};
};
width = 537;
},
{
layerId = "49EC3AAF-00BE-4B7E-9333-53C2424A5618";
shapes = (
{
closed = 1;
nodes = (
(301,-6,o),
(363,77,o),
(363,210,cs),
(363,343,o),
(301,426,o),
(199,426,cs),
(98,426,o),
(35,344,o),
(35,210,cs),
(35,77,o),
(97,-6,o),
(199,-6,cs)
);
},
{
closed = 1;
nodes = (
(138,50,o),
(104,105,o),
(104,210,cs),
(104,315,o),
(138,370,o),
(199,370,cs),
(260,370,o),
(294,315,o),
(294,210,cs),
(294,104,o),
(260,50,o),
(199,50,cs)
);
},
{
closed = 1;
nodes = (
(330,249,l),
(314,289,l),
(66,170,l),
(85,132,l)
);
}
);
userData = {
RMXScaler = {
height = 60;
weight = -80;
width = 60;
};
};
width = 399;
},
{
layerId = "936587BF-088D-4F2D-A787-D302E778354F";
shapes = (
{
closed = 1;
nodes = (
(327,-6,o),
(398,73,o),
(398,210,cs),
(398,346,o),
(327,426,o),
(206,426,cs),
(86,426,o),
(15,346,o),
(15,210,cs),
(15,74,o),
(86,-6,o),
(206,-6,cs)
);
},
{
closed = 1;
nodes = (
(167,86,o),
(148,122,o),
(148,210,cs),
(148,298,o),
(167,334,o),
(206,334,cs),
(246,334,o),
(266,299,o),
(266,210,cs),
(266,121,o),
(246,86,o),
(206,86,cs)
);
},
{
closed = 1;
nodes = (
(323,229,l),
(295,286,l),
(74,186,l),
(102,129,l)
);
}
);
userData = {
RMXScaler = {
height = 60;
weight = -350;
width = 60;
};
};
width = 413;
}
);
userData = {
RMXScaler = {
source = zero;
};
};
},
{
glyphname = one.dnom;
kernLeft = zero.dnom;
kernRight = zero.dnom;
lastChange = "2026-01-23 20:50:18 +0000";
layers = (
{
layerId = "5EDB8360-C867-4183-822A-D387B21AE085";
shapes = (
{
closed = 1;
nodes = (
(328,37,l),
(328,420,l),
(33,351,l),
(33,231,l),
(203,286,l),
(172,331,l),
(172,37,l)
);
},
{
closed = 1;
nodes = (
(481,0,l),
(481,110,l),
(13,110,l),
(13,0,l)
);
}
);
userData = {
RMXScaler = {
height = 60;
weight = -350;
width = 60;
};
};
width = 488;
},
{
layerId = "420CDBF3-1EA9-4A60-A2C9-262C353BE567";
shapes = (
{
closed = 1;
nodes = (
(280,23,l),
(280,420,l),
(42,332,l),
(42,261,l),
(234,347,l),
(197,367,l),
(197,23,l)
);
},
{
closed = 1;
nodes = (
(439,0,l),
(439,66,l),
(32,66,l),
(32,0,l)
);
}
);
userData = {
RMXScaler = {
height = 60;
weight = -70;
width = 60;
};
};
width = 455;
},
{
layerId = "49EC3AAF-00BE-4B7E-9333-53C2424A5618";
shapes = (
{
closed = 1;
nodes = (
(211,23,l),
(211,420,l),
(34,346,l),
(34,287,l),
(161,346,l),
(141,365,l),
(141,23,l)
);
},
{
closed = 1;
nodes = (
(322,0,l),
(322,56,l),
(33,56,l),
(33,0,l)
);
}
);
userData = {
RMXScaler = {
height = 60;
weight = -80;
width = 60;
};
};
width = 336;
},
{
layerId = "936587BF-088D-4F2D-A787-D302E778354F";
shapes = (
{
closed = 1;
nodes = (
(238,37,l),
(238,420,l),
(19,342,l),
(19,243,l),
(154,303,l),
(106,340,l),
(106,37,l)
);
},
{
closed = 1;
nodes = (
(321,0,l),
(321,95,l),
(17,95,l),
(17,0,l)
);
}
);
userData = {
RMXScaler = {
height = 60;
weight = -350;
width = 60;
};
};
width = 327;
}
);
userData = {
RMXScaler = {
source = one;
};
};
},
{
glyphname = two.dnom;
kernLeft = zero.dnom;
kernRight = zero.dnom;
lastChange = "2026-01-23 20:50:18 +0000";
layers = (
{
layerId = "5EDB8360-C867-4183-822A-D387B21AE085";
shapes = (
{
closed = 1;
nodes = (
(473,0,l),
(473,110,l),
(197,110,l),
(226,53,l),
(324,111,ls),
(446,183,o),
(458,234,o),
(458,266,cs),
(458,367,o),
(381,426,o),
(248,426,cs),
(117,426,o),
(36,363,o),
(14,268,c),
(142,229,l),
(159,284,o),
(194,318,o),
(241,318,cs),
(282,318,o),
(301,292,o),
(301,268,cs),
(301,247,o),
(287,222,o),
(243,187,cs),
(6,0,l)
);
}
);
userData = {
RMXScaler = {
height = 60;
weight = -350;
width = 60;
};
};
width = 489;
},
{
layerId = "420CDBF3-1EA9-4A60-A2C9-262C353BE567";
shapes = (
{
closed = 1;
nodes = (
(444,0,l),
(444,66,l),
(163,66,l),
(180,39,l),
(286,103,ls),
(407,176,o),
(421,224,o),
(421,276,cs),
(421,367,o),
(347,426,o),
(236,426,cs),
(119,426,o),
(45,367,o),
(25,281,c),
(98,255,l),
(112,319,o),
(160,361,o),
(233,361,cs),
(298,361,o),
(341,325,o),
(341,276,cs),
(341,241,o),
(325,204,o),
(240,147,cs),
(21,0,l)
);
}
);
userData = {
RMXScaler = {
height = 60;
weight = -70;
width = 60;
};
};
width = 470;
},
{
layerId = "49EC3AAF-00BE-4B7E-9333-53C2424A5618";
shapes = (
{
closed = 1;
nodes = (
(323,0,l),
(323,56,l),
(120,56,l),
(131,28,l),
(207,114,ls),
(285,202,o),
(314,244,o),
(314,296,cs),
(314,373,o),
(261,426,o),
(170,426,cs),
(94,426,o),
(23,381,o),
(23,291,c),
(90,285,l),
(90,343,o),
(129,370,o),
(169,370,cs),
(217,370,o),
(246,342,o),
(246,295,cs),
(246,260,o),
(226,229,o),
(161,154,cs),
(28,0,l)
);
}
);
userData = {
RMXScaler = {
height = 60;
weight = -80;
width = 60;
};
};
width = 353;
},
{
layerId = "936587BF-088D-4F2D-A787-D302E778354F";
shapes = (
{
closed = 1;
nodes = (
(350,0,l),
(350,98,l),
(145,98,l),
(158,23,l),
(271,157,ls),
(325,221,o),
(343,260,o),
(343,295,cs),
(343,369,o),
(280,426,o),
(179,426,cs),
(79,426,o),
(11,373,o),
(12,284,c),
(134,274,l),
(133,312,o),
(146,333,o),
(175,333,cs),
(199,333,o),
(211,319,o),
(211,293,cs),
(211,277,o),
(204,255,o),
(183,228,cs),
(6,0,l)
);
}
);
userData = {
RMXScaler = {
height = 60;
weight = -350;
width = 60;
};
};
width = 364;
}
);
userData = {
RMXScaler = {
source = two;
};
};
},
{
glyphname = three.dnom;
kernLeft = zero.dnom;
kernRight = zero.dnom;
lastChange = "2026-01-23 20:50:18 +0000";
layers = (
{
layerId = "5EDB8360-C867-4183-822A-D387B21AE085";
shapes = (
{
closed = 1;
nodes = (
(373,-6,o),
(467,38,o),
(467,118,cs),
(467,184,o),
(402,215,o),
(303,215,cs),
(273,215,l),
(285,196,l),
(485,420,l),
(365,420,l),
(24,420,l),
(24,310,l),
(267,310,l),
(228,323,l),
(116,192,l),
(249,192,ls),
(288,192,o),
(316,178,o),
(316,151,cs),
(316,117,o),
(287,101,o),
(233,101,cs),
(182,101,o),
(133,115,o),
(76,155,c),
(9,62,l),
(67,18,o),
(136,-6,o),
(236,-6,cs)
);
}
);
userData = {
RMXScaler = {
height = 60;
weight = -350;
width = 60;
};
};
width = 490;
},
{
layerId = "420CDBF3-1EA9-4A60-A2C9-262C353BE567";
shapes = (
{
closed = 1;
nodes = (
(352,-6,o),
(433,35,o),
(433,116,cs),
(433,181,o),
(374,218,o),
(263,218,cs),
(222,218,l),
(244,202,l),
(440,420,l),
(365,420,l),
(40,420,l),
(40,354,l),
(311,354,l),
(297,368,l),
(146,196,l),
(246,196,ls),
(315,196,o),
(351,175,o),
(351,133,cs),
(351,88,o),
(305,58,o),
(232,58,cs),
(154,58,o),
(105,90,o),
(72,133,c),
(22,85,l),
(61,33,o),
(130,-6,o),
(233,-6,cs)
);
}
);
userData = {
RMXScaler = {
height = 60;
weight = -70;
width = 60;
};
};
width = 463;
},
{
layerId = "49EC3AAF-00BE-4B7E-9333-53C2424A5618";
shapes = (
{
closed = 1;
nodes = (
(263,-6,o),
(325,47,o),
(325,118,cs),
(325,191,o),
(272,233,o),
(185,233,cs),
(159,233,l),
(176,203,l),
(325,420,l),
(281,420,l),
(40,420,l),
(40,364,l),
(235,364,l),
(225,381,l),
(100,198,l),
(166,198,ls),
(223,198,o),
(258,169,o),
(258,127,cs),
(258,82,o),
(219,50,o),
(167,50,cs),
(130,50,o),
(88,65,o),
(56,103,c),
(17,58,l),
(56,15,o),
(114,-6,o),
(174,-6,cs)
);
}
);
userData = {
RMXScaler = {
height = 60;
weight = -80;
width = 60;
};
};
width = 354;
},
{
layerId = "936587BF-088D-4F2D-A787-D302E778354F";
shapes = (
{
closed = 1;
nodes = (
(273,-6,o),
(342,47,o),
(342,126,cs),
(342,194,o),
(289,233,o),
(210,233,cs),
(185,233,l),
(206,191,l),
(352,420,l),
(273,420,l),
(22,420,l),
(22,322,l),
(203,322,l),
(183,362,l),
(76,192,l),
(146,192,ls),
(187,192,o),
(214,169,o),
(214,142,cs),
(214,108,o),
(189,86,o),
(152,86,cs),
(122,86,o),
(91,99,o),
(58,126,c),
(5,47,l),
(45,15,o),
(102,-6,o),
(169,-6,cs)
);
}
);
userData = {
RMXScaler = {
height = 60;
weight = -350;
width = 60;
};
};
width = 359;
}
);
userData = {
RMXScaler = {
source = three;
};
};
},
{
glyphname = four.dnom;
kernLeft = zero.dnom;
kernRight = zero.dnom;
lastChange = "2026-01-23 20:50:18 +0000";
layers = (
{
layerId = "5EDB8360-C867-4183-822A-D387B21AE085";
shapes = (
{
closed = 1;
nodes = (
(552,72,l),
(552,176,l),
(337,176,l),
(164,176,l),
(182,129,l),
(378,420,l),
(229,420,l),
(2,72,l)
);
},
{
closed = 1;
nodes = (
(491,0,l),
(491,314,l),
(351,314,l),
(351,139,l),
(351,0,l)
);
}
);
userData = {
RMXScaler = {
height = 60;
weight = -350;
width = 60;
};
};
width = 566;
},
{
layerId = "420CDBF3-1EA9-4A60-A2C9-262C353BE567";
shapes = (
{
closed = 1;
nodes = (
(504,96,l),
(504,158,l),
(243,158,l),
(110,158,l),
(123,138,l),
(330,420,l),
(241,420,l),
(9,96,l)
);
},
{
closed = 1;
nodes = (
(426,0,l),
(426,326,l),
(349,326,l),
(349,134,l),
(349,0,l)
);
}
);
userData = {
RMXScaler = {
height = 60;
weight = -70;
width = 60;
};
};
width = 524;
},
{
layerId = "49EC3AAF-00BE-4B7E-9333-53C2424A5618";
shapes = (
{
closed = 1;
nodes = (
(366,104,l),
(366,158,l),
(275,158,l),
(95,158,l),
(105,148,l),
(243,420,l),
(173,420,l),
(16,104,l)
);
},
{
closed = 1;
nodes = (
(311,0,l),
(311,304,l),
(246,304,l),
(246,130,l),
(246,0,l)
);
}
);
userData = {
RMXScaler = {
height = 60;
weight = -80;
width = 60;
};
};
width = 385;
},
{
layerId = "936587BF-088D-4F2D-A787-D302E778354F";
shapes = (
{
closed = 1;
nodes = (
(406,92,l),
(406,186,l),
(291,186,l),
(145,186,l),
(168,176,l),
(247,420,l),
(117,420,l),
(4,92,l)
);
},
{
closed = 1;
nodes = (
(359,0,l),
(359,293,l),
(239,293,l),
(239,150,l),
(239,0,l)
);
}
);
userData = {
RMXScaler = {
height = 60;
weight = -350;
width = 60;
};
};
width = 417;
}
);
userData = {
RMXScaler = {
source = four;
};
};
},
{
glyphname = five.dnom;
kernLeft = zero.dnom;
kernRight = zero.dnom;
lastChange = "2026-01-23 20:50:18 +0000";
layers = (
{
layerId = "5EDB8360-C867-4183-822A-D387B21AE085";
shapes = (
{
closed = 1;
nodes = (
(376,-6,o),
(473,53,o),
(473,153,cs),
(473,234,o),
(413,283,o),
(322,283,cs),
(247,283,o),
(189,252,o),
(164,194,c),
(161,194,l),
(169,338,l),
(152,310,l),
(453,310,l),
(453,420,l),
(43,420,l),
(29,195,l),
(163,167,l),
(186,184,o),
(225,193,o),
(258,193,cs),
(299,193,o),
(320,179,o),
(320,150,cs),
(320,117,o),
(289,101,o),
(232,101,cs),
(176,101,o),
(125,116,o),
(71,156,c),
(3,62,l),
(59,19,o),
(130,-6,o),
(227,-6,cs)
);
}
);
userData = {
RMXScaler = {
height = 60;
weight = -350;
width = 60;
};
};
width = 487;
},
{
layerId = "420CDBF3-1EA9-4A60-A2C9-262C353BE567";
shapes = (
{
closed = 1;
nodes = (
(369,-6,o),
(449,53,o),
(449,143,cs),
(449,226,o),
(381,280,o),
(286,280,cs),
(212,280,o),
(156,248,o),
(129,198,c),
(126,199,l),
(137,379,l),
(118,354,l),
(441,354,l),
(441,420,l),
(66,420,l),
(52,191,l),
(126,177,l),
(156,207,o),
(201,222,o),
(252,222,cs),
(324,222,o),
(367,191,o),
(367,142,cs),
(367,91,o),
(323,58,o),
(236,58,cs),
(161,58,o),
(107,83,o),
(64,127,c),
(19,76,l),
(67,25,o),
(139,-6,o),
(235,-6,cs)
);
}
);
userData = {
RMXScaler = {
height = 60;
weight = -70;
width = 60;
};
};
width = 483;
},
{
layerId = "49EC3AAF-00BE-4B7E-9333-53C2424A5618";
shapes = (
{
closed = 1;
nodes = (
(271,-6,o),
(338,52,o),
(338,142,cs),
(338,220,o),
(286,270,o),
(215,270,cs),
(173,270,o),
(138,253,o),
(117,222,c),
(115,224,l),
(121,388,l),
(106,364,l),
(332,364,l),
(332,420,l),
(58,420,l),
(49,180,l),
(114,171,l),
(128,204,o),
(156,219,o),
(190,219,cs),
(237,219,o),
(270,188,o),
(270,138,cs),
(270,83,o),
(230,50,o),
(176,50,cs),
(139,50,o),
(93,66,o),
(62,103,c),
(23,58,l),
(60,16,o),
(121,-6,o),
(178,-6,cs)
);
}
);
userData = {
RMXScaler = {
height = 60;
weight = -80;
width = 60;
};
};
width = 371;
},
{
layerId = "936587BF-088D-4F2D-A787-D302E778354F";
shapes = (
{
closed = 1;
nodes = (
(279,-6,o),
(362,57,o),
(362,152,cs),
(362,227,o),
(309,273,o),
(242,273,cs),
(202,273,o),
(168,256,o),
(148,224,c),
(146,224,l),
(151,360,l),
(116,322,l),
(347,322,l),
(347,420,l),
(34,420,l),
(27,169,l),
(148,151,l),
(155,174,o),
(170,183,o),
(189,183,cs),
(215,183,o),
(231,167,o),
(231,140,cs),
(231,105,o),
(206,84,o),
(166,84,cs),
(129,84,o),
(92,100,o),
(59,126,c),
(4,47,l),
(42,17,o),
(105,-6,o),
(171,-6,cs)
);
}
);
userData = {
RMXScaler = {
height = 60;
weight = -350;
width = 60;
};
};
width = 374;
}
);
userData = {
RMXScaler = {
source = five;
};
};
},
{
glyphname = six.dnom;
kernLeft = zero.dnom;
kernRight = zero.dnom;
lastChange = "2026-01-23 20:50:18 +0000";
layers = (
{
layerId = "5EDB8360-C867-4183-822A-D387B21AE085";
shapes = (
{
closed = 1;
nodes = (
(399,-6,o),
(492,52,o),
(492,141,cs),
(492,217,o),
(420,267,o),
(319,267,cs),
(241,267,o),
(180,237,o),
(163,190,c),
(161,190,l),
(161,191,o),
(161,194,o),
(161,196,cs),
(161,281,o),
(204,318,o),
(298,318,cs),
(339,318,o),
(377,308,o),
(422,283,c),
(494,372,l),
(439,406,o),
(371,426,o),
(290,426,cs),
(126,426,o),
(14,343,o),
(14,205,cs),
(14,73,o),
(107,-6,o),
(265,-6,cs)
);
},
{
closed = 1;
nodes = (
(199,86,o),
(164,106,o),
(164,141,cs),
(164,175,o),
(199,194,o),
(257,194,cs),
(314,194,o),
(349,175,o),
(349,141,cs),
(349,106,o),
(315,86,o),
(257,86,cs)
);
}
);
userData = {
RMXScaler = {
height = 60;
weight = -350;
width = 60;
};
};
width = 502;
},
{
layerId = "420CDBF3-1EA9-4A60-A2C9-262C353BE567";
shapes = (
{
closed = 1;
nodes = (
(379,-6,o),
(461,51,o),
(461,137,cs),
(461,218,o),
(387,272,o),
(289,272,cs),
(190,272,o),
(125,221,o),
(116,152,c),
(114,152,l),
(113,171,o),
(113,190,o),
(113,202,cs),
(113,304,o),
(169,363,o),
(281,363,cs),
(327,363,o),
(371,351,o),
(406,318,c),
(453,366,l),
(410,407,o),
(349,426,o),
(277,426,cs),
(128,426,o),
(34,340,o),
(34,204,cs),
(34,72,o),
(116,-6,o),
(260,-6,cs)
);
},
{
closed = 1;
nodes = (
(179,52,o),
(128,86,o),
(128,136,cs),
(128,187,o),
(179,219,o),
(257,219,cs),
(333,219,o),
(383,187,o),
(383,136,cs),
(383,86,o),
(334,52,o),
(258,52,cs)
);
}
);
userData = {
RMXScaler = {
height = 60;
weight = -70;
width = 60;
};
};
width = 491;
},
{
layerId = "49EC3AAF-00BE-4B7E-9333-53C2424A5618";
shapes = (
{
closed = 1;
nodes = (
(287,-6,o),
(346,51,o),
(346,137,cs),
(346,218,o),
(293,273,o),
(218,273,cs),
(166,273,o),
(120,245,o),
(102,198,c),
(101,198,l),
(101,201,o),
(101,204,o),
(101,207,cs),
(101,311,o),
(143,370,o),
(217,370,cs),
(246,370,o),
(274,360,o),
(294,340,c),
(339,377,l),
(311,408,o),
(268,426,o),
(217,426,cs),
(99,426,o),
(35,338,o),
(35,206,cs),
(35,67,o),
(94,-6,o),
(198,-6,cs)
);
},
{
closed = 1;
nodes = (
(146,47,o),
(113,80,o),
(113,135,cs),
(113,190,o),
(145,224,o),
(197,224,cs),
(249,224,o),
(280,190,o),
(280,135,cs),
(280,81,o),
(250,47,o),
(198,47,cs)
);
}
);
userData = {
RMXScaler = {
height = 60;
weight = -80;
width = 60;
};
};
width = 377;
},
{
layerId = "936587BF-088D-4F2D-A787-D302E778354F";
shapes = (
{
closed = 1;
nodes = (
(304,-6,o),
(372,54,o),
(372,144,cs),
(372,225,o),
(321,272,o),
(245,272,cs),
(199,272,o),
(161,250,o),
(142,213,c),
(141,213,l),
(141,218,o),
(141,218,o),
(141,223,cs),
(141,294,o),
(163,335,o),
(215,335,cs),
(237,335,o),
(256,323,o),
(269,298,c),
(367,339,l),
(341,393,o),
(287,426,o),
(212,426,cs),
(75,426,o),
(15,320,o),
(15,210,cs),
(15,74,o),
(83,-6,o),
(201,-6,cs)
);
},
{
closed = 1;
nodes = (
(168,78,o),
(147,102,o),
(147,139,cs),
(147,175,o),
(168,201,o),
(200,201,cs),
(230,201,o),
(250,175,o),
(250,139,cs),
(250,101,o),
(229,78,o),
(200,78,cs)
);
}
);
userData = {
RMXScaler = {
height = 60;
weight = -350;
width = 60;
};
};
width = 384;
}
);
userData = {
RMXScaler = {
source = six;
};
};
},
{
glyphname = seven.dnom;
kernLeft = zero.dnom;
kernRight = zero.dnom;
lastChange = "2026-01-23 20:50:18 +0000";
layers = (
{
layerId = "5EDB8360-C867-4183-822A-D387B21AE085";
shapes = (
{
closed = 1;
nodes = (
(222,0,l),
(520,420,l),
(13,420,l),
(13,310,l),
(216,310,l),
(289,310,l),
(288,317,l),
(42,0,l)
);
}
);
userData = {
RMXScaler = {
height = 60;
weight = -350;
width = 60;
};
};
width = 524;
},
{
layerId = "420CDBF3-1EA9-4A60-A2C9-262C353BE567";
shapes = (
{
closed = 1;
nodes = (
(169,0,l),
(456,420,l),
(22,420,l),
(22,354,l),
(257,354,l),
(326,354,l),
(321,358,l),
(66,0,l)
);
}
);
userData = {
RMXScaler = {
height = 60;
weight = -70;
width = 60;
};
};
width = 466;
},
{
layerId = "49EC3AAF-00BE-4B7E-9333-53C2424A5618";
shapes = (
{
closed = 1;
nodes = (
(137,0,l),
(321,420,l),
(19,420,l),
(19,364,l),
(180,364,l),
(236,364,l),
(234,376,l),
(61,0,l)
);
}
);
userData = {
RMXScaler = {
height = 60;
weight = -80;
width = 60;
};
};
width = 331;
},
{
layerId = "936587BF-088D-4F2D-A787-D302E778354F";
shapes = (
{
closed = 1;
nodes = (
(189,0,l),
(352,420,l),
(11,420,l),
(11,322,l),
(135,322,l),
(199,322,l),
(194,337,l),
(53,0,l)
);
}
);
userData = {
RMXScaler = {
height = 60;
weight = -350;
width = 60;
};
};
width = 357;
}
);
userData = {
RMXScaler = {
source = seven;
};
};
},
{
glyphname = eight.dnom;
kernLeft = zero.dnom;
kernRight = zero.dnom;
lastChange = "2026-01-23 20:50:18 +0000";
layers = (
{
layerId = "5EDB8360-C867-4183-822A-D387B21AE085";
shapes = (
{
closed = 1;
nodes = (
(407,-6,o),
(502,36,o),
(502,111,cs),
(502,167,o),
(450,207,o),
(333,215,c),
(333,217,l),
(437,226,o),
(478,265,o),
(478,314,cs),
(478,387,o),
(392,426,o),
(254,426,cs),
(114,426,o),
(30,385,o),
(30,315,cs),
(30,264,o),
(74,227,o),
(175,217,c),
(175,215,l),
(58,207,o),
(7,167,o),
(7,111,cs),
(7,35,o),
(102,-6,o),
(254,-6,cs)
);
},
{
closed = 1;
nodes = (
(202,91,o),
(168,107,o),
(168,136,cs),
(168,165,o),
(202,181,o),
(256,181,cs),
(310,181,o),
(342,164,o),
(342,136,cs),
(342,107,o),
(309,91,o),
(256,91,cs)
);
},
{
closed = 1;
nodes = (
(207,250,o),
(177,265,o),
(177,290,cs),
(177,317,o),
(207,332,o),
(256,332,cs),
(304,332,o),
(333,317,o),
(333,290,cs),
(333,265,o),
(304,250,o),
(256,250,cs)
);
}
);
userData = {
RMXScaler = {
height = 60;
weight = -350;
width = 60;
};
};
width = 509;
},
{
layerId = "420CDBF3-1EA9-4A60-A2C9-262C353BE567";
shapes = (
{
closed = 1;
nodes = (
(379,-6,o),
(467,37,o),
(467,111,cs),
(467,167,o),
(417,208,o),
(318,216,c),
(318,218,l),
(402,226,o),
(444,263,o),
(444,315,cs),
(444,386,o),
(365,426,o),
(248,426,cs),
(128,426,o),
(52,384,o),
(52,315,cs),
(52,262,o),
(99,226,o),
(179,218,c),
(179,216,l),
(78,208,o),
(29,167,o),
(29,111,cs),
(29,38,o),
(114,-6,o),
(248,-6,cs)
);
},
{
closed = 1;
nodes = (
(165,55,o),
(114,81,o),
(114,123,cs),
(114,164,o),
(165,190,o),
(248,190,cs),
(330,190,o),
(382,165,o),
(382,123,cs),
(382,80,o),
(330,55,o),
(248,55,cs)
);
},
{
closed = 1;
nodes = (
(176,242,o),
(132,266,o),
(132,305,cs),
(132,343,o),
(176,366,o),
(248,366,cs),
(320,366,o),
(364,343,o),
(364,305,cs),
(364,266,o),
(320,242,o),
(248,242,cs)
);
}
);
userData = {
RMXScaler = {
height = 60;
weight = -70;
width = 60;
};
};
width = 496;
},
{
layerId = "49EC3AAF-00BE-4B7E-9333-53C2424A5618";
shapes = (
{
closed = 1;
nodes = (
(285,-6,o),
(347,42,o),
(347,111,cs),
(347,163,o),
(314,204,o),
(258,218,c),
(258,219,l),
(303,233,o),
(330,269,o),
(330,317,cs),
(330,384,o),
(274,426,o),
(189,426,cs),
(104,426,o),
(48,384,o),
(48,317,cs),
(48,269,o),
(76,233,o),
(121,219,c),
(121,218,l),
(66,204,o),
(33,164,o),
(33,111,cs),
(33,42,o),
(94,-6,o),
(189,-6,cs)
);
},
{
closed = 1;
nodes = (
(136,49,o),
(102,76,o),
(102,121,cs),
(102,166,o),
(135,193,o),
(190,193,cs),
(243,193,o),
(277,166,o),
(277,121,cs),
(277,76,o),
(243,49,o),
(190,49,cs)
);
},
{
closed = 1;
nodes = (
(143,240,o),
(115,265,o),
(115,307,cs),
(115,347,o),
(143,372,o),
(190,372,cs),
(236,372,o),
(264,348,o),
(264,307,cs),
(264,265,o),
(237,240,o),
(190,240,cs)
);
}
);
userData = {
RMXScaler = {
height = 60;
weight = -80;
width = 60;
};
};
width = 380;
},
{
layerId = "936587BF-088D-4F2D-A787-D302E778354F";
shapes = (
{
closed = 1;
nodes = (
(306,-6,o),
(375,43,o),
(375,117,cs),
(375,163,o),
(345,203,o),
(285,218,c),
(285,220,l),
(336,236,o),
(357,272,o),
(357,312,cs),
(357,381,o),
(297,426,o),
(192,426,cs),
(89,426,o),
(28,381,o),
(28,312,cs),
(28,272,o),
(50,236,o),
(100,220,c),
(100,218,l),
(41,203,o),
(12,163,o),
(12,117,cs),
(12,43,o),
(79,-6,o),
(192,-6,cs)
);
},
{
closed = 1;
nodes = (
(164,85,o),
(146,104,o),
(146,136,cs),
(146,168,o),
(164,186,o),
(194,186,cs),
(223,186,o),
(241,168,o),
(241,136,cs),
(241,104,o),
(223,85,o),
(194,85,cs)
);
},
{
closed = 1;
nodes = (
(167,246,o),
(151,263,o),
(151,292,cs),
(151,320,o),
(167,337,o),
(194,337,cs),
(220,337,o),
(235,320,o),
(235,292,cs),
(235,263,o),
(220,246,o),
(194,246,cs)
);
}
);
userData = {
RMXScaler = {
height = 60;
weight = -350;
width = 60;
};
};
width = 385;
}
);
userData = {
RMXScaler = {
source = eight;
};
};
},
{
glyphname = nine.dnom;
kernLeft = zero.dnom;
kernRight = zero.dnom;
lastChange = "2026-01-24 09:49:48 +0000";
layers = (
{
layerId = "5EDB8360-C867-4183-822A-D387B21AE085";
shapes = (
{
closed = 1;
nodes = (
(376,-6,o),
(488,77,o),
(488,215,cs),
(488,347,o),
(395,426,o),
(237,426,cs),
(103,426,o),
(10,368,o),
(10,279,cs),
(10,203,o),
(82,153,o),
(183,153,cs),
(260,153,o),
(321,183,o),
(338,230,c),
(341,230,l),
(341,229,o),
(341,226,o),
(341,224,cs),
(341,139,o),
(298,102,o),
(203,102,cs),
(163,102,o),
(125,112,o),
(80,137,c),
(8,48,l),
(64,13,o),
(133,-6,o),
(211,-6,cs)
);
},
{
closed = 1;
nodes = (
(188,225,o),
(152,244,o),
(152,279,cs),
(152,314,o),
(186,334,o),
(244,334,cs),
(303,334,o),
(338,314,o),
(338,279,cs),
(338,244,o),
(302,225,o),
(245,225,cs)
);
}
);
userData = {
RMXScaler = {
height = 60;
weight = -350;
width = 60;
};
};
width = 502;
},
{
layerId = "420CDBF3-1EA9-4A60-A2C9-262C353BE567";
shapes = (
{
closed = 1;
nodes = (
(363,-6,o),
(457,80,o),
(457,216,cs),
(457,348,o),
(376,426,o),
(231,426,cs),
(112,426,o),
(30,369,o),
(30,283,cs),
(30,202,o),
(104,148,o),
(202,148,cs),
(301,148,o),
(366,199,o),
(375,268,c),
(377,268,l),
(378,249,o),
(378,230,o),
(378,218,cs),
(378,116,o),
(323,57,o),
(211,57,cs),
(164,57,o),
(120,69,o),
(85,102,c),
(39,54,l),
(82,13,o),
(143,-6,o),
(214,-6,cs)
);
},
{
closed = 1;
nodes = (
(158,201,o),
(108,233,o),
(108,284,cs),
(108,334,o),
(158,368,o),
(234,368,cs),
(313,368,o),
(363,334,o),
(363,284,cs),
(363,233,o),
(313,201,o),
(235,201,cs)
);
}
);
userData = {
RMXScaler = {
height = 60;
weight = -70;
width = 60;
};
};
width = 491;
},
{
layerId = "49EC3AAF-00BE-4B7E-9333-53C2424A5618";
shapes = (
{
closed = 1;
nodes = (
(278,-6,o),
(342,83,o),
(342,214,cs),
(342,353,o),
(283,426,o),
(179,426,cs),
(90,426,o),
(31,369,o),
(31,283,cs),
(31,202,o),
(84,147,o),
(159,147,cs),
(211,147,o),
(257,175,o),
(275,222,c),
(276,222,l),
(276,219,o),
(276,216,o),
(276,213,cs),
(276,110,o),
(234,50,o),
(160,50,cs),
(131,50,o),
(103,60,o),
(83,80,c),
(38,43,l),
(66,12,o),
(109,-6,o),
(160,-6,cs)
);
},
{
closed = 1;
nodes = (
(128,196,o),
(97,230,o),
(97,285,cs),
(97,340,o),
(127,373,o),
(178,373,cs),
(231,373,o),
(264,340,o),
(264,285,cs),
(264,230,o),
(231,196,o),
(179,196,cs)
);
}
);
userData = {
RMXScaler = {
height = 60;
weight = -80;
width = 60;
};
};
width = 378;
},
{
layerId = "936587BF-088D-4F2D-A787-D302E778354F";
shapes = (
{
closed = 1;
nodes = (
(308,-6,o),
(368,100,o),
(368,210,cs),
(368,346,o),
(301,426,o),
(182,426,cs),
(80,426,o),
(11,366,o),
(11,276,cs),
(11,195,o),
(63,148,o),
(138,148,cs),
(184,148,o),
(222,170,o),
(241,207,c),
(243,207,l),
(243,202,o),
(243,202,o),
(243,197,cs),
(243,125,o),
(220,85,o),
(168,85,cs),
(146,85,o),
(127,97,o),
(114,122,c),
(16,81,l),
(42,27,o),
(96,-6,o),
(171,-6,cs)
);
},
{
closed = 1;
nodes = (
(153,219,o),
(133,245,o),
(133,281,cs),
(133,319,o),
(154,342,o),
(184,342,cs),
(215,342,o),
(236,318,o),
(236,281,cs),
(236,245,o),
(215,219,o),
(184,219,cs)
);
}
);
userData = {
RMXScaler = {
height = 60;
weight = -350;
width = 60;
};
};
width = 383;
}
);
userData = {
RMXScaler = {
source = nine;
};
};
},
